SplineFontDB: 3.2
FontName: Dakkhinee-Regular
FullName: Dakkhinee Regular
FamilyName: Dakkhinee
Weight: Book
Copyright: Copyright 2024 The Dakkhinee Project Authors (https://github.com/mitradranirban/font-dakkhinee)
Version: 1.001; ttfautohint (v1.8.4.7-5d5b)
ItalicAngle: 0
UnderlinePosition: -401
UnderlineWidth: 73
Ascent: 800
Descent: 200
InvalidEm: 0
sfntRevision: 0x00010042
LayerCount: 2
Layer: 0 1 "Back" 1
Layer: 1 1 "Fore" 0
XUID: [1021 557 1747282856 11613353]
BaseVert: 2 'hang' 'romn'
BaseScript: 'beng' 0  1024 0
BaseScript: 'deva' 0  1024 0
BaseScript: 'latn' 1  0 0
StyleMap: 0x0040
FSType: 0
OS2Version: 4
OS2_WeightWidthSlopeOnly: 0
OS2_UseTypoMetrics: 1
CreationTime: 1638213189
ModificationTime: 1724261273
PfmFamily: 17
TTFWeight: 400
TTFWidth: 5
LineGap: 0
VLineGap: 0
Panose: 2 0 5 3 0 0 0 0 0 0
OS2TypoAscent: 1200
OS2TypoAOffset: 0
OS2TypoDescent: -300
OS2TypoDOffset: 0
OS2TypoLinegap: 0
OS2WinAscent: 1295
OS2WinAOffset: 0
OS2WinDescent: 672
OS2WinDOffset: 0
HheadAscent: 1200
HheadAOffset: 0
HheadDescent: -300
HheadDOffset: 0
OS2SubXSize: 650
OS2SubYSize: 700
OS2SubXOff: 0
OS2SubYOff: 140
OS2SupXSize: 650
OS2SupYSize: 700
OS2SupXOff: 0
OS2SupYOff: 480
OS2StrikeYSize: 49
OS2StrikeYPos: 258
OS2CapHeight: 800
OS2XHeight: 508
OS2Vendor: 'anir'
OS2CodePages: 00000093.00000000
OS2UnicodeRanges: 80018007.00002002.00000000.00000000
Lookup: 4 0 1 "'liga' Standard Ligatures in Latin lookup 0" { "'liga' Standard Ligatures in Latin lookup 0 subtable"  } ['liga' ('DFLT' <'dflt' > 'latn' <'dflt' > ) ]
Lookup: 4 0 0 "'nukt' Nukta Forms in Bengali2 lookup 1" { "'nukt' Nukta Forms in Bengali2 lookup 1 subtable"  } ['nukt' ('bng2' <'ASM ' 'dflt' > ) ]
Lookup: 4 0 0 "'akhn' Akhand in Bengali2 lookup 2" { "'akhn' Akhand in Bengali2 lookup 2 subtable"  } ['akhn' ('bng2' <'dflt' > ) ]
Lookup: 4 0 0 "'rphf' Reph Form in Bengali2 lookup 3" { "'rphf' Reph Form in Bengali2 lookup 3 subtable"  } ['rphf' ('bng2' <'ASM ' 'dflt' > ) ]

StartChar: .notdef
Encoding: 65536 -1 0
Width: 546
Flags: W
LayerCount: 2
Fore
SplineSet
402 82 m 1,0,-1
 144 82 l 1,1,-1
 274 369 l 1,2,-1
 402 82 l 1,0,-1
130 690 m 1,3,-1
 246 430 l 1,4,-1
 130 173 l 1,5,-1
 130 690 l 1,3,-1
80 800 m 2,6,-1
 80 57 l 2,7,8
 80 46 80 46 87 39 c 128,-1,9
 94 32 94 32 105 32 c 2,10,-1
 441 32 l 2,11,12
 452 32 452 32 459 39 c 128,-1,13
 466 46 466 46 466 57 c 2,14,-1
 466 800 l 2,15,16
 466 810 466 810 459 817.5 c 128,-1,17
 452 825 452 825 441 825 c 2,18,-1
 105 825 l 2,19,20
 94 825 94 825 87 817.5 c 128,-1,21
 80 810 80 810 80 800 c 2,6,-1
416 174 m 1,22,-1
 301 430 l 1,23,-1
 416 684 l 1,24,-1
 416 174 l 1,22,-1
147 775 m 1,25,-1
 402 775 l 1,26,-1
 274 491 l 1,27,-1
 147 775 l 1,25,-1
EndSplineSet
EndChar

StartChar: A
Encoding: 65 65 1
Width: 562
GlyphClass: 2
Flags: W
LayerCount: 2
Fore
SplineSet
111 390 m 1,0,-1
 111 428 l 2,1,2
 111 557 111 557 160 648 c 0,3,4
 210 740 210 740 280 740 c 128,-1,5
 350 740 350 740 400 648 c 0,6,7
 449 557 449 557 449 428 c 2,8,-1
 449 390 l 1,9,-1
 111 390 l 1,0,-1
436 740 m 1,10,11
 481 752 481 752 510.5 791.5 c 128,-1,12
 540 831 540 831 540 883 c 0,13,14
 540 960 540 960 462 1026 c 1,15,-1
 410 974 l 1,16,17
 449 942 449 942 449 883 c 0,18,19
 449 857 449 857 434.5 837.5 c 128,-1,20
 420 818 420 818 397 818 c 2,21,-1
 0 818 l 1,22,-1
 0 740 l 1,23,-1
 124 740 l 1,24,25
 20 614 20 614 20 428 c 2,26,-1
 20 56 l 1,27,-1
 111 56 l 1,28,-1
 111 306 l 1,29,-1
 449 306 l 1,30,-1
 449 61 l 1,31,-1
 540 61 l 1,32,-1
 540 428 l 2,33,34
 540 614 540 614 436 740 c 1,10,11
EndSplineSet
EndChar

StartChar: AE
Encoding: 198 198 2
Width: 847
GlyphClass: 2
Flags: W
LayerCount: 2
Fore
SplineSet
540 431 m 1,0,1
 549 426 549 426 569 418 c 1,2,3
 549 410 549 410 540 405 c 1,4,-1
 540 431 l 1,0,1
449 744 m 2,5,-1
 579 744 l 1,6,7
 546 731 546 731 506 694 c 0,8,9
 490 680 490 680 483 669 c 1,10,11
 462 709 462 709 436 740 c 1,12,13
 446 742 446 742 449 744 c 2,5,-1
20 428 m 2,14,-1
 20 56 l 1,15,-1
 111 56 l 1,16,-1
 111 306 l 1,17,-1
 449 306 l 1,18,-1
 449 61 l 1,19,-1
 540 61 l 1,20,-1
 540 110 l 1,21,22
 570 90 570 90 647.5 72 c 128,-1,23
 725 54 725 54 770 54 c 0,24,25
 780 54 780 54 783 103 c 1,26,-1
 782 114 l 2,27,28
 781 124 781 124 777.5 134.5 c 128,-1,29
 774 145 774 145 770 145 c 0,30,31
 735 145 735 145 666 160 c 128,-1,32
 597 175 597 175 576 189 c 0,33,34
 550 206 550 206 540 226 c 1,35,-1
 540 302 l 1,36,37
 556 337 556 337 597 358.5 c 128,-1,38
 638 380 638 380 687 380 c 1,39,-1
 687 458 l 1,40,41
 626 458 626 458 578.5 490.5 c 128,-1,42
 531 523 531 523 531 575 c 0,43,44
 531 609 531 609 558 630.5 c 128,-1,45
 585 652 585 652 621 652 c 0,46,47
 645 652 645 652 666 641.5 c 128,-1,48
 687 631 687 631 687 614 c 0,49,50
 687 598 687 598 675.5 586.5 c 128,-1,51
 664 575 664 575 647 575 c 1,52,-1
 647 510 l 1,53,54
 694 514 694 514 729.5 542.5 c 128,-1,55
 765 571 765 571 765 614 c 0,56,57
 765 656 765 656 743 693 c 128,-1,58
 721 730 721 730 688 744 c 1,59,-1
 695 744 l 2,60,61
 754 744 754 744 796 786 c 128,-1,62
 838 828 838 828 838 887 c 0,63,64
 838 966 838 966 760 1030 c 1,65,-1
 708 978 l 1,66,67
 760 934 760 934 760 887 c 0,68,69
 760 860 760 860 741 841 c 128,-1,70
 722 822 722 822 695 822 c 0,71,72
 0 822 0 822 0 822 c 1,73,-1
 0 740 l 1,74,-1
 124 740 l 1,75,76
 20 614 20 614 20 428 c 2,14,-1
111 390 m 1,77,-1
 111 428 l 2,78,79
 111 557 111 557 160 648 c 0,80,81
 210 740 210 740 280 740 c 128,-1,82
 350 740 350 740 400 648 c 0,83,84
 449 557 449 557 449 428 c 2,85,-1
 449 390 l 1,86,-1
 111 390 l 1,77,-1
EndSplineSet
EndChar

StartChar: Acircumflex
Encoding: 194 194 5
Width: 562
GlyphClass: 2
Flags: W
LayerCount: 2
Fore
SplineSet
203 1295 m 1,0,-1
 51 1020 l 1,1,-1
 113 1020 l 1,2,-1
 240 1248 l 1,3,-1
 365 1020 l 1,4,-1
 428 1020 l 1,5,-1
 273 1295 l 1,6,-1
 203 1295 l 1,0,-1
111 390 m 1,7,-1
 111 428 l 2,8,9
 111 557 111 557 160 648 c 0,10,11
 210 740 210 740 280 740 c 128,-1,12
 350 740 350 740 400 648 c 0,13,14
 449 557 449 557 449 428 c 2,15,-1
 449 390 l 1,16,-1
 111 390 l 1,7,-1
436 740 m 1,17,18
 481 752 481 752 510.5 791.5 c 128,-1,19
 540 831 540 831 540 883 c 0,20,21
 540 960 540 960 462 1026 c 1,22,-1
 410 974 l 1,23,24
 449 942 449 942 449 883 c 0,25,26
 449 857 449 857 434.5 837.5 c 128,-1,27
 420 818 420 818 397 818 c 2,28,-1
 0 818 l 1,29,-1
 0 740 l 1,30,-1
 124 740 l 1,31,32
 20 614 20 614 20 428 c 2,33,-1
 20 56 l 1,34,-1
 111 56 l 1,35,-1
 111 306 l 1,36,-1
 449 306 l 1,37,-1
 449 61 l 1,38,-1
 540 61 l 1,39,-1
 540 428 l 2,40,41
 540 614 540 614 436 740 c 1,17,18
EndSplineSet
EndChar

StartChar: B
Encoding: 66 66 12
Width: 557
GlyphClass: 2
Flags: W
LayerCount: 2
Fore
SplineSet
355 56 m 0,0,1
 433 56 433 56 488 117 c 0,2,3
 542 177 542 177 542 265 c 0,4,5
 542 321 542 321 516 367.5 c 128,-1,6
 490 414 490 414 449 430 c 1,7,8
 490 446 490 446 516 492 c 128,-1,9
 542 538 542 538 542 594 c 0,10,11
 542 700 542 700 458 766 c 1,12,13
 515 811 515 811 515 880 c 0,14,15
 515 916 515 916 494 954 c 0,16,17
 472 994 472 994 437 1023 c 1,18,-1
 385 971 l 1,19,20
 437 929 437 929 437 880 c 0,21,22
 437 853 437 853 418 834 c 128,-1,23
 399 815 399 815 372 815 c 1,24,-1
 338 804 l 1,25,-1
 338 803 l 1,26,27
 281 802 281 802 229 768 c 0,28,29
 204 752 204 752 149.5 686 c 128,-1,30
 95 620 95 620 74 585 c 1,31,-1
 74 56 l 1,32,-1
 137 56 l 1,33,-1
 137 190 l 1,34,35
 172 131 172 131 227.5 93.5 c 128,-1,36
 283 56 283 56 355 56 c 0,0,1
470 594 m 0,37,38
 470 546 470 546 436.5 510 c 128,-1,39
 403 474 403 474 355 474 c 1,40,-1
 355 385 l 1,41,42
 403 385 403 385 436.5 349 c 128,-1,43
 470 313 470 313 470 265 c 0,44,45
 470 221 470 221 435.5 190.5 c 128,-1,46
 401 160 401 160 355 160 c 0,47,48
 265 160 265 160 201 239 c 128,-1,49
 137 318 137 318 137 430 c 0,50,51
 137 541 137 541 198 620 c 128,-1,52
 259 699 259 699 345 699 c 0,53,54
 394 699 394 699 432 668.5 c 128,-1,55
 470 638 470 638 470 594 c 0,37,38
EndSplineSet
EndChar

StartChar: C
Encoding: 67 67 13
Width: 664
GlyphClass: 2
Flags: W
LayerCount: 2
Fore
SplineSet
366 660 m 0,0,1
 421 660 421 660 444 640 c 1,2,3
 408 634 408 634 384 597.5 c 128,-1,4
 360 561 360 561 360 516 c 0,5,6
 360 459 360 459 400 416.5 c 128,-1,7
 440 374 440 374 496 374 c 0,8,9
 551 374 551 374 588.5 416.5 c 128,-1,10
 626 459 626 459 626 516 c 0,11,12
 626 613 626 613 550 682 c 0,13,14
 509 720 509 720 459 736 c 1,15,-1
 509 736 l 2,16,17
 568 736 568 736 610 778 c 128,-1,18
 652 820 652 820 652 879 c 0,19,20
 652 956 652 956 574 1022 c 1,21,-1
 522 970 l 1,22,23
 574 926 574 926 574 879 c 0,24,25
 574 852 574 852 555 833 c 128,-1,26
 536 814 536 814 509 814 c 2,27,-1
 2 814 l 1,28,-1
 2 736 l 1,29,-1
 256 736 l 1,30,31
 177 713 177 713 121 656 c 0,32,33
 28 562 28 562 28 406 c 128,-1,34
 28 250 28 250 121 156 c 128,-1,35
 214 62 214 62 366 62 c 0,36,37
 454 62 454 62 523 110 c 128,-1,38
 592 158 592 158 626 230 c 1,39,-1
 548 282 l 1,40,41
 521 227 521 227 474.5 190 c 128,-1,42
 428 153 428 153 366 153 c 0,43,44
 254 153 254 153 186.5 222.5 c 128,-1,45
 119 292 119 292 119 406 c 0,46,47
 119 519 119 519 187 589.5 c 128,-1,48
 255 660 255 660 366 660 c 0,0,1
548 516 m 0,49,50
 548 494 548 494 533.5 479.5 c 128,-1,51
 519 465 519 465 496 465 c 0,52,53
 475 465 475 465 459.5 480 c 128,-1,54
 444 495 444 495 444 516 c 0,55,56
 444 538 444 538 459 553 c 128,-1,57
 474 568 474 568 496 568 c 0,58,59
 519 568 519 568 533.5 553.5 c 128,-1,60
 548 539 548 539 548 516 c 0,49,50
EndSplineSet
EndChar

StartChar: Ccaron
Encoding: 268 268 15
Width: 664
GlyphClass: 2
Flags: W
LayerCount: 2
Fore
SplineSet
308 899 m 1,0,-1
 364 899 l 1,1,-1
 488 1118 l 1,2,-1
 438 1118 l 1,3,-1
 338 936 l 1,4,-1
 237 1118 l 1,5,-1
 187 1118 l 1,6,-1
 308 899 l 1,0,-1
366 660 m 0,7,8
 421 660 421 660 444 640 c 1,9,10
 408 634 408 634 384 597.5 c 128,-1,11
 360 561 360 561 360 516 c 0,12,13
 360 459 360 459 400 416.5 c 128,-1,14
 440 374 440 374 496 374 c 0,15,16
 551 374 551 374 588.5 416.5 c 128,-1,17
 626 459 626 459 626 516 c 0,18,19
 626 613 626 613 550 682 c 0,20,21
 509 720 509 720 459 736 c 1,22,-1
 509 736 l 2,23,24
 568 736 568 736 610 778 c 128,-1,25
 652 820 652 820 652 879 c 0,26,27
 652 956 652 956 574 1022 c 1,28,-1
 522 970 l 1,29,30
 574 926 574 926 574 879 c 0,31,32
 574 852 574 852 555 833 c 128,-1,33
 536 814 536 814 509 814 c 2,34,-1
 2 814 l 1,35,-1
 2 736 l 1,36,-1
 256 736 l 1,37,38
 177 713 177 713 121 656 c 0,39,40
 28 562 28 562 28 406 c 128,-1,41
 28 250 28 250 121 156 c 128,-1,42
 214 62 214 62 366 62 c 0,43,44
 454 62 454 62 523 110 c 128,-1,45
 592 158 592 158 626 230 c 1,46,-1
 548 282 l 1,47,48
 521 227 521 227 474.5 190 c 128,-1,49
 428 153 428 153 366 153 c 0,50,51
 254 153 254 153 186.5 222.5 c 128,-1,52
 119 292 119 292 119 406 c 0,53,54
 119 519 119 519 187 589.5 c 128,-1,55
 255 660 255 660 366 660 c 0,7,8
548 516 m 0,56,57
 548 494 548 494 533.5 479.5 c 128,-1,58
 519 465 519 465 496 465 c 0,59,60
 475 465 475 465 459.5 480 c 128,-1,61
 444 495 444 495 444 516 c 0,62,63
 444 538 444 538 459 553 c 128,-1,64
 474 568 474 568 496 568 c 0,65,66
 519 568 519 568 533.5 553.5 c 128,-1,67
 548 539 548 539 548 516 c 0,56,57
EndSplineSet
EndChar

StartChar: D
Encoding: 68 68 19
Width: 664
GlyphClass: 2
Flags: W
LayerCount: 2
Fore
SplineSet
251 533 m 0,0,1
 251 482 251 482 285 443.5 c 128,-1,2
 319 405 319 405 368 405 c 0,3,4
 400 405 400 405 419 437.5 c 128,-1,5
 438 470 438 470 438 510 c 1,6,-1
 392 510 l 1,7,8
 384 475 384 475 368 475 c 0,9,10
 348 475 348 475 334.5 492.5 c 128,-1,11
 321 510 321 510 321 533 c 0,12,13
 321 569 321 569 339 598 c 128,-1,14
 357 627 357 627 385 627 c 0,15,16
 436 627 436 627 472 555 c 128,-1,17
 508 483 508 483 508 381 c 128,-1,18
 508 279 508 279 450 208 c 0,19,20
 392 136 392 136 310 136 c 2,21,-1
 160 136 l 1,22,-1
 160 737 l 1,23,-1
 509 737 l 2,24,25
 568 737 568 737 610 779.5 c 128,-1,26
 652 822 652 822 652 880 c 0,27,28
 652 957 652 957 574 1023 c 1,29,-1
 522 971 l 1,30,31
 574 927 574 927 574 880 c 0,32,33
 574 853 574 853 555 834 c 128,-1,34
 536 815 536 815 509 815 c 2,35,-1
 2 815 l 1,36,-1
 2 737 l 1,37,-1
 74 737 l 1,38,-1
 74 54 l 1,39,-1
 310 54 l 2,40,41
 426 54 426 54 508 150 c 0,42,43
 590 245 590 245 590 381 c 0,44,45
 590 513 590 513 529 605 c 128,-1,46
 468 697 468 697 380 697 c 0,47,48
 324 697 324 697 287.5 647 c 128,-1,49
 251 597 251 597 251 533 c 0,0,1
EndSplineSet
EndChar

StartChar: Dcaron
Encoding: 270 270 20
Width: 664
GlyphClass: 2
Flags: W
LayerCount: 2
Fore
SplineSet
280 856 m 1,0,-1
 332 856 l 1,1,-1
 448 1061 l 1,2,-1
 401 1061 l 1,3,-1
 307 890 l 1,4,-1
 212 1061 l 1,5,-1
 166 1061 l 1,6,-1
 280 856 l 1,0,-1
251 533 m 0,7,8
 251 482 251 482 285 443.5 c 128,-1,9
 319 405 319 405 368 405 c 0,10,11
 400 405 400 405 419 437.5 c 128,-1,12
 438 470 438 470 438 510 c 1,13,-1
 392 510 l 1,14,15
 384 475 384 475 368 475 c 0,16,17
 348 475 348 475 334.5 492.5 c 128,-1,18
 321 510 321 510 321 533 c 0,19,20
 321 569 321 569 339 598 c 128,-1,21
 357 627 357 627 385 627 c 0,22,23
 436 627 436 627 472 555 c 128,-1,24
 508 483 508 483 508 381 c 128,-1,25
 508 279 508 279 450 208 c 0,26,27
 392 136 392 136 310 136 c 2,28,-1
 160 136 l 1,29,-1
 160 737 l 1,30,-1
 509 737 l 2,31,32
 568 737 568 737 610 779.5 c 128,-1,33
 652 822 652 822 652 880 c 0,34,35
 652 957 652 957 574 1023 c 1,36,-1
 522 971 l 1,37,38
 574 927 574 927 574 880 c 0,39,40
 574 853 574 853 555 834 c 128,-1,41
 536 815 536 815 509 815 c 2,42,-1
 2 815 l 1,43,-1
 2 737 l 1,44,-1
 74 737 l 1,45,-1
 74 54 l 1,46,-1
 310 54 l 2,47,48
 426 54 426 54 508 150 c 0,49,50
 590 245 590 245 590 381 c 0,51,52
 590 513 590 513 529 605 c 128,-1,53
 468 697 468 697 380 697 c 0,54,55
 324 697 324 697 287.5 647 c 128,-1,56
 251 597 251 597 251 533 c 0,7,8
EndSplineSet
EndChar

StartChar: E
Encoding: 69 69 22
Width: 398
GlyphClass: 2
Flags: W
LayerCount: 2
Fore
SplineSet
84 262 m 0,0,1
 84 314 84 314 132 347 c 128,-1,2
 180 380 180 380 240 380 c 1,3,-1
 240 458 l 1,4,5
 179 458 179 458 131.5 490.5 c 128,-1,6
 84 523 84 523 84 575 c 0,7,8
 84 609 84 609 111 630.5 c 128,-1,9
 138 652 138 652 174 652 c 0,10,11
 198 652 198 652 219 641.5 c 128,-1,12
 240 631 240 631 240 614 c 0,13,14
 240 598 240 598 228.5 586.5 c 128,-1,15
 217 575 217 575 200 575 c 1,16,-1
 200 510 l 1,17,18
 247 514 247 514 282.5 542.5 c 128,-1,19
 318 571 318 571 318 614 c 0,20,21
 318 656 318 656 296 693 c 128,-1,22
 274 730 274 730 241 744 c 1,23,-1
 248 744 l 2,24,25
 306 744 306 744 348.5 786 c 128,-1,26
 391 828 391 828 391 887 c 0,27,28
 391 966 391 966 313 1030 c 1,29,-1
 261 978 l 1,30,31
 313 934 313 934 313 887 c 0,32,33
 313 860 313 860 294 841 c 128,-1,34
 275 822 275 822 248 822 c 2,35,-1
 -3 822 l 1,36,-1
 -84 744 l 1,37,-1
 132 744 l 1,38,39
 99 731 99 731 59 694 c 0,40,41
 6 645 6 645 6 575 c 0,42,43
 6 520 6 520 39.5 478.5 c 128,-1,44
 73 437 73 437 122 418 c 1,45,46
 73 400 73 400 39.5 358.5 c 128,-1,47
 6 317 6 317 6 262 c 0,48,49
 6 180 6 180 74 124 c 0,50,51
 105 99 105 99 200.5 83.5 c 128,-1,52
 296 68 296 68 361 68 c 0,53,54
 371 68 371 68 374 117 c 1,55,-1
 373 128 l 2,56,57
 372 138 372 138 368.5 148.5 c 128,-1,58
 365 159 365 159 361 159 c 0,59,60
 331 159 331 159 286.5 166 c 128,-1,61
 242 173 242 173 195.5 185 c 128,-1,62
 149 197 149 197 116.5 217.5 c 128,-1,63
 84 238 84 238 84 262 c 0,0,1
EndSplineSet
EndChar

StartChar: Ecaron
Encoding: 282 282 25
Width: 398
GlyphClass: 2
Flags: W
LayerCount: 2
Fore
SplineSet
154 943 m 1,0,-1
 206 943 l 1,1,-1
 323 1148 l 1,2,-1
 276 1148 l 1,3,-1
 182 977 l 1,4,-1
 87 1148 l 1,5,-1
 40 1148 l 1,6,-1
 154 943 l 1,0,-1
84 262 m 0,7,8
 84 314 84 314 132 347 c 128,-1,9
 180 380 180 380 240 380 c 1,10,-1
 240 458 l 1,11,12
 179 458 179 458 131.5 490.5 c 128,-1,13
 84 523 84 523 84 575 c 0,14,15
 84 609 84 609 111 630.5 c 128,-1,16
 138 652 138 652 174 652 c 0,17,18
 198 652 198 652 219 641.5 c 128,-1,19
 240 631 240 631 240 614 c 0,20,21
 240 598 240 598 228.5 586.5 c 128,-1,22
 217 575 217 575 200 575 c 1,23,-1
 200 510 l 1,24,25
 247 514 247 514 282.5 542.5 c 128,-1,26
 318 571 318 571 318 614 c 0,27,28
 318 656 318 656 296 693 c 128,-1,29
 274 730 274 730 241 744 c 1,30,-1
 248 744 l 2,31,32
 306 744 306 744 348.5 786 c 128,-1,33
 391 828 391 828 391 887 c 0,34,35
 391 966 391 966 313 1030 c 1,36,-1
 261 978 l 1,37,38
 313 934 313 934 313 887 c 0,39,40
 313 860 313 860 294 841 c 128,-1,41
 275 822 275 822 248 822 c 2,42,-1
 -3 822 l 1,43,-1
 -84 744 l 1,44,-1
 132 744 l 1,45,46
 99 731 99 731 59 694 c 0,47,48
 6 645 6 645 6 575 c 0,49,50
 6 520 6 520 39.5 478.5 c 128,-1,51
 73 437 73 437 122 418 c 1,52,53
 73 400 73 400 39.5 358.5 c 128,-1,54
 6 317 6 317 6 262 c 0,55,56
 6 180 6 180 74 124 c 0,57,58
 105 99 105 99 200.5 83.5 c 128,-1,59
 296 68 296 68 361 68 c 0,60,61
 371 68 371 68 374 117 c 1,62,-1
 373 128 l 2,63,64
 372 138 372 138 368.5 148.5 c 128,-1,65
 365 159 365 159 361 159 c 0,66,67
 331 159 331 159 286.5 166 c 128,-1,68
 242 173 242 173 195.5 185 c 128,-1,69
 149 197 149 197 116.5 217.5 c 128,-1,70
 84 238 84 238 84 262 c 0,7,8
EndSplineSet
EndChar

StartChar: Ecircumflex
Encoding: 202 202 26
Width: 398
GlyphClass: 2
Flags: W
LayerCount: 2
Fore
SplineSet
258 905 m 0,0,1
 258 922 258 922 243 932 c 2,2,-1
 150 995 l 2,3,4
 138 999 138 999 134 999 c 0,5,6
 125 999 125 999 118 995 c 2,7,-1
 24 932 l 2,8,9
 9 922 9 922 9 905 c 0,10,11
 9 892 9 892 18 884.5 c 128,-1,12
 27 877 27 877 41 877 c 0,13,14
 50 877 50 877 59 884 c 2,15,-1
 134 935 l 1,16,-1
 208 884 l 2,17,18
 217 877 217 877 227 877 c 0,19,20
 240 877 240 877 249 885 c 128,-1,21
 258 893 258 893 258 905 c 0,0,1
84 262 m 0,22,23
 84 314 84 314 132 347 c 128,-1,24
 180 380 180 380 240 380 c 1,25,-1
 240 458 l 1,26,27
 179 458 179 458 131.5 490.5 c 128,-1,28
 84 523 84 523 84 575 c 0,29,30
 84 609 84 609 111 630.5 c 128,-1,31
 138 652 138 652 174 652 c 0,32,33
 198 652 198 652 219 641.5 c 128,-1,34
 240 631 240 631 240 614 c 0,35,36
 240 598 240 598 228.5 586.5 c 128,-1,37
 217 575 217 575 200 575 c 1,38,-1
 200 510 l 1,39,40
 247 514 247 514 282.5 542.5 c 128,-1,41
 318 571 318 571 318 614 c 0,42,43
 318 656 318 656 296 693 c 128,-1,44
 274 730 274 730 241 744 c 1,45,-1
 248 744 l 2,46,47
 306 744 306 744 348.5 786 c 128,-1,48
 391 828 391 828 391 887 c 0,49,50
 391 966 391 966 313 1030 c 1,51,-1
 261 978 l 1,52,53
 313 934 313 934 313 887 c 0,54,55
 313 860 313 860 294 841 c 128,-1,56
 275 822 275 822 248 822 c 2,57,-1
 -3 822 l 1,58,-1
 -84 744 l 1,59,-1
 132 744 l 1,60,61
 99 731 99 731 59 694 c 0,62,63
 6 645 6 645 6 575 c 0,64,65
 6 520 6 520 39.5 478.5 c 128,-1,66
 73 437 73 437 122 418 c 1,67,68
 73 400 73 400 39.5 358.5 c 128,-1,69
 6 317 6 317 6 262 c 0,70,71
 6 180 6 180 74 124 c 0,72,73
 105 99 105 99 200.5 83.5 c 128,-1,74
 296 68 296 68 361 68 c 0,75,76
 371 68 371 68 374 117 c 1,77,-1
 373 128 l 2,78,79
 372 138 372 138 368.5 148.5 c 128,-1,80
 365 159 365 159 361 159 c 0,81,82
 331 159 331 159 286.5 166 c 128,-1,83
 242 173 242 173 195.5 185 c 128,-1,84
 149 197 149 197 116.5 217.5 c 128,-1,85
 84 238 84 238 84 262 c 0,22,23
EndSplineSet
EndChar

StartChar: Eth
Encoding: 208 208 32
Width: 664
GlyphClass: 2
Flags: W
LayerCount: 2
Fore
SplineSet
652 880 m 0,0,1
 652 957 652 957 574 1023 c 1,2,-1
 522 971 l 1,3,4
 574 927 574 927 574 880 c 0,5,6
 574 853 574 853 555 834 c 128,-1,7
 536 815 536 815 509 815 c 2,8,-1
 2 815 l 1,9,-1
 2 737 l 1,10,-1
 74 737 l 1,11,-1
 74 507 l 1,12,-1
 0 507 l 1,13,-1
 0 422 l 1,14,-1
 75 422 l 1,15,-1
 75 136 l 2,16,17
 75 123 75 123 75.5 95.5 c 128,-1,18
 76 68 76 68 76 54 c 1,19,-1
 310 54 l 2,20,21
 426 54 426 54 508 150 c 0,22,23
 590 245 590 245 590 381 c 0,24,25
 590 513 590 513 529 605 c 128,-1,26
 468 697 468 697 380 697 c 0,27,28
 324 697 324 697 287.5 647 c 128,-1,29
 251 597 251 597 251 533 c 0,30,31
 251 482 251 482 285 443.5 c 128,-1,32
 319 405 319 405 368 405 c 0,33,34
 400 405 400 405 419 437.5 c 128,-1,35
 438 470 438 470 438 510 c 1,36,-1
 392 510 l 1,37,38
 384 475 384 475 368 475 c 0,39,40
 348 475 348 475 334.5 492.5 c 128,-1,41
 321 510 321 510 321 533 c 0,42,43
 321 569 321 569 339 598 c 128,-1,44
 357 627 357 627 385 627 c 0,45,46
 436 627 436 627 472 555 c 128,-1,47
 508 483 508 483 508 381 c 128,-1,48
 508 279 508 279 450 208 c 0,49,50
 392 136 392 136 310 136 c 2,51,-1
 161 136 l 1,52,-1
 161 422 l 1,53,-1
 213 422 l 1,54,-1
 213 507 l 1,55,-1
 160 507 l 1,56,-1
 160 737 l 1,57,-1
 509 737 l 2,58,59
 568 737 568 737 610 779.5 c 128,-1,60
 652 822 652 822 652 880 c 0,0,1
EndSplineSet
EndChar

StartChar: Euro
Encoding: 8364 8364 33
Width: 501
GlyphClass: 2
Flags: W
LayerCount: 2
Fore
SplineSet
270 426 m 1,0,1
 288 455 288 455 308 476.5 c 128,-1,2
 328 498 328 498 341.5 508.5 c 128,-1,3
 355 519 355 519 376 532 c 0,4,5
 437 570 437 570 493 574 c 1,6,-1
 479 627 l 1,7,8
 313 616 313 616 225 470 c 0,9,10
 210 446 210 446 200 426 c 1,11,-1
 6 426 l 1,12,-1
 6 386 l 1,13,-1
 188 386 l 1,14,-1
 193 394 l 1,15,16
 176 354 176 354 176 330 c 1,17,-1
 183 313 l 1,18,-1
 6 313 l 1,19,-1
 6 267 l 1,20,-1
 194 267 l 1,21,22
 224 199 224 199 254 165 c 128,-1,23
 284 131 284 131 359 73 c 0,24,25
 385 52 385 52 409 37 c 0,26,27
 446 12 446 12 461 12 c 2,28,-1
 464 12 l 1,29,-1
 469 61 l 1,30,31
 328 163 328 163 293 225 c 0,32,33
 286 236 286 236 276 247 c 128,-1,34
 266 258 266 258 261 267 c 1,35,-1
 494 267 l 1,36,-1
 494 312 l 1,37,-1
 251 312 l 1,38,-1
 260 269 l 1,39,40
 256 278 256 278 250.5 302.5 c 128,-1,41
 245 327 245 327 244 330 c 2,42,-1
 249 374 l 1,43,-1
 256 385 l 1,44,-1
 493 385 l 1,45,-1
 493 426 l 1,46,-1
 270 426 l 1,0,1
EndSplineSet
EndChar

StartChar: F
Encoding: 70 70 34
Width: 664
GlyphClass: 2
Flags: W
LayerCount: 2
Fore
SplineSet
145 137 m 0,0,1
 98 137 98 137 54 189 c 1,2,-1
 2 137 l 1,3,4
 66 59 66 59 145 59 c 0,5,6
 204 59 204 59 246 101.5 c 128,-1,7
 288 144 288 144 288 202 c 2,8,-1
 288 375 l 1,9,-1
 422 375 l 2,10,11
 491 375 491 375 541 420 c 128,-1,12
 591 465 591 465 591 531 c 0,13,14
 591 590 591 590 548.5 632 c 128,-1,15
 506 674 506 674 448 674 c 0,16,17
 400 674 400 674 365.5 639 c 128,-1,18
 331 604 331 604 331 557 c 0,19,20
 331 527 331 527 349.5 503 c 128,-1,21
 368 479 368 479 396 479 c 0,22,23
 420 479 420 479 437.5 493.5 c 128,-1,24
 455 508 455 508 455 531 c 0,25,26
 455 551 455 551 444 565.5 c 128,-1,27
 433 580 433 580 416 583 c 1,28,29
 419 596 419 596 448 596 c 0,30,31
 475 596 475 596 494 577 c 128,-1,32
 513 558 513 558 513 531 c 0,33,34
 513 498 513 498 485.5 475.5 c 128,-1,35
 458 453 458 453 422 453 c 2,36,-1
 288 453 l 1,37,-1
 288 737 l 1,38,-1
 509 737 l 2,39,40
 568 737 568 737 610 779.5 c 128,-1,41
 652 822 652 822 652 880 c 0,42,43
 652 957 652 957 574 1023 c 1,44,-1
 522 971 l 1,45,46
 574 927 574 927 574 880 c 0,47,48
 574 853 574 853 555 834 c 128,-1,49
 536 815 536 815 509 815 c 2,50,-1
 2 815 l 1,51,-1
 2 737 l 1,52,-1
 210 737 l 1,53,-1
 210 202 l 2,54,55
 210 175 210 175 191 156 c 128,-1,56
 172 137 172 137 145 137 c 0,0,1
EndSplineSet
EndChar

StartChar: G
Encoding: 71 71 35
Width: 664
GlyphClass: 2
Flags: W
LayerCount: 2
Fore
SplineSet
596 228 m 0,0,1
 596 299 596 299 556.5 345.5 c 128,-1,2
 517 392 517 392 453 392 c 0,3,4
 423 392 423 392 391 374 c 128,-1,5
 359 356 359 356 349 337 c 1,6,-1
 349 449 l 1,7,-1
 258 449 l 1,8,-1
 258 222 l 1,9,-1
 349 222 l 1,10,11
 362 263 362 263 381.5 282.5 c 128,-1,12
 401 302 401 302 437 302 c 0,13,14
 466 302 466 302 485 280.5 c 128,-1,15
 504 259 504 259 504 231 c 2,16,-1
 504 222 l 2,17,18
 501 186 501 186 435 160 c 0,19,20
 393 144 393 144 347 144 c 0,21,22
 252 144 252 144 154 221 c 0,23,24
 92 271 92 271 82 405 c 0,25,26
 82 408 82 408 81.5 413 c 128,-1,27
 81 418 81 418 81 421 c 0,28,29
 81 504 81 504 153 584 c 0,30,31
 212 650 212 650 323 650 c 1,32,33
 310 611 310 611 310 592 c 0,34,35
 310 537 310 537 353 499.5 c 128,-1,36
 396 462 396 462 453 462 c 0,37,38
 509 462 509 462 552.5 497.5 c 128,-1,39
 596 533 596 533 596 585 c 0,40,41
 596 649 596 649 541.5 688 c 128,-1,42
 487 727 487 727 409 737 c 1,43,-1
 509 737 l 2,44,45
 568 737 568 737 610 779.5 c 128,-1,46
 652 822 652 822 652 880 c 0,47,48
 652 957 652 957 574 1023 c 1,49,-1
 522 971 l 1,50,51
 574 927 574 927 574 880 c 0,52,53
 574 853 574 853 555 834 c 128,-1,54
 536 815 536 815 509 815 c 2,55,-1
 2 815 l 1,56,-1
 2 737 l 1,57,-1
 280 737 l 1,58,59
 165 722 165 722 92 650 c 0,60,61
 -2 560 -2 560 -2 410 c 0,62,63
 -2 258 -2 258 93 155 c 0,64,65
 188 53 188 53 345 53 c 0,66,67
 449 53 449 53 522.5 99 c 128,-1,68
 596 145 596 145 596 228 c 0,0,1
512 592 m 0,69,70
 512 574 512 574 493.5 563.5 c 128,-1,71
 475 553 475 553 453 553 c 128,-1,72
 431 553 431 553 413 563.5 c 128,-1,73
 395 574 395 574 395 592 c 0,74,75
 395 612 395 612 412.5 624.5 c 128,-1,76
 430 637 430 637 453 637 c 0,77,78
 475 637 475 637 493.5 624 c 128,-1,79
 512 611 512 611 512 592 c 0,69,70
EndSplineSet
EndChar

StartChar: H
Encoding: 72 72 39
Width: 770
GlyphClass: 2
Flags: W
LayerCount: 2
Fore
SplineSet
145 552 m 0,0,1
 153 552 153 552 170 563 c 0,2,3
 188 574 188 574 210 595 c 1,4,-1
 171 652 l 1,5,6
 161 638 161 638 145 638 c 0,7,8
 122 638 122 638 107.5 654.5 c 128,-1,9
 93 671 93 671 93 695 c 0,10,11
 93 718 93 718 108 735 c 128,-1,12
 123 752 123 752 145 752 c 0,13,14
 193 752 193 752 228 662 c 0,15,16
 262 573 262 573 262 445 c 1,17,18
 151 401 151 401 83 332 c 0,19,20
 15 262 15 262 15 194 c 0,21,22
 15 136 15 136 52.5 93.5 c 128,-1,23
 90 51 90 51 145 51 c 0,24,25
 226 51 226 51 283 154 c 0,26,27
 340 258 340 258 340 402 c 1,28,29
 385 424 385 424 464 495 c 1,30,31
 496 422 496 422 496 280 c 0,32,33
 496 192 496 192 392 123 c 1,34,-1
 444 51 l 1,35,36
 500 87 500 87 537 147 c 128,-1,37
 574 207 574 207 574 280 c 0,38,39
 574 408 574 408 516 545 c 1,40,41
 600 623 600 623 600 723 c 0,42,43
 600 735 600 735 599 740 c 1,44,-1
 616 740 l 2,45,46
 674 740 674 740 716.5 782 c 128,-1,47
 759 824 759 824 759 883 c 0,48,49
 759 962 759 962 681 1026 c 1,50,-1
 629 974 l 1,51,52
 681 930 681 930 681 883 c 0,53,54
 681 856 681 856 662 837 c 128,-1,55
 643 818 643 818 616 818 c 2,56,-1
 555 818 l 1,57,58
 529 838 529 838 496 838 c 0,59,60
 452 838 452 838 422 804 c 128,-1,61
 392 770 392 770 392 723 c 0,62,63
 392 640 392 640 438 552 c 1,64,65
 391 502 391 502 334 474 c 1,66,67
 334 624 334 624 278 731 c 128,-1,68
 222 838 222 838 145 838 c 0,69,70
 90 838 90 838 52.5 795.5 c 128,-1,71
 15 753 15 753 15 695 c 128,-1,72
 15 637 15 637 52.5 594.5 c 128,-1,73
 90 552 90 552 145 552 c 0,0,1
106 194 m 0,74,75
 106 244 106 244 149 290 c 0,76,77
 195 339 195 339 262 366 c 1,78,79
 255 273 255 273 220 203 c 0,80,81
 187 137 187 137 145 137 c 0,82,83
 128 137 128 137 117 155 c 128,-1,84
 106 173 106 173 106 194 c 0,74,75
457 723 m 0,85,86
 457 741 457 741 468 753.5 c 128,-1,87
 479 766 479 766 496 766 c 128,-1,88
 513 766 513 766 524 753.5 c 128,-1,89
 535 741 535 741 535 723 c 0,90,91
 535 708 535 708 525 687 c 0,92,93
 509 653 509 653 490 617 c 1,94,95
 476 643 476 643 466 674 c 0,96,97
 457 701 457 701 457 723 c 0,85,86
EndSplineSet
EndChar

StartChar: Hbar
Encoding: 294 294 40
Width: 770
GlyphClass: 2
Flags: W
LayerCount: 2
Fore
SplineSet
334 474 m 1,0,1
 334 562 334 562 314 637 c 1,2,-1
 405 637 l 1,3,4
 419 587 419 587 438 552 c 1,5,6
 391 502 391 502 334 474 c 1,0,1
145 552 m 0,7,8
 153 552 153 552 170 563 c 0,9,10
 188 574 188 574 210 595 c 1,11,-1
 171 652 l 1,12,13
 161 638 161 638 145 638 c 0,14,15
 122 638 122 638 107.5 654.5 c 128,-1,16
 93 671 93 671 93 695 c 0,17,18
 93 718 93 718 108 735 c 128,-1,19
 123 752 123 752 145 752 c 0,20,21
 193 752 193 752 228 662 c 0,22,23
 262 573 262 573 262 445 c 1,24,25
 151 401 151 401 83 332 c 0,26,27
 15 262 15 262 15 194 c 0,28,29
 15 136 15 136 52.5 93.5 c 128,-1,30
 90 51 90 51 145 51 c 0,31,32
 226 51 226 51 283 154 c 0,33,34
 340 258 340 258 340 402 c 1,35,36
 385 424 385 424 464 495 c 1,37,38
 496 422 496 422 496 280 c 0,39,40
 496 192 496 192 392 123 c 1,41,-1
 444 51 l 1,42,43
 500 87 500 87 537 147 c 128,-1,44
 574 207 574 207 574 280 c 0,45,46
 574 408 574 408 516 545 c 1,47,48
 600 623 600 623 600 723 c 0,49,50
 600 735 600 735 599 740 c 1,51,-1
 616 740 l 2,52,53
 674 740 674 740 716.5 782 c 128,-1,54
 759 824 759 824 759 883 c 0,55,56
 759 962 759 962 681 1026 c 1,57,-1
 629 974 l 1,58,59
 681 930 681 930 681 883 c 0,60,61
 681 856 681 856 662 837 c 128,-1,62
 643 818 643 818 616 818 c 2,63,-1
 555 818 l 1,64,65
 529 838 529 838 496 838 c 0,66,67
 452 838 452 838 422 804 c 128,-1,68
 392 770 392 770 392 723 c 0,69,70
 392 704 392 704 393 694 c 1,71,-1
 295 694 l 1,72,73
 290 707 290 707 278 731 c 0,74,75
 222 838 222 838 145 838 c 0,76,77
 90 838 90 838 52.5 795.5 c 128,-1,78
 15 753 15 753 15 695 c 128,-1,79
 15 637 15 637 52.5 594.5 c 128,-1,80
 90 552 90 552 145 552 c 0,7,8
457 723 m 0,81,82
 457 741 457 741 468 753.5 c 128,-1,83
 479 766 479 766 496 766 c 128,-1,84
 513 766 513 766 524 753.5 c 128,-1,85
 535 741 535 741 535 723 c 0,86,87
 535 708 535 708 525 687 c 0,88,89
 509 653 509 653 490 617 c 1,90,91
 476 643 476 643 466 674 c 0,92,93
 457 701 457 701 457 723 c 0,81,82
106 194 m 0,94,95
 106 244 106 244 149 290 c 0,96,97
 195 339 195 339 262 366 c 1,98,99
 255 273 255 273 220 203 c 0,100,101
 187 137 187 137 145 137 c 0,102,103
 128 137 128 137 117 155 c 128,-1,104
 106 173 106 173 106 194 c 0,94,95
EndSplineSet
EndChar

StartChar: I
Encoding: 73 73 42
Width: 372
GlyphClass: 2
Flags: W
LayerCount: 2
Fore
SplineSet
354 880 m 0,0,1
 354 957 354 957 276 1023 c 1,2,-1
 224 971 l 1,3,4
 276 927 276 927 276 880 c 0,5,6
 276 853 276 853 257 834 c 128,-1,7
 238 815 238 815 211 815 c 2,8,-1
 -2 815 l 1,9,-1
 -2 736 l 1,10,-1
 72 736 l 1,11,-1
 72 57 l 1,12,-1
 146 57 l 1,13,-1
 146 737 l 1,14,-1
 211 737 l 2,15,16
 270 737 270 737 312 779.5 c 128,-1,17
 354 822 354 822 354 880 c 0,0,1
EndSplineSet
EndChar

StartChar: Icircumflex
Encoding: 206 206 46
Width: 372
GlyphClass: 2
Flags: W
LayerCount: 2
Fore
SplineSet
259 1066 m 0,0,1
 259 1083 259 1083 244 1093 c 2,2,-1
 151 1156 l 2,3,4
 139 1160 139 1160 135 1160 c 0,5,6
 126 1160 126 1160 119 1156 c 2,7,-1
 25 1093 l 2,8,9
 10 1083 10 1083 10 1066 c 0,10,11
 10 1053 10 1053 19 1045.5 c 128,-1,12
 28 1038 28 1038 42 1038 c 0,13,14
 51 1038 51 1038 60 1045 c 2,15,-1
 135 1096 l 1,16,-1
 209 1045 l 2,17,18
 218 1038 218 1038 228 1038 c 0,19,20
 241 1038 241 1038 250 1046 c 128,-1,21
 259 1054 259 1054 259 1066 c 0,0,1
354 880 m 0,22,23
 354 957 354 957 276 1023 c 1,24,-1
 224 971 l 1,25,26
 276 927 276 927 276 880 c 0,27,28
 276 853 276 853 257 834 c 128,-1,29
 238 815 238 815 211 815 c 2,30,-1
 -2 815 l 1,31,-1
 -2 736 l 1,32,-1
 72 736 l 1,33,-1
 72 57 l 1,34,-1
 146 57 l 1,35,-1
 146 737 l 1,36,-1
 211 737 l 2,37,38
 270 737 270 737 312 779.5 c 128,-1,39
 354 822 354 822 354 880 c 0,22,23
EndSplineSet
EndChar

StartChar: Idieresis
Encoding: 207 207 47
Width: 372
GlyphClass: 2
Flags: W
LayerCount: 2
Fore
SplineSet
275 1072 m 0,0,1
 275 1089 275 1089 262 1102.5 c 128,-1,2
 249 1116 249 1116 231 1116 c 256,3,4
 213 1116 213 1116 200 1103 c 128,-1,5
 187 1090 187 1090 187 1072 c 0,6,7
 187 1052 187 1052 199 1040 c 128,-1,8
 211 1028 211 1028 231 1028 c 0,9,10
 249 1028 249 1028 262 1040 c 128,-1,11
 275 1052 275 1052 275 1072 c 0,0,1
108 1072 m 0,12,13
 108 1089 108 1089 94.5 1102.5 c 128,-1,14
 81 1116 81 1116 63.5 1116 c 128,-1,15
 46 1116 46 1116 33 1102.5 c 128,-1,16
 20 1089 20 1089 20 1072 c 0,17,18
 20 1052 20 1052 32.5 1040 c 128,-1,19
 45 1028 45 1028 64 1028 c 0,20,21
 82 1028 82 1028 95 1040 c 128,-1,22
 108 1052 108 1052 108 1072 c 0,12,13
354 880 m 0,23,24
 354 957 354 957 276 1023 c 1,25,-1
 224 971 l 1,26,27
 276 927 276 927 276 880 c 0,28,29
 276 853 276 853 257 834 c 128,-1,30
 238 815 238 815 211 815 c 2,31,-1
 -2 815 l 1,32,-1
 -2 736 l 1,33,-1
 72 736 l 1,34,-1
 72 57 l 1,35,-1
 146 57 l 1,36,-1
 146 737 l 1,37,-1
 211 737 l 2,38,39
 270 737 270 737 312 779.5 c 128,-1,40
 354 822 354 822 354 880 c 0,23,24
EndSplineSet
EndChar

StartChar: Itilde
Encoding: 296 296 52
Width: 372
GlyphClass: 2
Flags: W
LayerCount: 2
Fore
SplineSet
257 1097 m 0,0,1
 248 1097 248 1097 236 1085 c 0,2,3
 224 1071 224 1071 202 1071 c 0,4,5
 190 1071 190 1071 181 1075 c 0,6,7
 176 1077 176 1077 158.5 1088 c 128,-1,8
 141 1099 141 1099 126 1104.5 c 128,-1,9
 111 1110 111 1110 94 1110 c 0,10,11
 43 1110 43 1110 5 1063 c 0,12,13
 0 1057 0 1057 0 1048 c 256,14,15
 0 1039 0 1039 6.5 1032.5 c 128,-1,16
 13 1026 13 1026 23 1026 c 0,17,18
 37 1026 37 1026 46 1039 c 0,19,20
 66 1063 66 1063 92 1063 c 0,21,22
 111 1063 111 1063 134 1047 c 0,23,24
 171 1024 171 1024 202 1024 c 0,25,26
 248 1024 248 1024 276 1058 c 0,27,28
 281 1064 281 1064 281 1073 c 256,29,30
 281 1082 281 1082 274 1089.5 c 128,-1,31
 267 1097 267 1097 257 1097 c 0,0,1
354 880 m 0,32,33
 354 957 354 957 276 1023 c 1,34,-1
 224 971 l 1,35,36
 276 927 276 927 276 880 c 0,37,38
 276 853 276 853 257 834 c 128,-1,39
 238 815 238 815 211 815 c 2,40,-1
 -2 815 l 1,41,-1
 -2 736 l 1,42,-1
 72 736 l 1,43,-1
 72 57 l 1,44,-1
 146 57 l 1,45,-1
 146 737 l 1,46,-1
 211 737 l 2,47,48
 270 737 270 737 312 779.5 c 128,-1,49
 354 822 354 822 354 880 c 0,32,33
EndSplineSet
EndChar

StartChar: J
Encoding: 74 74 53
Width: 654
GlyphClass: 2
Flags: W
LayerCount: 2
Fore
SplineSet
652 884 m 0,0,1
 652 961 652 961 574 1027 c 1,2,-1
 522 975 l 1,3,4
 574 931 574 931 574 884 c 0,5,6
 574 862 574 862 560.5 844 c 128,-1,7
 547 826 547 826 527 819 c 1,8,-1
 467 819 l 1,9,10
 473 786 473 786 473 581 c 0,11,12
 473 399 473 399 468 362 c 0,13,14
 457 287 457 287 428 227 c 0,15,16
 401 169 401 169 346 143 c 0,17,18
 316 129 316 129 291 129 c 0,19,20
 268 129 268 129 244 140 c 0,21,22
 196 163 196 163 177 207 c 0,23,24
 167 232 167 232 167 251 c 0,25,26
 167 293 167 293 198 319 c 1,27,-1
 198 313 l 2,28,29
 198 277 198 277 218.5 256.5 c 128,-1,30
 239 236 239 236 274 236 c 0,31,32
 290 236 290 236 305 242 c 0,33,34
 330 252 330 252 347.5 275 c 128,-1,35
 365 298 365 298 365 328 c 0,36,37
 365 344 365 344 359 359 c 0,38,39
 348 387 348 387 321.5 404.5 c 128,-1,40
 295 422 295 422 259 422 c 0,41,42
 229 422 229 422 200 409 c 0,43,44
 142 384 142 384 114 323 c 0,45,46
 97 286 97 286 97 250 c 0,47,48
 97 218 97 218 111 182 c 0,49,50
 140 109 140 109 213 75 c 0,51,52
 252 57 252 57 293 57 c 0,53,54
 332 57 332 57 375 74 c 0,55,56
 459 108 459 108 498 194 c 0,57,58
 530 264 530 264 541 336 c 0,59,60
 549 387 549 387 549 654 c 0,61,62
 549 672 549 672 548.5 702.5 c 128,-1,63
 548 733 548 733 548 746 c 1,64,65
 591 757 591 757 621.5 796.5 c 128,-1,66
 652 836 652 836 652 884 c 0,0,1
299 326 m 0,67,68
 299 302 299 302 275 302 c 0,69,70
 263 302 263 302 255.5 309 c 128,-1,71
 248 316 248 316 248 326 c 128,-1,72
 248 336 248 336 255 345 c 128,-1,73
 262 354 262 354 273 354 c 0,74,75
 299 354 299 354 299 326 c 0,67,68
EndSplineSet
EndChar

StartChar: K
Encoding: 75 75 55
Width: 745
GlyphClass: 2
Flags: W
LayerCount: 2
Fore
SplineSet
155 151 m 0,0,1
 108 151 108 151 64 203 c 1,2,-1
 12 151 l 1,3,4
 76 73 76 73 155 73 c 0,5,6
 214 73 214 73 256 115.5 c 128,-1,7
 298 158 298 158 298 216 c 2,8,-1
 298 281 l 1,9,10
 311 229 311 229 350 186 c 0,11,12
 358 177 358 177 374 168.5 c 128,-1,13
 390 160 390 160 413 152.5 c 128,-1,14
 436 145 436 145 456.5 139 c 128,-1,15
 477 133 477 133 507 127 c 128,-1,16
 537 121 537 121 553.5 117.5 c 128,-1,17
 570 114 570 114 597.5 109.5 c 128,-1,18
 625 105 625 105 629 104 c 1,19,-1
 629 182 l 1,20,21
 623 184 623 184 567 193.5 c 128,-1,22
 511 203 511 203 467.5 215 c 128,-1,23
 424 227 424 227 414 240 c 0,24,25
 382 282 382 282 382 338 c 0,26,27
 382 353 382 353 395 390 c 1,28,29
 455 338 455 338 551 338 c 0,30,31
 605 338 605 338 643 376 c 128,-1,32
 681 414 681 414 681 468 c 128,-1,33
 681 522 681 522 643 560 c 128,-1,34
 605 598 605 598 551 598 c 0,35,36
 450 598 450 598 389 537 c 1,37,38
 382 561 382 561 382 598 c 0,39,40
 382 659 382 659 433 700 c 128,-1,41
 484 741 484 741 551 741 c 2,42,-1
 569 741 l 1,43,-1
 603 737 l 1,44,45
 662 737 662 737 704 779.5 c 128,-1,46
 746 822 746 822 746 880 c 0,47,48
 746 957 746 957 668 1023 c 1,49,-1
 616 971 l 1,50,51
 668 927 668 927 668 880 c 0,52,53
 668 853 668 853 649 834 c 128,-1,54
 630 815 630 815 603 815 c 2,55,-1
 569 819 l 1,56,-1
 569 818 l 1,57,-1
 551 818 l 2,58,59
 443 818 443 818 367 754 c 0,60,61
 314 709 314 709 298 651 c 1,62,-1
 298 823 l 1,63,-1
 220 823 l 1,64,-1
 220 216 l 2,65,66
 220 189 220 189 201 170 c 128,-1,67
 182 151 182 151 155 151 c 0,0,1
538 506 m 0,68,69
 563 506 563 506 583 488.5 c 128,-1,70
 603 471 603 471 603 447 c 128,-1,71
 603 423 603 423 588 406 c 128,-1,72
 573 389 573 389 551 389 c 0,73,74
 525 389 525 389 493 404 c 0,75,76
 459 420 459 420 428 447 c 1,77,78
 466 478 466 478 490 491 c 0,79,80
 518 506 518 506 538 506 c 0,68,69
298 535 m 1,81,82
 308 494 308 494 330 458 c 1,83,84
 312 438 312 438 301 402 c 2,85,-1
 298 390 l 1,86,-1
 298 535 l 1,81,82
EndSplineSet
EndChar

StartChar: L
Encoding: 76 76 56
Width: 601
GlyphClass: 2
Flags: W
LayerCount: 2
Fore
SplineSet
514 472 m 1,0,-1
 449 426 l 1,1,2
 501 339 501 339 501 257 c 0,3,4
 501 219 501 219 487.5 186 c 128,-1,5
 474 153 474 153 449 153 c 0,6,7
 415 153 415 153 378 212 c 0,8,9
 357 248 357 248 321.5 272 c 128,-1,10
 286 296 286 296 241 296 c 0,11,12
 187 296 187 296 146 259 c 1,13,-1
 146 737 l 1,14,-1
 211 737 l 2,15,16
 270 737 270 737 312 779.5 c 128,-1,17
 354 822 354 822 354 880 c 0,18,19
 354 957 354 957 276 1023 c 1,20,-1
 224 971 l 1,21,22
 276 927 276 927 276 880 c 0,23,24
 276 853 276 853 257 834 c 128,-1,25
 238 815 238 815 211 815 c 2,26,-1
 -2 815 l 1,27,-1
 -2 736 l 1,28,-1
 74 736 l 1,29,-1
 74 57 l 1,30,-1
 148 57 l 1,31,-1
 146 75 l 1,32,33
 150 113 150 113 184 172 c 0,34,35
 212 218 212 218 248 218 c 0,36,37
 262 218 262 218 281 199 c 0,38,39
 299 181 299 181 319 147 c 0,40,41
 373 55 373 55 449 55 c 0,42,43
 505 55 505 55 546 114 c 0,44,45
 586 172 586 172 586 257 c 0,46,47
 586 385 586 385 514 472 c 1,0,-1
EndSplineSet
EndChar

StartChar: Lcaron
Encoding: 317 317 58
Width: 601
GlyphClass: 2
Flags: W
LayerCount: 2
Fore
SplineSet
514 472 m 1,0,-1
 449 426 l 1,1,2
 501 339 501 339 501 257 c 0,3,4
 501 219 501 219 487.5 186 c 128,-1,5
 474 153 474 153 449 153 c 0,6,7
 415 153 415 153 378 212 c 0,8,9
 357 248 357 248 321.5 272 c 128,-1,10
 286 296 286 296 241 296 c 0,11,12
 187 296 187 296 146 259 c 1,13,-1
 146 737 l 1,14,-1
 211 737 l 2,15,16
 270 737 270 737 312 779.5 c 128,-1,17
 354 822 354 822 354 880 c 0,18,19
 354 957 354 957 276 1023 c 1,20,-1
 224 971 l 1,21,22
 276 927 276 927 276 880 c 0,23,24
 276 853 276 853 257 834 c 128,-1,25
 238 815 238 815 211 815 c 2,26,-1
 -2 815 l 1,27,-1
 -2 736 l 1,28,-1
 74 736 l 1,29,-1
 74 57 l 1,30,-1
 148 57 l 1,31,-1
 146 75 l 1,32,33
 150 113 150 113 184 172 c 0,34,35
 212 218 212 218 248 218 c 0,36,37
 262 218 262 218 281 199 c 0,38,39
 299 181 299 181 319 147 c 0,40,41
 373 55 373 55 449 55 c 0,42,43
 505 55 505 55 546 114 c 0,44,45
 586 172 586 172 586 257 c 0,46,47
 586 385 586 385 514 472 c 1,0,-1
395 990 m 1,48,49
 399 977 399 977 408.5 954 c 128,-1,50
 418 931 418 931 423.5 913.5 c 128,-1,51
 429 896 429 896 431 876 c 2,52,-1
 431 865 l 2,53,54
 431 846 431 846 423 815 c 128,-1,55
 415 784 415 784 413 774 c 1,56,-1
 494 774 l 1,57,58
 497 787 497 787 503.5 805 c 128,-1,59
 510 823 510 823 514 838 c 128,-1,60
 518 853 518 853 518 870 c 2,61,-1
 518 876 l 2,62,63
 518 896 518 896 515 913.5 c 128,-1,64
 512 931 512 931 507 952.5 c 128,-1,65
 502 974 502 974 500 990 c 1,66,-1
 395 990 l 1,48,49
EndSplineSet
EndChar

StartChar: Lslash
Encoding: 321 321 60
Width: 601
GlyphClass: 2
Flags: W
LayerCount: 2
Fore
SplineSet
514 472 m 1,0,-1
 449 426 l 1,1,2
 501 339 501 339 501 257 c 0,3,4
 501 219 501 219 487.5 186 c 128,-1,5
 474 153 474 153 449 153 c 0,6,7
 415 153 415 153 378 212 c 0,8,9
 357 248 357 248 321.5 272 c 128,-1,10
 286 296 286 296 241 296 c 0,11,12
 187 296 187 296 146 259 c 1,13,-1
 146 422 l 1,14,-1
 254 456 l 1,15,-1
 254 546 l 1,16,-1
 146 510 l 1,17,-1
 146 737 l 1,18,-1
 211 737 l 2,19,20
 270 737 270 737 312 779.5 c 128,-1,21
 354 822 354 822 354 880 c 0,22,23
 354 957 354 957 276 1023 c 1,24,-1
 224 971 l 1,25,26
 276 927 276 927 276 880 c 0,27,28
 276 853 276 853 257 834 c 128,-1,29
 238 815 238 815 211 815 c 2,30,-1
 -2 815 l 1,31,-1
 -2 736 l 1,32,-1
 74 736 l 1,33,-1
 74 486 l 1,34,-1
 0 461 l 1,35,-1
 0 375 l 1,36,-1
 74 399 l 1,37,-1
 74 57 l 1,38,-1
 148 57 l 1,39,-1
 146 75 l 1,40,41
 150 113 150 113 184 172 c 0,42,43
 212 218 212 218 248 218 c 0,44,45
 262 218 262 218 281 199 c 0,46,47
 299 181 299 181 319 147 c 0,48,49
 373 55 373 55 449 55 c 0,50,51
 505 55 505 55 546 114 c 0,52,53
 586 172 586 172 586 257 c 0,54,55
 586 385 586 385 514 472 c 1,0,-1
EndSplineSet
EndChar

StartChar: M
Encoding: 77 77 61
Width: 964
GlyphClass: 2
Flags: W
LayerCount: 2
Fore
SplineSet
763 162 m 1,0,-1
 804 60 l 1,1,2
 865 106 865 106 897 214 c 128,-1,3
 929 322 929 322 929 449 c 0,4,5
 929 629 929 629 854 747 c 1,6,7
 891 762 891 762 916.5 799.5 c 128,-1,8
 942 837 942 837 942 880 c 0,9,10
 942 957 942 957 864 1023 c 1,11,-1
 812 971 l 1,12,13
 864 927 864 927 864 880 c 0,14,15
 864 853 864 853 845 834 c 128,-1,16
 826 815 826 815 799 815 c 2,17,-1
 776 815 l 1,18,19
 760 821 760 821 742 821 c 0,20,21
 676 821 676 821 631 737 c 128,-1,22
 586 653 586 653 586 533 c 2,23,-1
 586 398 l 2,24,25
 586 300 586 300 565 231 c 128,-1,26
 544 162 544 162 513 162 c 128,-1,27
 482 162 482 162 466.5 211.5 c 128,-1,28
 451 261 451 261 451 314 c 0,29,30
 451 333 451 333 456 415 c 128,-1,31
 461 497 461 497 461 516 c 0,32,33
 461 642 461 642 415 732 c 0,34,35
 370 821 370 821 305 821 c 0,36,37
 213 821 213 821 147 699 c 0,38,39
 81 578 81 578 81 406 c 0,40,41
 81 238 81 238 119 142 c 0,42,43
 158 43 158 43 222 43 c 0,44,45
 274 43 274 43 305 101 c 128,-1,46
 336 159 336 159 336 229 c 128,-1,47
 336 299 336 299 305 357 c 128,-1,48
 274 415 274 415 222 415 c 0,49,50
 182 415 182 415 154 372 c 1,51,52
 154 375 154 375 153.5 379.5 c 128,-1,53
 153 384 153 384 153 386 c 2,54,-1
 153 400 l 2,55,56
 153 527 153 527 197 614 c 0,57,58
 242 702 242 702 305 702 c 0,59,60
 340 702 340 702 364 648 c 128,-1,61
 388 594 388 594 388 516 c 0,62,63
 388 497 388 497 383 415 c 128,-1,64
 378 333 378 333 378 314 c 0,65,66
 378 202 378 202 417 123 c 0,67,68
 456 43 456 43 513 43 c 0,69,70
 572 43 572 43 616 147 c 0,71,72
 659 249 659 249 659 398 c 2,73,-1
 659 533 l 2,74,75
 659 594 659 594 680.5 648 c 128,-1,76
 702 702 702 702 742 702 c 0,77,78
 790 702 790 702 823 628 c 128,-1,79
 856 554 856 554 856 449 c 0,80,81
 856 353 856 353 833 270.5 c 128,-1,82
 810 188 810 188 763 162 c 1,0,-1
222 297 m 0,83,84
 241 297 241 297 252 275.5 c 128,-1,85
 263 254 263 254 263 229 c 128,-1,86
 263 204 263 204 252 183 c 128,-1,87
 241 162 241 162 222 162 c 0,88,89
 202 162 202 162 191 182.5 c 128,-1,90
 180 203 180 203 180 229 c 128,-1,91
 180 255 180 255 191 276 c 128,-1,92
 202 297 202 297 222 297 c 0,83,84
EndSplineSet
EndChar

StartChar: N
Encoding: 78 78 62
Width: 781
GlyphClass: 2
Flags: W
LayerCount: 2
Fore
SplineSet
463 293 m 0,0,1
 463 228 463 228 449 186 c 0,2,3
 434 141 434 141 413 141 c 0,4,5
 389 141 389 141 372 211 c 0,6,7
 355 282 355 282 355 377 c 2,8,-1
 355 512 l 2,9,10
 355 631 355 631 319 715 c 128,-1,11
 283 799 283 799 230 799 c 0,12,13
 168 799 168 799 125 690 c 0,14,15
 81 579 81 579 81 428 c 0,16,17
 81 303 81 303 106 196 c 128,-1,18
 131 89 131 89 181 40 c 1,19,-1
 214 141 l 1,20,21
 180 164 180 164 159 245 c 0,22,23
 139 321 139 321 139 428 c 0,24,25
 139 534 139 534 166 607 c 0,26,27
 193 681 193 681 230 681 c 0,28,29
 257 681 257 681 277 631 c 0,30,31
 297 580 297 580 297 512 c 2,32,-1
 297 377 l 2,33,34
 297 229 297 229 331 127 c 0,35,36
 366 23 366 23 413 23 c 0,37,38
 458 23 458 23 490 103 c 0,39,40
 522 184 522 184 522 293 c 0,41,42
 522 311 522 311 517.5 393.5 c 128,-1,43
 513 476 513 476 513 495 c 0,44,45
 513 571 513 571 533 626 c 0,46,47
 546 662 546 662 568 699 c 1,48,-1
 578 704 l 1,49,-1
 588 710 l 1,50,-1
 640 737 l 1,51,-1
 741 779 l 2,52,53
 783 796 783 796 783 880 c 0,54,55
 783 916 783 916 762 954 c 0,56,57
 740 994 740 994 705 1023 c 1,58,-1
 653 971 l 1,59,60
 705 929 705 929 705 880 c 0,61,62
 705 853 705 853 686 834 c 0,63,64
 680 828 680 828 672.5 825 c 128,-1,65
 665 822 665 822 655 819.5 c 128,-1,66
 645 817 645 817 640 815 c 2,67,-1
 580 799 l 1,68,69
 528 799 528 799 492 710 c 0,70,71
 455 619 455 619 455 495 c 0,72,73
 455 476 455 476 459 394 c 128,-1,74
 463 312 463 312 463 293 c 0,0,1
EndSplineSet
EndChar

StartChar: Ntilde
Encoding: 209 209 65
Width: 781
GlyphClass: 2
Flags: W
LayerCount: 2
Fore
SplineSet
540 962 m 0,0,1
 524 962 524 962 504 941 c 0,2,3
 484 917 484 917 445 917 c 0,4,5
 425 917 425 917 411 924 c 0,6,7
 402 928 402 928 371.5 947.5 c 128,-1,8
 341 967 341 967 316 976 c 128,-1,9
 291 985 291 985 261 985 c 0,10,11
 174 985 174 985 109 904 c 0,12,13
 101 894 101 894 101 878 c 0,14,15
 101 861 101 861 112 850 c 128,-1,16
 123 839 123 839 140 839 c 0,17,18
 164 839 164 839 180 861 c 0,19,20
 214 904 214 904 259 904 c 0,21,22
 290 904 290 904 330 876 c 0,23,24
 394 835 394 835 447 835 c 0,25,26
 524 835 524 835 572 895 c 0,27,28
 582 906 582 906 582 921 c 0,29,30
 582 937 582 937 569.5 949.5 c 128,-1,31
 557 962 557 962 540 962 c 0,0,1
471 281 m 0,32,33
 471 216 471 216 457 174 c 0,34,35
 442 129 442 129 421 129 c 0,36,37
 397 129 397 129 380 199 c 0,38,39
 363 270 363 270 363 365 c 2,40,-1
 363 500 l 2,41,42
 363 619 363 619 327 703 c 128,-1,43
 291 787 291 787 238 787 c 0,44,45
 176 787 176 787 133 678 c 0,46,47
 89 567 89 567 89 416 c 0,48,49
 89 291 89 291 114 184 c 128,-1,50
 139 77 139 77 189 28 c 1,51,-1
 222 129 l 1,52,53
 188 152 188 152 167 233 c 0,54,55
 147 309 147 309 147 416 c 0,56,57
 147 522 147 522 174 595 c 0,58,59
 201 669 201 669 238 669 c 0,60,61
 265 669 265 669 285 619 c 0,62,63
 305 568 305 568 305 500 c 2,64,-1
 305 365 l 2,65,66
 305 217 305 217 339 115 c 0,67,68
 374 11 374 11 421 11 c 0,69,70
 466 11 466 11 498 91 c 0,71,72
 530 172 530 172 530 281 c 0,73,74
 530 299 530 299 525.5 381.5 c 128,-1,75
 521 464 521 464 521 483 c 0,76,77
 521 559 521 559 541 614 c 0,78,79
 554 650 554 650 576 687 c 1,80,-1
 586 692 l 1,81,-1
 596 698 l 1,82,-1
 648 725 l 1,83,-1
 749 767 l 2,84,85
 791 784 791 784 791 868 c 0,86,87
 791 904 791 904 770 942 c 0,88,89
 748 982 748 982 713 1011 c 1,90,-1
 661 959 l 1,91,92
 713 917 713 917 713 868 c 0,93,94
 713 841 713 841 694 822 c 0,95,96
 688 816 688 816 680.5 813 c 128,-1,97
 673 810 673 810 663 807.5 c 128,-1,98
 653 805 653 805 648 803 c 2,99,-1
 588 787 l 1,100,101
 536 787 536 787 500 698 c 0,102,103
 463 607 463 607 463 483 c 0,104,105
 463 464 463 464 467 382 c 128,-1,106
 471 300 471 300 471 281 c 0,32,33
EndSplineSet
EndChar

StartChar: O
Encoding: 79 79 66
Width: 687
GlyphClass: 2
Flags: W
LayerCount: 2
Fore
SplineSet
579 880 m 0,0,1
 579 916 579 916 558 954 c 0,2,3
 536 994 536 994 501 1023 c 1,4,-1
 449 971 l 1,5,6
 501 929 501 929 501 880 c 0,7,8
 501 853 501 853 482 834 c 128,-1,9
 463 815 463 815 436 815 c 1,10,-1
 402 805 l 1,11,-1
 402 801 l 1,12,13
 374 805 374 805 358 805 c 0,14,15
 234 805 234 805 146 697 c 0,16,17
 58 590 58 590 58 436 c 0,18,19
 58 278 58 278 146 166 c 128,-1,20
 234 54 234 54 358 54 c 128,-1,21
 482 54 482 54 570 166 c 128,-1,22
 658 278 658 278 658 436 c 0,23,24
 658 590 658 590 570 697 c 0,25,26
 544 730 544 730 508 756 c 1,27,28
 539 775 539 775 559 808 c 128,-1,29
 579 841 579 841 579 880 c 0,0,1
154 436 m 0,30,31
 154 556 154 556 213 639 c 0,32,33
 273 723 273 723 358 723 c 128,-1,34
 443 723 443 723 503 639 c 128,-1,35
 563 555 563 555 563 436 c 0,36,37
 563 312 563 312 503 224 c 128,-1,38
 443 136 443 136 358 136 c 128,-1,39
 273 136 273 136 213 224 c 0,40,41
 154 311 154 311 154 436 c 0,30,31
EndSplineSet
EndChar

StartChar: OE
Encoding: 338 338 67
Width: 1017
GlyphClass: 2
Flags: W
LayerCount: 2
Fore
SplineSet
657 466 m 1,0,1
 683 436 683 436 730 418 c 1,2,3
 682 399 682 399 653 365 c 1,4,5
 658 403 658 403 658 436 c 0,6,7
 658 456 658 456 657 466 c 1,0,1
524 744 m 1,8,-1
 740 744 l 1,9,10
 707 731 707 731 667 694 c 0,11,12
 632 662 632 662 620 619 c 1,13,14
 585 695 585 695 524 744 c 1,8,-1
692 262 m 0,15,16
 692 314 692 314 740 347 c 128,-1,17
 788 380 788 380 848 380 c 1,18,-1
 848 458 l 1,19,20
 787 458 787 458 739.5 490.5 c 128,-1,21
 692 523 692 523 692 575 c 0,22,23
 692 609 692 609 719 630.5 c 128,-1,24
 746 652 746 652 782 652 c 0,25,26
 806 652 806 652 827 641.5 c 128,-1,27
 848 631 848 631 848 614 c 0,28,29
 848 598 848 598 836.5 586.5 c 128,-1,30
 825 575 825 575 808 575 c 1,31,-1
 808 510 l 1,32,33
 855 514 855 514 890.5 542.5 c 128,-1,34
 926 571 926 571 926 614 c 0,35,36
 926 656 926 656 904 693 c 128,-1,37
 882 730 882 730 849 744 c 1,38,-1
 856 744 l 2,39,40
 914 744 914 744 956.5 786 c 128,-1,41
 999 828 999 828 999 887 c 0,42,43
 999 966 999 966 921 1030 c 1,44,-1
 869 978 l 1,45,46
 921 934 921 934 921 887 c 0,47,48
 921 860 921 860 902 841 c 128,-1,49
 883 822 883 822 856 822 c 2,50,-1
 589 822 l 2,51,52
 585 820 585 820 517.5 817.5 c 128,-1,53
 450 815 450 815 436 815 c 2,54,-1
 402 805 l 1,55,-1
 402 801 l 1,56,57
 374 805 374 805 358 805 c 0,58,59
 234 805 234 805 146 697 c 0,60,61
 58 590 58 590 58 436 c 0,62,63
 58 278 58 278 146 166 c 128,-1,64
 234 54 234 54 358 54 c 128,-1,65
 482 54 482 54 570 166 c 0,66,67
 597 200 597 200 615 238 c 1,68,69
 624 172 624 172 682 124 c 0,70,71
 750 68 750 68 850 68 c 0,72,73
 860 68 860 68 863 117 c 1,74,-1
 862 128 l 2,75,76
 861 138 861 138 857.5 148.5 c 128,-1,77
 854 159 854 159 850 159 c 0,78,79
 789 159 789 159 740.5 186.5 c 128,-1,80
 692 214 692 214 692 262 c 0,15,16
154 436 m 0,81,82
 154 556 154 556 213 639 c 0,83,84
 273 723 273 723 358 723 c 128,-1,85
 443 723 443 723 503 639 c 128,-1,86
 563 555 563 555 563 436 c 0,87,88
 563 312 563 312 503 224 c 128,-1,89
 443 136 443 136 358 136 c 128,-1,90
 273 136 273 136 213 224 c 0,91,92
 154 311 154 311 154 436 c 0,81,82
EndSplineSet
EndChar

StartChar: Ocircumflex
Encoding: 212 212 70
Width: 687
GlyphClass: 2
Flags: W
LayerCount: 2
Fore
SplineSet
448 1045 m 0,0,1
 448 1062 448 1062 433 1072 c 2,2,-1
 340 1135 l 2,3,4
 328 1139 328 1139 324 1139 c 0,5,6
 315 1139 315 1139 308 1135 c 2,7,-1
 214 1072 l 2,8,9
 199 1062 199 1062 199 1045 c 0,10,11
 199 1032 199 1032 208 1024.5 c 128,-1,12
 217 1017 217 1017 231 1017 c 0,13,14
 240 1017 240 1017 249 1024 c 2,15,-1
 324 1075 l 1,16,-1
 398 1024 l 2,17,18
 407 1017 407 1017 417 1017 c 0,19,20
 430 1017 430 1017 439 1025 c 128,-1,21
 448 1033 448 1033 448 1045 c 0,0,1
579 880 m 0,22,23
 579 916 579 916 558 954 c 0,24,25
 536 994 536 994 501 1023 c 1,26,-1
 449 971 l 1,27,28
 501 929 501 929 501 880 c 0,29,30
 501 853 501 853 482 834 c 128,-1,31
 463 815 463 815 436 815 c 1,32,-1
 402 805 l 1,33,-1
 402 801 l 1,34,35
 374 805 374 805 358 805 c 0,36,37
 234 805 234 805 146 697 c 0,38,39
 58 590 58 590 58 436 c 0,40,41
 58 278 58 278 146 166 c 128,-1,42
 234 54 234 54 358 54 c 128,-1,43
 482 54 482 54 570 166 c 128,-1,44
 658 278 658 278 658 436 c 0,45,46
 658 590 658 590 570 697 c 0,47,48
 544 730 544 730 508 756 c 1,49,50
 539 775 539 775 559 808 c 128,-1,51
 579 841 579 841 579 880 c 0,22,23
154 436 m 0,52,53
 154 556 154 556 213 639 c 0,54,55
 273 723 273 723 358 723 c 128,-1,56
 443 723 443 723 503 639 c 128,-1,57
 563 555 563 555 563 436 c 0,58,59
 563 312 563 312 503 224 c 128,-1,60
 443 136 443 136 358 136 c 128,-1,61
 273 136 273 136 213 224 c 0,62,63
 154 311 154 311 154 436 c 0,52,53
EndSplineSet
EndChar

StartChar: Odieresis
Encoding: 214 214 71
Width: 687
GlyphClass: 2
Flags: W
LayerCount: 2
Fore
SplineSet
445 1065 m 0,0,1
 445 1082 445 1082 432 1095.5 c 128,-1,2
 419 1109 419 1109 401 1109 c 256,3,4
 383 1109 383 1109 370 1096 c 128,-1,5
 357 1083 357 1083 357 1065 c 0,6,7
 357 1045 357 1045 369 1033 c 128,-1,8
 381 1021 381 1021 401 1021 c 0,9,10
 419 1021 419 1021 432 1033 c 128,-1,11
 445 1045 445 1045 445 1065 c 0,0,1
278 1065 m 0,12,13
 278 1082 278 1082 264.5 1095.5 c 128,-1,14
 251 1109 251 1109 233.5 1109 c 128,-1,15
 216 1109 216 1109 203 1095.5 c 128,-1,16
 190 1082 190 1082 190 1065 c 0,17,18
 190 1045 190 1045 202.5 1033 c 128,-1,19
 215 1021 215 1021 234 1021 c 0,20,21
 252 1021 252 1021 265 1033 c 128,-1,22
 278 1045 278 1045 278 1065 c 0,12,13
579 880 m 0,23,24
 579 916 579 916 558 954 c 0,25,26
 536 994 536 994 501 1023 c 1,27,-1
 449 971 l 1,28,29
 501 929 501 929 501 880 c 0,30,31
 501 853 501 853 482 834 c 128,-1,32
 463 815 463 815 436 815 c 1,33,-1
 402 805 l 1,34,-1
 402 801 l 1,35,36
 374 805 374 805 358 805 c 0,37,38
 234 805 234 805 146 697 c 0,39,40
 58 590 58 590 58 436 c 0,41,42
 58 278 58 278 146 166 c 128,-1,43
 234 54 234 54 358 54 c 128,-1,44
 482 54 482 54 570 166 c 128,-1,45
 658 278 658 278 658 436 c 0,46,47
 658 590 658 590 570 697 c 0,48,49
 544 730 544 730 508 756 c 1,50,51
 539 775 539 775 559 808 c 128,-1,52
 579 841 579 841 579 880 c 0,23,24
154 436 m 0,53,54
 154 556 154 556 213 639 c 0,55,56
 273 723 273 723 358 723 c 128,-1,57
 443 723 443 723 503 639 c 128,-1,58
 563 555 563 555 563 436 c 0,59,60
 563 312 563 312 503 224 c 128,-1,61
 443 136 443 136 358 136 c 128,-1,62
 273 136 273 136 213 224 c 0,63,64
 154 311 154 311 154 436 c 0,53,54
EndSplineSet
EndChar

StartChar: Oslash
Encoding: 216 216 75
Width: 687
GlyphClass: 2
Flags: W
LayerCount: 2
Fore
SplineSet
375 722 m 1,0,-1
 180 288 l 1,1,2
 154 355 154 355 154 436 c 0,3,4
 154 556 154 556 213 639 c 0,5,6
 273 723 273 723 358 723 c 0,7,8
 370 723 370 723 375 722 c 1,0,-1
472 675 m 1,9,10
 515 636 515 636 539 572.5 c 128,-1,11
 563 509 563 509 563 436 c 0,12,13
 563 312 563 312 503 224 c 128,-1,14
 443 136 443 136 358 136 c 0,15,16
 296 136 296 136 247 183 c 1,17,-1
 472 675 l 1,9,10
579 880 m 0,18,19
 579 916 579 916 558 954 c 0,20,21
 536 994 536 994 501 1023 c 1,22,-1
 449 971 l 1,23,24
 501 929 501 929 501 880 c 0,25,26
 501 853 501 853 482 834 c 128,-1,27
 463 815 463 815 436 815 c 1,28,-1
 402 805 l 1,29,-1
 402 801 l 1,30,31
 374 805 374 805 358 805 c 0,32,33
 234 805 234 805 146 697 c 0,34,35
 58 590 58 590 58 436 c 0,36,37
 58 291 58 291 133 184 c 1,38,-1
 76 57 l 1,39,-1
 190 57 l 1,40,-1
 211 102 l 1,41,42
 277 54 277 54 358 54 c 0,43,44
 482 54 482 54 570 166 c 128,-1,45
 658 278 658 278 658 436 c 0,46,47
 658 590 658 590 570 697 c 0,48,49
 544 730 544 730 508 756 c 1,50,51
 539 775 539 775 559 808 c 128,-1,52
 579 841 579 841 579 880 c 0,18,19
EndSplineSet
EndChar

StartChar: Otilde
Encoding: 213 213 76
Width: 687
GlyphClass: 2
Flags: W
LayerCount: 2
Fore
SplineSet
440 1117 m 0,0,1
 430 1117 430 1117 416 1103 c 0,2,3
 403 1087 403 1087 377 1087 c 0,4,5
 363 1087 363 1087 354 1092 c 0,6,7
 348 1094 348 1094 327.5 1107 c 128,-1,8
 307 1120 307 1120 290.5 1126 c 128,-1,9
 274 1132 274 1132 254 1132 c 0,10,11
 195 1132 195 1132 152 1078 c 0,12,13
 147 1072 147 1072 147 1062 c 0,14,15
 147 1050 147 1050 154.5 1043 c 128,-1,16
 162 1036 162 1036 173 1036 c 0,17,18
 189 1036 189 1036 199 1050 c 0,19,20
 223 1078 223 1078 252 1078 c 0,21,22
 273 1078 273 1078 300 1060 c 0,23,24
 343 1034 343 1034 378 1034 c 0,25,26
 430 1034 430 1034 462 1073 c 0,27,28
 468 1080 468 1080 468 1090 c 256,29,30
 468 1100 468 1100 459.5 1108.5 c 128,-1,31
 451 1117 451 1117 440 1117 c 0,0,1
579 880 m 0,32,33
 579 916 579 916 558 954 c 0,34,35
 536 994 536 994 501 1023 c 1,36,-1
 449 971 l 1,37,38
 501 929 501 929 501 880 c 0,39,40
 501 853 501 853 482 834 c 128,-1,41
 463 815 463 815 436 815 c 1,42,-1
 402 805 l 1,43,-1
 402 801 l 1,44,45
 374 805 374 805 358 805 c 0,46,47
 234 805 234 805 146 697 c 0,48,49
 58 590 58 590 58 436 c 0,50,51
 58 278 58 278 146 166 c 128,-1,52
 234 54 234 54 358 54 c 128,-1,53
 482 54 482 54 570 166 c 128,-1,54
 658 278 658 278 658 436 c 0,55,56
 658 590 658 590 570 697 c 0,57,58
 544 730 544 730 508 756 c 1,59,60
 539 775 539 775 559 808 c 128,-1,61
 579 841 579 841 579 880 c 0,32,33
154 436 m 0,62,63
 154 556 154 556 213 639 c 0,64,65
 273 723 273 723 358 723 c 128,-1,66
 443 723 443 723 503 639 c 128,-1,67
 563 555 563 555 563 436 c 0,68,69
 563 312 563 312 503 224 c 128,-1,70
 443 136 443 136 358 136 c 128,-1,71
 273 136 273 136 213 224 c 0,72,73
 154 311 154 311 154 436 c 0,62,63
EndSplineSet
EndChar

StartChar: P
Encoding: 80 80 77
Width: 769
GlyphClass: 2
Flags: W
LayerCount: 2
Fore
SplineSet
179 656 m 2,0,-1
 179 55 l 1,1,-1
 257 55 l 1,2,-1
 257 285 l 1,3,4
 339 188 339 188 465 188 c 0,5,6
 589 188 589 188 676 272 c 0,7,8
 764 357 764 357 764 474 c 0,9,10
 764 538 764 538 740.5 609.5 c 128,-1,11
 717 681 717 681 676 721 c 0,12,13
 638 758 638 758 607 776 c 1,14,15
 652 821 652 821 652 880 c 0,16,17
 652 957 652 957 574 1023 c 1,18,-1
 522 971 l 1,19,20
 574 927 574 927 574 880 c 0,21,22
 574 853 574 853 555 834 c 128,-1,23
 536 815 536 815 509 815 c 2,24,-1
 503 815 l 2,25,26
 484 818 484 818 465 818 c 0,27,28
 430 818 430 818 350 780 c 1,29,-1
 296 741 l 1,30,-1
 292 740 l 2,31,32
 289 740 289 740 282.5 739.5 c 128,-1,33
 276 739 276 739 270 739 c 0,34,35
 239 739 239 739 221 756 c 0,36,37
 176 799 176 799 114 799 c 0,38,39
 69 799 69 799 30 778 c 0,40,41
 23 774 23 774 17 769.5 c 128,-1,42
 11 765 11 765 6 758.5 c 128,-1,43
 1 752 1 752 -1.5 748 c 128,-1,44
 -4 744 -4 744 -9.5 734 c 128,-1,45
 -15 724 -15 724 -17 721 c 2,46,-1
 35 675 l 1,47,48
 39 680 39 680 44 688 c 128,-1,49
 49 696 49 696 53.5 700.5 c 128,-1,50
 58 705 58 705 65 709 c 0,51,52
 89 721 89 721 114 721 c 0,53,54
 141 721 141 721 160 702 c 128,-1,55
 179 683 179 683 179 656 c 2,0,-1
612 336 m 0,56,57
 550 279 550 279 465 279 c 128,-1,58
 380 279 380 279 318 336 c 0,59,60
 257 393 257 393 257 474 c 0,61,62
 257 520 257 520 273.5 575.5 c 128,-1,63
 290 631 290 631 318 657 c 0,64,65
 334 671 334 671 343 677 c 0,66,67
 395 714 395 714 465 714 c 0,68,69
 550 714 550 714 612 657 c 0,70,71
 640 631 640 631 656.5 575.5 c 128,-1,72
 673 520 673 520 673 474 c 0,73,74
 673 393 673 393 612 336 c 0,56,57
EndSplineSet
EndChar

StartChar: Q
Encoding: 81 81 78
Width: 691
GlyphClass: 2
Flags: W
LayerCount: 2
Fore
SplineSet
407 -95 m 0,0,1
 353 -95 353 -95 318 -79 c 0,2,3
 282 -62 282 -62 282 -41 c 0,4,5
 282 -32 282 -32 290 -24 c 1,6,7
 310 -50 310 -50 355 -50 c 0,8,9
 389 -50 389 -50 417.5 -38.5 c 128,-1,10
 446 -27 446 -27 446 -4 c 0,11,12
 446 18 446 18 417 29.5 c 128,-1,13
 388 41 388 41 355 41 c 0,14,15
 303 41 303 41 257.5 19 c 128,-1,16
 212 -3 212 -3 212 -40 c 0,17,18
 212 -78 212 -78 269 -105 c 0,19,20
 324 -131 324 -131 407 -131 c 0,21,22
 454 -131 454 -131 500 -119.5 c 128,-1,23
 546 -108 546 -108 580.5 -81 c 128,-1,24
 615 -54 615 -54 615 -17 c 0,25,26
 615 55 615 55 534 126 c 1,27,28
 559 151 559 151 570 165 c 0,29,30
 658 277 658 277 658 436 c 0,31,32
 658 589 658 589 570 696 c 0,33,34
 549 722 549 722 531 739 c 1,35,36
 581 746 581 746 616.5 786.5 c 128,-1,37
 652 827 652 827 652 880 c 0,38,39
 652 957 652 957 574 1023 c 1,40,-1
 522 971 l 1,41,42
 574 927 574 927 574 880 c 0,43,44
 574 853 574 853 555 834 c 128,-1,45
 536 815 536 815 509 815 c 2,46,-1
 384 815 l 2,47,48
 380 815 380 815 371 815.5 c 128,-1,49
 362 816 362 816 358 816 c 0,50,51
 244 816 244 816 146 696 c 0,52,53
 58 589 58 589 58 436 c 0,54,55
 58 277 58 277 146 165 c 0,56,57
 233 54 233 54 358 54 c 0,58,59
 428 54 428 54 487 90 c 1,60,61
 537 40 537 40 537 -17 c 0,62,63
 537 -53 537 -53 496.5 -74 c 128,-1,64
 456 -95 456 -95 407 -95 c 0,0,1
154 436 m 0,65,66
 154 555 154 555 213 638 c 0,67,68
 273 722 273 722 358 722 c 128,-1,69
 443 722 443 722 503 638 c 128,-1,70
 563 554 563 554 563 436 c 0,71,72
 563 312 563 312 503 224 c 0,73,74
 443 135 443 135 358 135 c 128,-1,75
 273 135 273 135 213 224 c 0,76,77
 154 311 154 311 154 436 c 0,65,66
355 7 m 128,-1,79
 381 7 381 7 381 -6 c 128,-1,80
 381 -19 381 -19 355 -19 c 128,-1,81
 329 -19 329 -19 329 -6 c 128,-1,78
 329 7 329 7 355 7 c 128,-1,79
EndSplineSet
EndChar

StartChar: R
Encoding: 82 82 79
Width: 702
GlyphClass: 2
Flags: W
LayerCount: 2
Fore
SplineSet
560 586 m 0,0,1
 560 554 560 554 535 529.5 c 128,-1,2
 510 505 510 505 477 496 c 0,3,4
 399 475 399 475 350 409 c 0,5,6
 300 342 300 342 300 262 c 0,7,8
 300 185 300 185 344 125.5 c 128,-1,9
 388 66 388 66 456 66 c 0,10,11
 533 66 533 66 591 109.5 c 128,-1,12
 649 153 649 153 685 220 c 1,13,-1
 644 310 l 1,14,15
 619 253 619 253 570 216.5 c 128,-1,16
 521 180 521 180 456 180 c 0,17,18
 422 180 422 180 397.5 204.5 c 128,-1,19
 373 229 373 229 373 262 c 0,20,21
 373 305 373 305 404.5 338.5 c 128,-1,22
 436 372 436 372 477 383 c 0,23,24
 541 400 541 400 587 457 c 128,-1,25
 633 514 633 514 633 586 c 0,26,27
 633 689 633 689 578 755 c 1,28,29
 610 773 610 773 631 807 c 128,-1,30
 652 841 652 841 652 880 c 0,31,32
 652 957 652 957 574 1023 c 1,33,-1
 522 971 l 1,34,35
 574 927 574 927 574 880 c 0,36,37
 574 853 574 853 555 834 c 128,-1,38
 536 815 536 815 509 815 c 2,39,-1
 481 815 l 1,40,41
 451 822 451 822 425 822 c 0,42,43
 364 822 364 822 310 776 c 0,44,45
 257 730 257 730 228 652 c 1,46,47
 228 708 228 708 195 753 c 128,-1,48
 162 798 162 798 113 798 c 0,49,50
 85 798 85 798 54 772 c 0,51,52
 25 747 25 747 -1 700 c 1,53,-1
 40 635 l 1,54,55
 56 666 56 666 76 683 c 256,56,57
 96 700 96 700 113 700 c 0,58,59
 137 700 137 700 151 675 c 128,-1,60
 165 650 165 650 165 619 c 2,61,-1
 165 66 l 1,62,-1
 228 66 l 1,63,-1
 228 399 l 2,64,65
 228 528 228 528 286 617 c 0,66,67
 345 708 345 708 425 708 c 0,68,69
 479 708 479 708 519.5 672.5 c 128,-1,70
 560 637 560 637 560 586 c 0,0,1
EndSplineSet
EndChar

StartChar: S
Encoding: 83 83 82
Width: 659
GlyphClass: 2
Flags: W
LayerCount: 2
Fore
SplineSet
652 880 m 0,0,1
 652 957 652 957 574 1023 c 1,2,-1
 522 971 l 1,3,4
 574 927 574 927 574 880 c 0,5,6
 574 858 574 858 560.5 840.5 c 128,-1,7
 547 823 547 823 527 817 c 1,8,-1
 527 823 l 1,9,-1
 293 823 l 2,10,11
 218 823 218 823 164 764 c 0,12,13
 111 707 111 707 111 623 c 0,14,15
 111 527 111 527 180 454 c 0,16,17
 250 380 250 380 351 368 c 0,18,19
 402 361 402 361 438.5 326 c 128,-1,20
 475 291 475 291 475 241 c 0,21,22
 475 188 475 188 437 150.5 c 128,-1,23
 399 113 399 113 345 113 c 0,24,25
 292 113 292 113 235 162 c 0,26,27
 181 209 181 209 137 295 c 1,28,-1
 72 232 l 1,29,30
 126 124 126 124 198 64 c 128,-1,31
 270 4 270 4 345 4 c 0,32,33
 438 4 438 4 502 73 c 0,34,35
 566 141 566 141 566 241 c 0,36,37
 566 331 566 331 508 399 c 0,38,39
 451 466 451 466 364 477 c 0,40,41
 300 485 300 485 251 525 c 128,-1,42
 202 565 202 565 202 623 c 0,43,44
 202 645 202 645 209 672.5 c 128,-1,45
 216 700 216 700 228 712 c 0,46,47
 255 739 255 739 293 739 c 2,48,-1
 475 739 l 1,49,-1
 475 737 l 1,50,-1
 509 737 l 2,51,52
 568 737 568 737 610 779.5 c 128,-1,53
 652 822 652 822 652 880 c 0,0,1
EndSplineSet
EndChar

StartChar: T
Encoding: 84 84 87
Width: 613
GlyphClass: 2
Flags: W
LayerCount: 2
Fore
SplineSet
607 880 m 0,0,1
 607 916 607 916 586 954 c 0,2,3
 564 994 564 994 529 1023 c 1,4,-1
 477 971 l 1,5,6
 529 929 529 929 529 880 c 0,7,8
 529 853 529 853 510 834 c 128,-1,9
 491 815 491 815 464 815 c 2,10,-1
 -3 815 l 1,11,-1
 -3 736 l 1,12,-1
 231 736 l 1,13,-1
 231 57 l 1,14,-1
 305 57 l 1,15,-1
 305 737 l 1,16,-1
 464 737 l 2,17,18
 522 737 522 737 564.5 779.5 c 128,-1,19
 607 822 607 822 607 880 c 0,0,1
EndSplineSet
EndChar

StartChar: Thorn
Encoding: 222 222 89
Width: 540
GlyphClass: 2
Flags: W
LayerCount: 2
Fore
SplineSet
188 593 m 2,0,-1
 175 593 l 2,1,2
 170 590 170 590 161.5 580.5 c 128,-1,3
 153 571 153 571 150 568 c 2,4,-1
 138 568 l 1,5,6
 120 552 120 552 112 542 c 1,7,-1
 112 798 l 1,8,-1
 38 798 l 1,9,-1
 38 51 l 1,10,-1
 115 51 l 1,11,-1
 115 224 l 1,12,13
 145 195 145 195 173 179 c 0,14,15
 177 177 177 177 186 168 c 128,-1,16
 195 159 195 159 200 157 c 0,17,18
 205 158 205 158 214 158 c 0,19,20
 227 158 227 158 250 153.5 c 128,-1,21
 273 149 273 149 287 149 c 0,22,23
 292 149 292 149 302 154.5 c 128,-1,24
 312 160 312 160 317 160 c 2,25,-1
 360 160 l 1,26,-1
 374 171 l 1,27,-1
 388 171 l 1,28,29
 469 210 469 210 507 298 c 1,30,-1
 520 311 l 2,31,32
 520 313 520 313 519.5 317.5 c 128,-1,33
 519 322 519 322 519 324 c 0,34,35
 519 335 519 335 521.5 354.5 c 128,-1,36
 524 374 524 374 524 384 c 128,-1,37
 524 394 524 394 523 399 c 0,38,39
 523 401 523 401 523.5 403 c 128,-1,40
 524 405 524 405 524 406 c 0,41,42
 524 416 524 416 516.5 428 c 128,-1,43
 509 440 509 440 508 443 c 2,44,-1
 508 471 l 1,45,-1
 496 498 l 2,46,47
 493 503 493 503 483.5 511.5 c 128,-1,48
 474 520 474 520 471 523 c 2,49,-1
 471 535 l 1,50,51
 460 549 460 549 434.5 571 c 128,-1,52
 409 593 409 593 403 599 c 1,53,-1
 390 599 l 1,54,-1
 376 614 l 1,55,-1
 367 614 l 2,56,57
 353 614 353 614 327 618 c 128,-1,58
 301 622 301 622 288 622 c 0,59,60
 272 622 272 622 259 618 c 1,61,-1
 251 618 l 2,62,63
 243 618 243 618 236 617 c 128,-1,64
 229 616 229 616 221.5 612.5 c 128,-1,65
 214 609 214 609 210.5 607 c 128,-1,66
 207 605 207 605 198.5 599.5 c 128,-1,67
 190 594 190 594 188 593 c 2,0,-1
471 409 m 0,68,69
 471 400 471 400 469.5 384 c 128,-1,70
 468 368 468 368 468 359 c 2,71,-1
 468 352 l 2,72,73
 468 347 468 347 463 339 c 128,-1,74
 458 331 458 331 458 324 c 2,75,-1
 458 319 l 2,76,77
 456 316 456 316 450 309 c 128,-1,78
 444 302 444 302 442 298 c 2,79,-1
 442 288 l 2,80,81
 440 285 440 285 435 274.5 c 128,-1,82
 430 264 430 264 428 261 c 2,83,-1
 412 261 l 1,84,-1
 412 253 l 2,85,86
 409 250 409 250 398.5 245.5 c 128,-1,87
 388 241 388 241 385 239 c 2,88,-1
 385 227 l 1,89,-1
 375 227 l 2,90,91
 371 225 371 225 364 218.5 c 128,-1,92
 357 212 357 212 354 210 c 0,93,94
 352 210 352 210 348 210.5 c 128,-1,95
 344 211 344 211 343 211 c 0,96,97
 331 211 331 211 309 205 c 0,98,99
 300 205 300 205 284 206.5 c 128,-1,100
 268 208 268 208 259 208 c 2,101,-1
 252 208 l 2,102,103
 247 208 247 208 239 213 c 128,-1,104
 231 218 231 218 224 218 c 2,105,-1
 219 218 l 2,106,107
 216 220 216 220 209 226 c 128,-1,108
 202 232 202 232 198 234 c 2,109,-1
 188 234 l 2,110,111
 185 237 185 237 179 245 c 128,-1,112
 173 253 173 253 170 256 c 2,113,-1
 153 256 l 1,114,-1
 153 264 l 2,115,116
 150 267 150 267 146 277.5 c 128,-1,117
 142 288 142 288 139 291 c 2,118,-1
 127 291 l 1,119,-1
 127 301 l 2,120,121
 125 305 125 305 118.5 312 c 128,-1,122
 112 319 112 319 110 322 c 0,123,124
 110 324 110 324 110.5 328 c 128,-1,125
 111 332 111 332 111 333 c 0,126,127
 111 345 111 345 105 367 c 0,128,129
 105 376 105 376 106.5 392 c 128,-1,130
 108 408 108 408 108 417 c 2,131,-1
 108 424 l 2,132,133
 108 429 108 429 113 437 c 128,-1,134
 118 445 118 445 118 452 c 2,135,-1
 118 457 l 2,136,137
 120 460 120 460 126 467 c 128,-1,138
 132 474 132 474 134 478 c 2,139,-1
 134 488 l 1,140,141
 138 493 138 493 149 502 c 128,-1,142
 160 511 160 511 164 515 c 1,143,-1
 164 523 l 2,144,145
 167 526 167 526 177.5 530 c 128,-1,146
 188 534 188 534 191 537 c 2,147,-1
 191 549 l 1,148,-1
 201 549 l 2,149,150
 205 551 205 551 212 557.5 c 128,-1,151
 219 564 219 564 222 566 c 0,152,153
 224 566 224 566 228 565.5 c 128,-1,154
 232 565 232 565 233 565 c 0,155,156
 245 565 245 565 267 571 c 0,157,158
 276 571 276 571 292 569.5 c 128,-1,159
 308 568 308 568 317 568 c 2,160,-1
 324 568 l 2,161,162
 329 568 329 568 337 563 c 128,-1,163
 345 558 345 558 352 558 c 2,164,-1
 357 558 l 2,165,166
 360 556 360 556 367 550 c 128,-1,167
 374 544 374 544 378 542 c 2,168,-1
 388 542 l 2,169,170
 391 540 391 540 397 531 c 128,-1,171
 403 522 403 522 406 520 c 2,172,-1
 423 520 l 1,173,-1
 423 512 l 2,174,175
 426 509 426 509 430 498.5 c 128,-1,176
 434 488 434 488 437 485 c 2,177,-1
 449 485 l 1,178,-1
 449 475 l 2,179,180
 451 471 451 471 457.5 464 c 128,-1,181
 464 457 464 457 466 454 c 0,182,183
 466 452 466 452 465.5 448 c 128,-1,184
 465 444 465 444 465 443 c 0,185,186
 465 431 465 431 471 409 c 0,68,69
EndSplineSet
EndChar

StartChar: U
Encoding: 85 85 90
Width: 681
GlyphClass: 2
Flags: W
LayerCount: 2
Fore
SplineSet
652 880 m 0,0,1
 652 957 652 957 574 1023 c 1,2,-1
 522 971 l 1,3,4
 574 927 574 927 574 880 c 0,5,6
 574 853 574 853 555 834 c 128,-1,7
 536 815 536 815 509 815 c 2,8,-1
 475 815 l 1,9,-1
 475 813 l 1,10,-1
 419 749 l 1,11,12
 491 664 491 664 523 582 c 0,13,14
 553 505 553 505 553 428 c 0,15,16
 553 310 553 310 496 226 c 128,-1,17
 439 142 439 142 358 142 c 128,-1,18
 277 142 277 142 220 226 c 128,-1,19
 163 310 163 310 163 428 c 0,20,21
 163 505 163 505 193 582 c 0,22,23
 227 667 227 667 292 745 c 1,24,-1
 214 797 l 1,25,26
 141 711 141 711 106 614 c 0,27,28
 72 521 72 521 72 428 c 0,29,30
 72 276 72 276 156 170 c 256,31,32
 240 64 240 64 358 64 c 0,33,34
 460 64 460 64 536 143 c 1,35,36
 568 81 568 81 631 57 c 0,37,38
 637 55 637 55 641 55 c 0,39,40
 656 55 656 55 669.5 68 c 128,-1,41
 683 81 683 81 683 96 c 0,42,43
 683 99 683 99 681 105 c 0,44,45
 650 181 650 181 589 213 c 1,46,47
 644 305 644 305 644 428 c 0,48,49
 644 521 644 521 610 614 c 0,50,51
 594 659 594 659 536 739 c 1,52,53
 584 747 584 747 618 788 c 128,-1,54
 652 829 652 829 652 880 c 0,0,1
EndSplineSet
EndChar

StartChar: Ucircumflex
Encoding: 219 219 93
Width: 681
GlyphClass: 2
Flags: W
LayerCount: 2
Fore
SplineSet
494 1035 m 0,0,1
 494 1052 494 1052 475 1062 c 2,2,-1
 357 1125 l 2,3,4
 342 1129 342 1129 337 1129 c 0,5,6
 326 1129 326 1129 318 1125 c 2,7,-1
 199 1062 l 2,8,9
 180 1052 180 1052 180 1035 c 0,10,11
 180 1022 180 1022 191.5 1014.5 c 128,-1,12
 203 1007 203 1007 220 1007 c 0,13,14
 232 1007 232 1007 243 1014 c 2,15,-1
 337 1065 l 1,16,-1
 430 1014 l 2,17,18
 441 1007 441 1007 455 1007 c 0,19,20
 471 1007 471 1007 482.5 1015 c 128,-1,21
 494 1023 494 1023 494 1035 c 0,0,1
652 880 m 0,22,23
 652 957 652 957 574 1023 c 1,24,-1
 522 971 l 1,25,26
 574 927 574 927 574 880 c 0,27,28
 574 853 574 853 555 834 c 128,-1,29
 536 815 536 815 509 815 c 2,30,-1
 475 815 l 1,31,-1
 475 813 l 1,32,-1
 419 749 l 1,33,34
 491 664 491 664 523 582 c 0,35,36
 553 505 553 505 553 428 c 0,37,38
 553 310 553 310 496 226 c 128,-1,39
 439 142 439 142 358 142 c 128,-1,40
 277 142 277 142 220 226 c 128,-1,41
 163 310 163 310 163 428 c 0,42,43
 163 505 163 505 193 582 c 0,44,45
 227 667 227 667 292 745 c 1,46,-1
 214 797 l 1,47,48
 141 711 141 711 106 614 c 0,49,50
 72 521 72 521 72 428 c 0,51,52
 72 276 72 276 156 170 c 256,53,54
 240 64 240 64 358 64 c 0,55,56
 460 64 460 64 536 143 c 1,57,58
 568 81 568 81 631 57 c 0,59,60
 637 55 637 55 641 55 c 0,61,62
 656 55 656 55 669.5 68 c 128,-1,63
 683 81 683 81 683 96 c 0,64,65
 683 99 683 99 681 105 c 0,66,67
 650 181 650 181 589 213 c 1,68,69
 644 305 644 305 644 428 c 0,70,71
 644 521 644 521 610 614 c 0,72,73
 594 659 594 659 536 739 c 1,74,75
 584 747 584 747 618 788 c 128,-1,76
 652 829 652 829 652 880 c 0,22,23
EndSplineSet
EndChar

StartChar: V
Encoding: 86 86 101
Width: 793
GlyphClass: 2
Flags: W
LayerCount: 2
Fore
SplineSet
585 727 m 2,0,-1
 643 737 l 1,1,-1
 644 737 l 2,2,3
 702 737 702 737 744.5 779.5 c 128,-1,4
 787 822 787 822 787 880 c 0,5,6
 787 916 787 916 766 954 c 0,7,8
 744 994 744 994 709 1023 c 1,9,-1
 657 971 l 1,10,11
 709 929 709 929 709 880 c 0,12,13
 709 853 709 853 690 834 c 128,-1,14
 671 815 671 815 644 815 c 2,15,-1
 610 815 l 1,16,-1
 610 808 l 1,17,-1
 585 808 l 2,18,19
 529 808 529 808 493 769 c 0,20,21
 455 728 455 728 455 672 c 0,22,23
 455 608 455 608 500 488 c 0,24,25
 546 365 546 365 546 304 c 0,26,27
 546 237 546 237 496 188.5 c 128,-1,28
 446 140 446 140 377 140 c 0,29,30
 276 140 276 140 214 247 c 128,-1,31
 152 354 152 354 152 531 c 0,32,33
 152 571 152 571 156 590 c 1,34,35
 191 536 191 536 260 536 c 0,36,37
 314 536 314 536 352 576.5 c 128,-1,38
 390 617 390 617 390 672 c 0,39,40
 390 728 390 728 352 768.5 c 128,-1,41
 314 809 314 809 260 809 c 0,42,43
 179 809 179 809 122 729 c 0,44,45
 65 650 65 650 65 536 c 0,46,47
 65 300 65 300 144 179 c 0,48,49
 224 58 224 58 377 58 c 0,50,51
 484 58 484 58 561 130 c 0,52,53
 637 202 637 202 637 304 c 0,54,55
 637 368 637 368 592 488 c 0,56,57
 546 611 546 611 546 672 c 0,58,59
 546 693 546 693 557 710 c 128,-1,60
 568 727 568 727 585 727 c 2,0,-1
260 727 m 128,-1,62
 282 727 282 727 297 711 c 128,-1,63
 312 695 312 695 312 672 c 128,-1,64
 312 649 312 649 297 633.5 c 128,-1,65
 282 618 282 618 260 618 c 128,-1,66
 238 618 238 618 223 633.5 c 128,-1,67
 208 649 208 649 208 672 c 128,-1,68
 208 695 208 695 223 711 c 128,-1,61
 238 727 238 727 260 727 c 128,-1,62
EndSplineSet
EndChar

StartChar: W
Encoding: 87 87 102
Width: 761
GlyphClass: 2
Flags: W
LayerCount: 2
Fore
SplineSet
411 335 m 1,0,-1
 333 335 l 1,1,2
 333 271 333 271 300.5 217.5 c 128,-1,3
 268 164 268 164 216 164 c 0,4,5
 182 164 182 164 160 192 c 128,-1,6
 138 220 138 220 138 257 c 0,7,8
 138 334 138 334 203 413 c 0,9,10
 244 463 244 463 270 519 c 0,11,12
 294 572 294 572 294 616 c 0,13,14
 294 681 294 681 252.5 730.5 c 128,-1,15
 211 780 211 780 151 780 c 128,-1,16
 91 780 91 780 49.5 730.5 c 128,-1,17
 8 681 8 681 8 616 c 0,18,19
 8 557 8 557 34 522 c 1,20,-1
 112 554 l 1,21,22
 99 586 99 586 99 616 c 0,23,24
 99 641 99 641 113.5 659.5 c 128,-1,25
 128 678 128 678 151 678 c 128,-1,26
 174 678 174 678 188.5 659.5 c 128,-1,27
 203 641 203 641 203 616 c 0,28,29
 203 575 203 575 182 533 c 0,30,31
 159 487 159 487 125 453 c 128,-1,32
 91 419 91 419 69 367 c 128,-1,33
 47 315 47 315 47 257 c 0,34,35
 47 173 47 173 96 114 c 0,36,37
 146 54 146 54 216 54 c 0,38,39
 275 54 275 54 317 93 c 128,-1,40
 359 132 359 132 372 188 c 1,41,42
 385 132 385 132 427 93 c 128,-1,43
 469 54 469 54 528 54 c 0,44,45
 622 54 622 54 679 150 c 128,-1,46
 736 246 736 246 736 406 c 0,47,48
 736 506 736 506 697.5 596.5 c 128,-1,49
 659 687 659 687 599 753 c 1,50,51
 633 771 633 771 654.5 805 c 128,-1,52
 676 839 676 839 676 880 c 0,53,54
 676 957 676 957 598 1023 c 1,55,-1
 546 971 l 1,56,57
 598 927 598 927 598 880 c 0,58,59
 598 853 598 853 579 834 c 128,-1,60
 560 815 560 815 533 815 c 2,61,-1
 499 815 l 1,62,-1
 499 737 l 1,63,64
 528 707 528 707 560 656 c 128,-1,65
 592 605 592 605 611 563 c 0,66,67
 645 486 645 486 645 406 c 0,68,69
 645 297 645 297 613 230 c 0,70,71
 582 164 582 164 528 164 c 0,72,73
 476 164 476 164 443.5 217.5 c 128,-1,74
 411 271 411 271 411 335 c 1,0,-1
EndSplineSet
EndChar

StartChar: X
Encoding: 88 88 107
Width: 906
GlyphClass: 2
Flags: W
LayerCount: 2
Fore
SplineSet
73 621 m 0,0,1
 73 560 73 560 110.5 512.5 c 128,-1,2
 148 465 148 465 203 465 c 128,-1,3
 258 465 258 465 295.5 512.5 c 128,-1,4
 333 560 333 560 333 621 c 1,5,6
 372 567 372 567 372 465 c 0,7,8
 372 334 372 334 296.5 227.5 c 128,-1,9
 221 121 221 121 112 60 c 1,10,-1
 255 60 l 1,11,12
 346 123 346 123 404.5 229 c 128,-1,13
 463 335 463 335 463 465 c 0,14,15
 463 593 463 593 390 686 c 0,16,17
 318 777 318 777 216 777 c 0,18,19
 156 777 156 777 114.5 730.5 c 128,-1,20
 73 684 73 684 73 621 c 0,0,1
849 216 m 0,21,22
 849 277 849 277 811.5 324.5 c 128,-1,23
 774 372 774 372 719 372 c 128,-1,24
 664 372 664 372 626.5 324.5 c 128,-1,25
 589 277 589 277 589 216 c 1,26,27
 550 270 550 270 550 372 c 0,28,29
 550 491 550 491 620 601 c 0,30,31
 675 687 675 687 721 738 c 1,32,-1
 751 738 l 2,33,34
 810 738 810 738 852 780 c 128,-1,35
 894 822 894 822 894 881 c 0,36,37
 894 958 894 958 816 1024 c 1,38,-1
 764 972 l 1,39,40
 816 928 816 928 816 881 c 0,41,42
 816 854 816 854 797 835 c 128,-1,43
 778 816 778 816 751 816 c 2,44,-1
 717 816 l 1,45,-1
 717 812 l 1,46,-1
 667 812 l 1,47,48
 598 764 598 764 514 601 c 0,49,50
 459 494 459 494 459 372 c 0,51,52
 460 318 460 318 463.5 287.5 c 128,-1,53
 467 257 467 257 483.5 218.5 c 128,-1,54
 500 180 500 180 532 151 c 0,55,56
 584 104 584 104 622 82 c 128,-1,57
 660 60 660 60 706 60 c 0,58,59
 766 60 766 60 807.5 106.5 c 128,-1,60
 849 153 849 153 849 216 c 0,21,22
667 216 m 0,61,62
 667 241 667 241 681.5 259.5 c 128,-1,63
 696 278 696 278 719 278 c 128,-1,64
 742 278 742 278 756.5 259.5 c 128,-1,65
 771 241 771 241 771 216 c 0,66,67
 771 190 771 190 756.5 171.5 c 128,-1,68
 742 153 742 153 719 153 c 128,-1,69
 696 153 696 153 681.5 171.5 c 128,-1,70
 667 190 667 190 667 216 c 0,61,62
255 621 m 0,71,72
 255 596 255 596 240.5 577.5 c 128,-1,73
 226 559 226 559 203 559 c 128,-1,74
 180 559 180 559 165.5 577.5 c 128,-1,75
 151 596 151 596 151 621 c 0,76,77
 151 647 151 647 165.5 665.5 c 128,-1,78
 180 684 180 684 203 684 c 128,-1,79
 226 684 226 684 240.5 665.5 c 128,-1,80
 255 647 255 647 255 621 c 0,71,72
EndSplineSet
EndChar

StartChar: Y
Encoding: 89 89 108
Width: 673
GlyphClass: 2
Flags: W
LayerCount: 2
Fore
SplineSet
337 422 m 0,0,1
 431 422 431 422 442 428 c 0,2,3
 455 435 455 435 466 448 c 1,4,-1
 466 292 l 2,5,6
 466 231 466 231 414.5 189.5 c 128,-1,7
 363 148 363 148 296 148 c 0,8,9
 241 148 241 148 194.5 173 c 128,-1,10
 148 198 148 198 148 240 c 0,11,12
 148 277 148 277 172 303.5 c 128,-1,13
 196 330 196 330 232 330 c 0,14,15
 256 330 256 330 273 315.5 c 128,-1,16
 290 301 290 301 290 278 c 1,17,18
 286 279 286 279 279 279 c 0,19,20
 261 279 261 279 246.5 267.5 c 128,-1,21
 232 256 232 256 232 240 c 0,22,23
 232 217 232 217 246.5 202.5 c 128,-1,24
 261 188 261 188 284 188 c 0,25,26
 316 188 316 188 339 215.5 c 128,-1,27
 362 243 362 243 362 278 c 0,28,29
 362 332 362 332 324 370 c 128,-1,30
 286 408 286 408 232 408 c 0,31,32
 166 408 166 408 121 358.5 c 128,-1,33
 76 309 76 309 76 240 c 0,34,35
 76 164 76 164 144 111 c 128,-1,36
 212 58 212 58 310 58 c 0,37,38
 407 58 407 58 475 126 c 0,39,40
 544 195 544 195 544 292 c 2,41,-1
 544 738 l 1,42,43
 594 745 594 745 630 786 c 128,-1,44
 666 827 666 827 666 880 c 0,45,46
 666 957 666 957 588 1023 c 1,47,-1
 536 971 l 1,48,49
 588 927 588 927 588 880 c 0,50,51
 588 858 588 858 575 841 c 128,-1,52
 562 824 562 824 542 818 c 1,53,-1
 466 818 l 1,54,-1
 466 526 l 1,55,56
 460 516 460 516 415 509 c 128,-1,57
 370 502 370 502 349 502 c 0,58,59
 323 502 323 502 323 526 c 2,60,-1
 323 818 l 1,61,-1
 259 818 l 1,62,-1
 259 526 l 2,63,64
 259 485 259 485 280.5 453.5 c 128,-1,65
 302 422 302 422 337 422 c 0,0,1
EndSplineSet
EndChar

StartChar: Z
Encoding: 90 90 113
Width: 844
GlyphClass: 2
Flags: W
LayerCount: 2
Fore
SplineSet
279 354 m 0,0,1
 295 354 295 354 369.5 347.5 c 128,-1,2
 444 341 444 341 461 341 c 0,3,4
 576 341 576 341 655 396 c 0,5,6
 735 452 735 452 735 530 c 0,7,8
 735 642 735 642 626 721 c 0,9,10
 622 724 622 724 614.5 729 c 128,-1,11
 607 734 607 734 603 737 c 1,12,-1
 686 737 l 2,13,14
 744 737 744 737 786.5 779.5 c 128,-1,15
 829 822 829 822 829 880 c 0,16,17
 829 916 829 916 808 954 c 0,18,19
 786 994 786 994 751 1023 c 1,20,-1
 699 971 l 1,21,22
 751 929 751 929 751 880 c 0,23,24
 751 853 751 853 732 834 c 128,-1,25
 713 815 713 815 686 815 c 2,26,-1
 416 815 l 2,27,28
 407 815 407 815 389.5 817 c 128,-1,29
 372 819 372 819 362 819 c 0,30,31
 248 819 248 819 124 754 c 0,32,33
 36 708 36 708 36 630 c 0,34,35
 36 570 36 570 86.5 531 c 128,-1,36
 137 492 137 492 203 492 c 128,-1,37
 269 492 269 492 319.5 531 c 128,-1,38
 370 570 370 570 370 630 c 0,39,40
 370 681 370 681 332 712 c 1,41,42
 335 712 335 712 338.5 712.5 c 128,-1,43
 342 713 342 713 344 713 c 2,44,-1
 356 713 l 2,45,46
 469 713 469 713 549 659 c 128,-1,47
 629 605 629 605 629 530 c 0,48,49
 629 484 629 484 576 456.5 c 128,-1,50
 523 429 523 429 461 429 c 0,51,52
 444 429 444 429 369.5 435.5 c 128,-1,53
 295 442 295 442 279 442 c 0,54,55
 179 442 179 442 107 394 c 0,56,57
 36 347 36 347 36 278 c 0,58,59
 36 205 36 205 129 154 c 128,-1,60
 222 103 222 103 355 103 c 2,61,-1
 477 103 l 2,62,63
 539 103 539 103 584 73 c 0,64,65
 589 69 589 69 593.5 68 c 128,-1,66
 598 67 598 67 600.5 65.5 c 128,-1,67
 603 64 603 64 606 60 c 1,68,-1
 660 135 l 1,69,70
 660 159 660 159 590 174.5 c 128,-1,71
 520 190 520 190 477 190 c 2,72,-1
 355 190 l 2,73,74
 269 190 269 190 205 216 c 0,75,76
 142 241 142 241 142 278 c 0,77,78
 142 313 142 313 186 333.5 c 128,-1,79
 230 354 230 354 279 354 c 0,0,1
243 620 m 0,80,81
 243 598 243 598 223 585 c 128,-1,82
 203 572 203 572 176 572 c 128,-1,83
 149 572 149 572 128.5 585 c 128,-1,84
 108 598 108 598 108 620 c 128,-1,85
 108 642 108 642 128.5 655 c 128,-1,86
 149 668 149 668 176 668 c 0,87,88
 202 668 202 668 222.5 654.5 c 128,-1,89
 243 641 243 641 243 620 c 0,80,81
EndSplineSet
EndChar

StartChar: a
Encoding: 97 97 117
Width: 310
GlyphClass: 2
Flags: W
LayerCount: 2
Fore
SplineSet
239 267 m 1,0,-1
 67 267 l 1,1,2
 67 285 67 285 67 285 c 2,3,4
 67 366 67 366 95 416 c 0,5,6
 120 467 120 467 152 467 c 0,7,8
 183 467 183 467 211 416 c 0,9,10
 239 366 239 366 239 285 c 0,11,12
 239 267 239 267 239 267 c 1,0,-1
239 556 m 0,13,14
 239 543 239 543 232 533 c 128,-1,15
 225 523 225 523 213 523 c 2,16,-1
 -10 523 l 1,17,-1
 -10 472 l 1,18,19
 1 475 1 475 10 475 c 0,20,21
 28 475 28 475 43 468 c 2,22,-1
 54 463 l 1,23,-1
 48 453 l 2,24,25
 2 383 2 383 2 292 c 2,26,-1
 2 67 l 1,27,-1
 67 67 l 1,28,-1
 67 217 l 1,29,-1
 239 217 l 1,30,-1
 239 70 l 1,31,-1
 304 70 l 1,32,-1
 304 292 l 2,33,34
 304 391 304 391 253 461 c 2,35,-1
 246 470 l 1,36,-1
 256 476 l 2,37,38
 277 487 277 487 290.5 508.5 c 128,-1,39
 304 530 304 530 304 556 c 0,40,41
 304 604 304 604 252 646 c 1,42,-1
 214 609 l 1,43,44
 239 591 239 591 239 556 c 0,13,14
EndSplineSet
EndChar

StartChar: abreve
Encoding: 259 259 119
Width: 310
GlyphClass: 2
Flags: W
LayerCount: 2
Fore
SplineSet
250 710 m 0,0,1
 250 724 250 724 242 733 c 128,-1,2
 234 742 234 742 221 742 c 128,-1,3
 208 742 208 742 199 734 c 128,-1,4
 190 726 190 726 190 713 c 0,5,6
 190 692 190 692 170.5 680.5 c 128,-1,7
 151 669 151 669 125 669 c 256,8,9
 99 669 99 669 79.5 681 c 128,-1,10
 60 693 60 693 60 713 c 0,11,12
 60 725 60 725 51 733.5 c 128,-1,13
 42 742 42 742 30 742 c 256,14,15
 18 742 18 742 9 732 c 128,-1,16
 0 722 0 722 0 710 c 0,17,18
 0 682 0 682 17 662 c 0,19,20
 54 617 54 617 125 617 c 0,21,22
 158 617 158 617 186 629 c 0,23,24
 248 656 248 656 250 710 c 0,0,1
239 267 m 1,25,-1
 67 267 l 1,26,27
 67 285 67 285 67 285 c 2,28,29
 67 366 67 366 95 416 c 0,30,31
 120 467 120 467 152 467 c 0,32,33
 183 467 183 467 211 416 c 0,34,35
 239 366 239 366 239 285 c 0,36,37
 239 267 239 267 239 267 c 1,25,-1
239 556 m 0,38,39
 239 543 239 543 232 533 c 128,-1,40
 225 523 225 523 213 523 c 2,41,-1
 -10 523 l 1,42,-1
 -10 472 l 1,43,44
 1 475 1 475 10 475 c 0,45,46
 28 475 28 475 43 468 c 2,47,-1
 54 463 l 1,48,-1
 48 453 l 2,49,50
 2 383 2 383 2 292 c 2,51,-1
 2 67 l 1,52,-1
 67 67 l 1,53,-1
 67 217 l 1,54,-1
 239 217 l 1,55,-1
 239 70 l 1,56,-1
 304 70 l 1,57,-1
 304 292 l 2,58,59
 304 391 304 391 253 461 c 2,60,-1
 246 470 l 1,61,-1
 256 476 l 2,62,63
 277 487 277 487 290.5 508.5 c 128,-1,64
 304 530 304 530 304 556 c 0,65,66
 304 604 304 604 252 646 c 1,67,-1
 214 609 l 1,68,69
 239 591 239 591 239 556 c 0,38,39
EndSplineSet
EndChar

StartChar: acircumflex
Encoding: 226 226 120
Width: 310
GlyphClass: 2
Flags: W
LayerCount: 2
Fore
SplineSet
261 728 m 0,0,1
 261 742 261 742 249 750 c 2,2,-1
 174 800 l 2,3,4
 164 803 164 803 161 803 c 0,5,6
 154 803 154 803 149 800 c 2,7,-1
 73 750 l 2,8,9
 61 742 61 742 61 728 c 0,10,11
 61 718 61 718 68.5 712 c 128,-1,12
 76 706 76 706 87 706 c 0,13,14
 94 706 94 706 101 711 c 2,15,-1
 161 752 l 1,16,-1
 220 711 l 2,17,18
 227 706 227 706 236 706 c 0,19,20
 246 706 246 706 253.5 712.5 c 128,-1,21
 261 719 261 719 261 728 c 0,0,1
239 267 m 1,22,-1
 67 267 l 1,23,24
 67 285 67 285 67 285 c 2,25,26
 67 366 67 366 95 416 c 0,27,28
 120 467 120 467 152 467 c 0,29,30
 183 467 183 467 211 416 c 0,31,32
 239 366 239 366 239 285 c 0,33,34
 239 267 239 267 239 267 c 1,22,-1
239 556 m 0,35,36
 239 543 239 543 232 533 c 128,-1,37
 225 523 225 523 213 523 c 2,38,-1
 -10 523 l 1,39,-1
 -10 472 l 1,40,41
 1 475 1 475 10 475 c 0,42,43
 28 475 28 475 43 468 c 2,44,-1
 54 463 l 1,45,-1
 48 453 l 2,46,47
 2 383 2 383 2 292 c 2,48,-1
 2 67 l 1,49,-1
 67 67 l 1,50,-1
 67 217 l 1,51,-1
 239 217 l 1,52,-1
 239 70 l 1,53,-1
 304 70 l 1,54,-1
 304 292 l 2,55,56
 304 391 304 391 253 461 c 2,57,-1
 246 470 l 1,58,-1
 256 476 l 2,59,60
 277 487 277 487 290.5 508.5 c 128,-1,61
 304 530 304 530 304 556 c 0,62,63
 304 604 304 604 252 646 c 1,64,-1
 214 609 l 1,65,66
 239 591 239 591 239 556 c 0,35,36
EndSplineSet
EndChar

StartChar: acute
Encoding: 180 180 121
Width: 273
GlyphClass: 2
Flags: W
LayerCount: 2
Fore
SplineSet
195 781 m 0,0,1
 179 781 179 781 168 770 c 2,2,-1
 55 657 l 2,3,4
 46 646 46 646 46 631 c 0,5,6
 46 614 46 614 57 603 c 128,-1,7
 68 592 68 592 85 592 c 0,8,9
 101 592 101 592 111 602 c 2,10,-1
 223 715 l 2,11,12
 234 726 234 726 234 741 c 0,13,14
 234 758 234 758 223 769.5 c 128,-1,15
 212 781 212 781 195 781 c 0,0,1
EndSplineSet
EndChar

StartChar: acutecomb
Encoding: 769 769 122
Width: 0
GlyphClass: 4
Flags: W
LayerCount: 2
Fore
SplineSet
-64 819 m 0,0,1
 -80 819 -80 819 -91 808 c 2,2,-1
 -204 695 l 2,3,4
 -213 684 -213 684 -213 669 c 128,-1,5
 -213 654 -213 654 -201 642 c 128,-1,6
 -189 630 -189 630 -174 630 c 0,7,8
 -158 630 -158 630 -148 640 c 2,9,-1
 -36 753 l 2,10,11
 -25 764 -25 764 -25 779 c 0,12,13
 -25 796 -25 796 -36 807.5 c 128,-1,14
 -47 819 -47 819 -64 819 c 0,0,1
EndSplineSet
EndChar

StartChar: adieresis
Encoding: 228 228 123
Width: 310
GlyphClass: 2
Flags: W
LayerCount: 2
Fore
SplineSet
230 741 m 0,0,1
 230 754 230 754 220 764 c 128,-1,2
 210 774 210 774 197 774 c 0,3,4
 183 774 183 774 173.5 764.5 c 128,-1,5
 164 755 164 755 164 741 c 0,6,7
 164 726 164 726 173 717 c 128,-1,8
 182 708 182 708 197 708 c 0,9,10
 211 708 211 708 220.5 717.5 c 128,-1,11
 230 727 230 727 230 741 c 0,0,1
105 741 m 0,12,13
 105 754 105 754 95 764 c 128,-1,14
 85 774 85 774 71.5 774 c 128,-1,15
 58 774 58 774 48.5 764 c 128,-1,16
 39 754 39 754 39 741 c 0,17,18
 39 727 39 727 48 717.5 c 128,-1,19
 57 708 57 708 72 708 c 0,20,21
 85 708 85 708 95 717.5 c 128,-1,22
 105 727 105 727 105 741 c 0,12,13
239 267 m 1,23,-1
 67 267 l 1,24,25
 67 285 67 285 67 285 c 2,26,27
 67 366 67 366 95 416 c 0,28,29
 120 467 120 467 152 467 c 0,30,31
 183 467 183 467 211 416 c 0,32,33
 239 366 239 366 239 285 c 0,34,35
 239 267 239 267 239 267 c 1,23,-1
239 556 m 0,36,37
 239 543 239 543 232 533 c 128,-1,38
 225 523 225 523 213 523 c 2,39,-1
 -10 523 l 1,40,-1
 -10 472 l 1,41,42
 1 475 1 475 10 475 c 0,43,44
 28 475 28 475 43 468 c 2,45,-1
 54 463 l 1,46,-1
 48 453 l 2,47,48
 2 383 2 383 2 292 c 2,49,-1
 2 67 l 1,50,-1
 67 67 l 1,51,-1
 67 217 l 1,52,-1
 239 217 l 1,53,-1
 239 70 l 1,54,-1
 304 70 l 1,55,-1
 304 292 l 2,56,57
 304 391 304 391 253 461 c 2,58,-1
 246 470 l 1,59,-1
 256 476 l 2,60,61
 277 487 277 487 290.5 508.5 c 128,-1,62
 304 530 304 530 304 556 c 0,63,64
 304 604 304 604 252 646 c 1,65,-1
 214 609 l 1,66,67
 239 591 239 591 239 556 c 0,36,37
EndSplineSet
EndChar

StartChar: ae
Encoding: 230 230 124
Width: 510
GlyphClass: 2
Flags: W
LayerCount: 2
Fore
SplineSet
324 279 m 1,0,1
 333 274 333 274 341 271 c 1,2,3
 333 268 333 268 324 263 c 1,4,-1
 324 279 l 1,0,1
269 466 m 2,5,-1
 347 466 l 1,6,7
 327 457 327 457 304 436 c 2,8,-1
 290 422 l 1,9,10
 277 446 277 446 262 464 c 1,11,12
 264 464 264 464 265.5 465 c 128,-1,13
 267 466 267 466 269 466 c 2,5,-1
12 277 m 2,14,-1
 12 54 l 1,15,-1
 67 54 l 1,16,-1
 67 204 l 1,17,-1
 269 204 l 1,18,-1
 269 57 l 1,19,-1
 324 57 l 1,20,-1
 324 86 l 1,21,22
 361 61 361 61 413 61 c 0,23,24
 419 61 419 61 421 90 c 1,25,-1
 420 96 l 2,26,27
 420 102 420 102 418 108.5 c 128,-1,28
 416 115 416 115 413 115 c 0,29,30
 384 115 384 115 358.5 126 c 128,-1,31
 333 137 333 137 324 156 c 1,32,-1
 324 201 l 1,33,34
 333 222 333 222 358 235 c 128,-1,35
 383 248 383 248 412 248 c 1,36,-1
 412 295 l 1,37,38
 375 295 375 295 347 314.5 c 128,-1,39
 319 334 319 334 319 365 c 0,40,41
 319 385 319 385 335 398 c 128,-1,42
 351 411 351 411 373 411 c 0,43,44
 388 411 388 411 400 405 c 128,-1,45
 412 399 412 399 412 388 c 0,46,47
 412 378 412 378 405 371.5 c 128,-1,48
 398 365 398 365 388 365 c 1,49,-1
 388 326 l 1,50,51
 417 329 417 329 438 345.5 c 128,-1,52
 459 362 459 362 459 388 c 0,53,54
 459 427 459 427 435 451 c 0,55,56
 427 459 427 459 413 466 c 1,57,-1
 417 466 l 2,58,59
 452 466 452 466 477.5 492 c 128,-1,60
 503 518 503 518 503 552 c 0,61,62
 503 597 503 597 456 638 c 1,63,-1
 425 607 l 1,64,65
 456 582 456 582 456 552 c 0,66,67
 456 536 456 536 444.5 524.5 c 128,-1,68
 433 513 433 513 417 513 c 0,69,70
 0 513 0 513 0 513 c 1,71,-1
 0 464 l 1,72,-1
 74 464 l 1,73,74
 12 390 12 390 12 277 c 2,14,-1
67 277 m 2,75,76
 67 346 67 346 93.5 405 c 128,-1,77
 120 464 120 464 168 464 c 128,-1,78
 216 464 216 464 242.5 405 c 128,-1,79
 269 346 269 346 269 277 c 2,80,-1
 269 254 l 1,81,-1
 67 254 l 1,82,-1
 67 277 l 2,75,76
EndSplineSet
EndChar

StartChar: amacron
Encoding: 257 257 126
Width: 310
GlyphClass: 2
Flags: W
LayerCount: 2
Fore
SplineSet
235 654 m 2,0,1
 247 654 247 654 255 664.5 c 128,-1,2
 263 675 263 675 263 690 c 128,-1,3
 263 705 263 705 255 715.5 c 128,-1,4
 247 726 247 726 235 726 c 2,5,-1
 54 726 l 2,6,7
 42 726 42 726 34.5 716 c 128,-1,8
 27 706 27 706 27 690 c 128,-1,9
 27 674 27 674 34.5 664 c 128,-1,10
 42 654 42 654 54 654 c 2,11,-1
 235 654 l 2,0,1
239 267 m 1,12,-1
 67 267 l 1,13,14
 67 285 67 285 67 285 c 2,15,16
 67 366 67 366 95 416 c 0,17,18
 120 467 120 467 152 467 c 0,19,20
 183 467 183 467 211 416 c 0,21,22
 239 366 239 366 239 285 c 0,23,24
 239 267 239 267 239 267 c 1,12,-1
239 556 m 0,25,26
 239 543 239 543 232 533 c 128,-1,27
 225 523 225 523 213 523 c 2,28,-1
 -10 523 l 1,29,-1
 -10 472 l 1,30,31
 1 475 1 475 10 475 c 0,32,33
 28 475 28 475 43 468 c 2,34,-1
 54 463 l 1,35,-1
 48 453 l 2,36,37
 2 383 2 383 2 292 c 2,38,-1
 2 67 l 1,39,-1
 67 67 l 1,40,-1
 67 217 l 1,41,-1
 239 217 l 1,42,-1
 239 70 l 1,43,-1
 304 70 l 1,44,-1
 304 292 l 2,45,46
 304 391 304 391 253 461 c 2,47,-1
 246 470 l 1,48,-1
 256 476 l 2,49,50
 277 487 277 487 290.5 508.5 c 128,-1,51
 304 530 304 530 304 556 c 0,52,53
 304 604 304 604 252 646 c 1,54,-1
 214 609 l 1,55,56
 239 591 239 591 239 556 c 0,25,26
EndSplineSet
EndChar

StartChar: ampersand
Encoding: 38 38 127
Width: 761
GlyphClass: 2
Flags: W
LayerCount: 2
Fore
SplineSet
345 732 m 0,0,1
 380 732 380 732 403 700.5 c 128,-1,2
 426 669 426 669 426 628 c 0,3,4
 426 547 426 547 322 484 c 1,5,6
 281 538 281 538 264 572 c 0,7,8
 244 612 244 612 244 637 c 0,9,10
 244 676 244 676 274.5 704 c 128,-1,11
 305 732 305 732 345 732 c 0,0,1
166 234 m 0,12,13
 166 276 166 276 203 320 c 0,14,15
 241 365 241 365 304 402 c 1,16,-1
 474 190 l 1,17,18
 405 95 405 95 316 95 c 0,19,20
 256 95 256 95 211 135.5 c 128,-1,21
 166 176 166 176 166 234 c 0,12,13
502 139 m 1,22,-1
 582 45 l 1,23,-1
 662 45 l 1,24,-1
 545 199 l 1,25,26
 579 258 579 258 579 364 c 1,27,-1
 522 364 l 1,28,29
 522 320 522 320 505 250 c 1,30,-1
 360 439 l 1,31,32
 422 475 422 475 458 526 c 128,-1,33
 494 577 494 577 494 628 c 0,34,35
 494 695 494 695 448 741 c 0,36,37
 401 788 401 788 338 788 c 128,-1,38
 275 788 275 788 226 747.5 c 128,-1,39
 177 707 177 707 177 648 c 0,40,41
 177 609 177 609 201 558 c 128,-1,42
 225 507 225 507 272 448 c 1,43,44
 192 401 192 401 146 342 c 128,-1,45
 100 283 100 283 100 224 c 0,46,47
 100 148 100 148 160 92 c 0,48,49
 219 37 219 37 305 37 c 0,50,51
 368 37 368 37 420 65.5 c 128,-1,52
 472 94 472 94 502 139 c 1,22,-1
EndSplineSet
EndChar

StartChar: aogonek
Encoding: 261 261 128
Width: 344
GlyphClass: 2
Flags: W
LayerCount: 2
Fore
SplineSet
310 -59 m 0,0,1
 301 -59 301 -59 292 -65 c 2,2,-1
 265 -85 l 2,3,4
 258 -90 258 -90 248 -90 c 0,5,6
 235 -90 235 -90 226 -81 c 128,-1,7
 217 -72 217 -72 217 -59 c 0,8,9
 217 -45 217 -45 230 -33 c 0,10,11
 256 -14 256 -14 267 1 c 0,12,13
 279 18 279 18 279 35 c 0,14,15
 277 65 277 65 248 65 c 0,16,17
 230 65 230 65 221 49 c 0,18,19
 214 35 214 35 194 18 c 0,20,21
 154 -14 154 -14 154 -59 c 0,22,23
 154 -85 154 -85 167 -106 c 0,24,25
 196 -153 196 -153 248 -153 c 0,26,27
 275 -153 275 -153 299 -136 c 2,28,-1
 331 -115 l 2,29,30
 342 -105 342 -105 342 -90 c 0,31,32
 342 -77 342 -77 333 -68 c 128,-1,33
 324 -59 324 -59 310 -59 c 0,0,1
239 267 m 1,34,-1
 67 267 l 1,35,36
 67 285 67 285 67 285 c 2,37,38
 67 366 67 366 95 416 c 0,39,40
 120 467 120 467 152 467 c 0,41,42
 183 467 183 467 211 416 c 0,43,44
 239 366 239 366 239 285 c 0,45,46
 239 267 239 267 239 267 c 1,34,-1
239 556 m 0,47,48
 239 543 239 543 232 533 c 128,-1,49
 225 523 225 523 213 523 c 2,50,-1
 -10 523 l 1,51,-1
 -10 472 l 1,52,53
 1 475 1 475 10 475 c 0,54,55
 28 475 28 475 43 468 c 2,56,-1
 54 463 l 1,57,-1
 48 453 l 2,58,59
 2 383 2 383 2 292 c 2,60,-1
 2 67 l 1,61,-1
 67 67 l 1,62,-1
 67 217 l 1,63,-1
 239 217 l 1,64,-1
 239 70 l 1,65,-1
 304 70 l 1,66,-1
 304 292 l 2,67,68
 304 391 304 391 253 461 c 2,69,-1
 246 470 l 1,70,-1
 256 476 l 2,71,72
 277 487 277 487 290.5 508.5 c 128,-1,73
 304 530 304 530 304 556 c 0,74,75
 304 604 304 604 252 646 c 1,76,-1
 214 609 l 1,77,78
 239 591 239 591 239 556 c 0,47,48
EndSplineSet
EndChar

StartChar: approxequal
Encoding: 8776 8776 129
Width: 661
GlyphClass: 2
Flags: W
LayerCount: 2
Fore
SplineSet
212 344 m 0,0,1
 277 344 277 344 322 304 c 0,2,3
 363 266 363 266 429 266 c 0,4,5
 479 266 479 266 522 286.5 c 128,-1,6
 565 307 565 307 592 340 c 1,7,-1
 555 382 l 1,8,9
 504 322 504 322 429 322 c 0,10,11
 410 322 410 322 380 336 c 0,12,13
 355 348 355 348 322 376 c 0,14,15
 282 407 282 407 211 407 c 0,16,17
 138 407 138 407 70 349 c 1,18,-1
 106 304 l 1,19,20
 153 344 153 344 212 344 c 0,0,1
212 222 m 0,21,22
 277 222 277 222 322 182 c 0,23,24
 363 144 363 144 429 144 c 0,25,26
 479 144 479 144 522 164.5 c 128,-1,27
 565 185 565 185 592 218 c 1,28,-1
 555 260 l 1,29,30
 504 200 504 200 429 200 c 0,31,32
 410 200 410 200 380 214 c 0,33,34
 355 226 355 226 322 254 c 0,35,36
 282 285 282 285 211 285 c 0,37,38
 138 285 138 285 70 227 c 1,39,-1
 106 182 l 1,40,41
 153 222 153 222 212 222 c 0,21,22
EndSplineSet
EndChar

StartChar: asciicircum
Encoding: 94 94 131
Width: 671
GlyphClass: 2
Flags: W
LayerCount: 2
Fore
SplineSet
290 481 m 1,0,-1
 100 138 l 1,1,-1
 178 138 l 1,2,-1
 336 423 l 1,3,-1
 493 138 l 1,4,-1
 571 138 l 1,5,-1
 377 481 l 1,6,-1
 290 481 l 1,0,-1
EndSplineSet
EndChar

StartChar: asciitilde
Encoding: 126 126 132
Width: 721
GlyphClass: 2
Flags: W
LayerCount: 2
Fore
SplineSet
242 344 m 0,0,1
 307 344 307 344 352 304 c 0,2,3
 393 266 393 266 459 266 c 0,4,5
 509 266 509 266 552 286.5 c 128,-1,6
 595 307 595 307 622 340 c 1,7,-1
 585 382 l 1,8,9
 534 322 534 322 459 322 c 0,10,11
 440 322 440 322 410 336 c 0,12,13
 385 348 385 348 352 376 c 0,14,15
 312 407 312 407 241 407 c 0,16,17
 168 407 168 407 100 349 c 1,18,-1
 136 304 l 1,19,20
 183 344 183 344 242 344 c 0,0,1
EndSplineSet
EndChar

StartChar: asterisk
Encoding: 42 42 133
Width: 559
GlyphClass: 2
Flags: W
LayerCount: 2
Fore
SplineSet
210 420 m 1,0,-1
 290 567 l 1,1,-1
 356 420 l 1,2,-1
 430 460 l 1,3,-1
 316 567 l 1,4,-1
 470 567 l 1,5,-1
 470 640 l 1,6,-1
 316 620 l 1,7,-1
 396 727 l 1,8,-1
 330 760 l 1,9,-1
 276 647 l 1,10,-1
 230 760 l 1,11,-1
 157 727 l 1,12,-1
 243 620 l 1,13,-1
 90 620 l 1,14,-1
 90 554 l 1,15,-1
 250 580 l 1,16,-1
 150 460 l 1,17,-1
 210 420 l 1,0,-1
EndSplineSet
EndChar

StartChar: at
Encoding: 64 64 134
Width: 1043
GlyphClass: 2
Flags: W
LayerCount: 2
Fore
SplineSet
382 320 m 0,0,1
 382 374 382 374 416.5 413.5 c 128,-1,2
 451 453 451 453 502 453 c 128,-1,3
 553 453 553 453 587.5 413.5 c 128,-1,4
 622 374 622 374 622 320 c 0,5,6
 622 265 622 265 587.5 225 c 128,-1,7
 553 185 553 185 502 185 c 128,-1,8
 451 185 451 185 416.5 225 c 128,-1,9
 382 265 382 265 382 320 c 0,0,1
502 119 m 0,10,11
 542 119 542 119 575 136.5 c 128,-1,12
 608 154 608 154 625 182 c 1,13,14
 631 144 631 144 666.5 119.5 c 128,-1,15
 702 95 702 95 748 95 c 0,16,17
 830 95 830 95 887 168 c 0,18,19
 944 242 944 242 944 344 c 0,20,21
 944 501 944 501 824 612 c 128,-1,22
 704 723 704 723 535 723 c 0,23,24
 356 723 356 723 228 603 c 128,-1,25
 100 483 100 483 100 314 c 0,26,27
 100 157 100 157 228 46 c 0,28,29
 354 -64 354 -64 535 -64 c 0,30,31
 667 -64 667 -64 772 8 c 1,32,-1
 740 63 l 1,33,34
 659 0 659 0 535 0 c 0,35,36
 382 0 382 0 272 92 c 128,-1,37
 162 184 162 184 162 314 c 0,38,39
 162 458 162 458 272 560 c 128,-1,40
 382 662 382 662 535 662 c 0,41,42
 677 662 677 662 779 568 c 0,43,44
 880 475 880 475 880 344 c 0,45,46
 880 265 880 265 842 212 c 0,47,48
 803 158 803 158 748 158 c 0,49,50
 725 158 725 158 706.5 173 c 128,-1,51
 688 188 688 188 688 208 c 2,52,-1
 688 505 l 1,53,-1
 622 505 l 1,54,-1
 622 457 l 1,55,56
 575 511 575 511 502 511 c 0,57,58
 425 511 425 511 371 454 c 128,-1,59
 317 397 317 397 317 320 c 0,60,61
 317 238 317 238 370 178.5 c 128,-1,62
 423 119 423 119 502 119 c 0,10,11
EndSplineSet
EndChar

StartChar: atilde
Encoding: 227 227 135
Width: 310
GlyphClass: 2
Flags: W
LayerCount: 2
Fore
SplineSet
235 697 m 0,0,1
 228 697 228 697 217 686 c 0,2,3
 207 674 207 674 188 674 c 0,4,5
 178 674 178 674 171 678 c 0,6,7
 166 680 166 680 151 689.5 c 128,-1,8
 136 699 136 699 123.5 703.5 c 128,-1,9
 111 708 111 708 96 708 c 0,10,11
 52 708 52 708 19 668 c 0,12,13
 15 663 15 663 15 655 c 256,14,15
 15 647 15 647 21 641.5 c 128,-1,16
 27 636 27 636 35 636 c 0,17,18
 47 636 47 636 55 647 c 0,19,20
 72 668 72 668 94 668 c 0,21,22
 110 668 110 668 130 654 c 0,23,24
 162 634 162 634 189 634 c 0,25,26
 228 634 228 634 252 664 c 0,27,28
 256 669 256 669 256 676 c 0,29,30
 256 684 256 684 250 690.5 c 128,-1,31
 244 697 244 697 235 697 c 0,0,1
239 267 m 1,32,-1
 67 267 l 1,33,34
 67 285 67 285 67 285 c 2,35,36
 67 366 67 366 95 416 c 0,37,38
 120 467 120 467 152 467 c 0,39,40
 183 467 183 467 211 416 c 0,41,42
 239 366 239 366 239 285 c 0,43,44
 239 267 239 267 239 267 c 1,32,-1
239 556 m 0,45,46
 239 543 239 543 232 533 c 128,-1,47
 225 523 225 523 213 523 c 2,48,-1
 -10 523 l 1,49,-1
 -10 472 l 1,50,51
 1 475 1 475 10 475 c 0,52,53
 28 475 28 475 43 468 c 2,54,-1
 54 463 l 1,55,-1
 48 453 l 2,56,57
 2 383 2 383 2 292 c 2,58,-1
 2 67 l 1,59,-1
 67 67 l 1,60,-1
 67 217 l 1,61,-1
 239 217 l 1,62,-1
 239 70 l 1,63,-1
 304 70 l 1,64,-1
 304 292 l 2,65,66
 304 391 304 391 253 461 c 2,67,-1
 246 470 l 1,68,-1
 256 476 l 2,69,70
 277 487 277 487 290.5 508.5 c 128,-1,71
 304 530 304 530 304 556 c 0,72,73
 304 604 304 604 252 646 c 1,74,-1
 214 609 l 1,75,76
 239 591 239 591 239 556 c 0,45,46
EndSplineSet
EndChar

StartChar: b
Encoding: 98 98 136
Width: 299
GlyphClass: 2
Flags: W
LayerCount: 2
Fore
SplineSet
174 595 m 1,0,1
 208 567 208 567 208 541 c 0,2,3
 208 527 208 527 198.5 517 c 128,-1,4
 189 507 189 507 174 507 c 2,5,-1
 173 507 l 2,6,7
 169 506 169 506 162 503.5 c 128,-1,8
 155 501 155 501 152 500 c 0,9,10
 115 498 115 498 92 482.5 c 128,-1,11
 69 467 69 467 41 434 c 0,12,13
 9 396 9 396 -10 365 c 1,14,-1
 -10 41 l 1,15,-1
 37 41 l 1,16,-1
 37 107 l 1,17,-1
 54 89 l 2,18,19
 100 41 100 41 163 41 c 0,20,21
 212 41 212 41 246.5 80.5 c 128,-1,22
 281 120 281 120 281 172 c 0,23,24
 281 232 281 232 243 263 c 2,25,-1
 234 270 l 1,26,-1
 243 278 l 2,27,28
 281 311 281 311 281 369 c 0,29,30
 281 425 281 425 234 472 c 1,31,32
 264 504 264 504 264 541 c 0,33,34
 264 593 264 593 213 634 c 1,35,-1
 174 595 l 1,0,1
163 129 m 0,36,37
 109 129 109 129 73 176.5 c 128,-1,38
 37 224 37 224 37 285 c 128,-1,39
 37 346 37 346 71 394 c 128,-1,40
 105 442 105 442 157 442 c 0,41,42
 185 442 185 442 206 425.5 c 128,-1,43
 227 409 227 409 227 384 c 0,44,45
 227 357 227 357 208.5 337 c 128,-1,46
 190 317 190 317 163 317 c 2,47,-1
 158 317 l 1,48,-1
 158 254 l 1,49,-1
 163 254 l 2,50,51
 189 254 189 254 208 234 c 128,-1,52
 227 214 227 214 227 187 c 0,53,54
 227 162 227 162 208.5 145.5 c 128,-1,55
 190 129 190 129 163 129 c 0,36,37
EndSplineSet
EndChar

StartChar: backslash
Encoding: 92 92 137
Width: 605
GlyphClass: 2
Flags: W
LayerCount: 2
Fore
SplineSet
506 -129 m 1,0,-1
 168 812 l 1,1,-1
 100 812 l 1,2,-1
 438 -129 l 1,3,-1
 506 -129 l 1,0,-1
EndSplineSet
EndChar

StartChar: bar
Encoding: 124 124 138
Width: 266
GlyphClass: 2
Flags: W
LayerCount: 2
Fore
SplineSet
100 -183 m 1,0,-1
 166 -183 l 1,1,-1
 166 999 l 1,2,-1
 100 999 l 1,3,-1
 100 -183 l 1,0,-1
EndSplineSet
EndChar

StartChar: braceleft
Encoding: 123 123 139
Width: 484
GlyphClass: 2
Flags: W
LayerCount: 2
Fore
SplineSet
201 162 m 2,0,-1
 201 32 l 2,1,2
 201 -62 201 -62 255 -128 c 128,-1,3
 309 -194 309 -194 385 -194 c 1,4,-1
 385 -141 l 1,5,6
 336 -141 336 -141 300 -90 c 0,7,8
 265 -40 265 -40 265 32 c 2,9,-1
 265 162 l 2,10,11
 265 209 265 209 242 246 c 128,-1,12
 219 283 219 283 182 296 c 1,13,14
 218 309 218 309 241.5 344.5 c 128,-1,15
 265 380 265 380 265 426 c 2,16,-1
 265 558 l 2,17,18
 265 630 265 630 300 680 c 0,19,20
 336 731 336 731 385 731 c 1,21,-1
 385 783 l 1,22,23
 309 783 309 783 255 717 c 128,-1,24
 201 651 201 651 201 558 c 2,25,-1
 201 426 l 2,26,27
 201 381 201 381 171.5 345.5 c 128,-1,28
 142 310 142 310 100 310 c 1,29,-1
 100 274 l 1,30,31
 143 274 143 274 172 240.5 c 128,-1,32
 201 207 201 207 201 162 c 2,0,-1
EndSplineSet
EndChar

StartChar: braceright
Encoding: 125 125 140
Width: 486
GlyphClass: 2
Flags: W
LayerCount: 2
Fore
SplineSet
285 461 m 2,0,-1
 285 593 l 2,1,2
 285 686 285 686 231 752 c 128,-1,3
 177 818 177 818 100 818 c 1,4,-1
 100 766 l 1,5,6
 150 766 150 766 186 715 c 0,7,8
 221 665 221 665 221 593 c 2,9,-1
 221 461 l 2,10,11
 221 413 221 413 245 376 c 128,-1,12
 269 339 269 339 306 326 c 1,13,14
 269 313 269 313 245 278 c 128,-1,15
 221 243 221 243 221 197 c 2,16,-1
 221 67 l 2,17,18
 221 -6 221 -6 186 -56 c 0,19,20
 150 -107 150 -107 100 -107 c 1,21,-1
 100 -160 l 1,22,23
 177 -160 177 -160 231 -94 c 128,-1,24
 285 -28 285 -28 285 67 c 2,25,-1
 285 197 l 2,26,27
 285 241 285 241 314.5 275 c 128,-1,28
 344 309 344 309 386 309 c 1,29,-1
 386 345 l 1,30,31
 344 345 344 345 314.5 380 c 128,-1,32
 285 415 285 415 285 461 c 2,0,-1
EndSplineSet
EndChar

StartChar: bracketleft
Encoding: 91 91 141
Width: 392
GlyphClass: 2
Flags: W
LayerCount: 2
Fore
SplineSet
100 -266 m 1,0,-1
 293 -266 l 1,1,-1
 293 -193 l 1,2,-1
 166 -193 l 1,3,-1
 166 872 l 1,4,-1
 293 872 l 1,5,-1
 293 945 l 1,6,-1
 100 945 l 1,7,-1
 100 -266 l 1,0,-1
EndSplineSet
EndChar

StartChar: bracketright
Encoding: 93 93 142
Width: 392
GlyphClass: 2
Flags: W
LayerCount: 2
Fore
SplineSet
100 -266 m 1,0,-1
 293 -266 l 1,1,-1
 293 945 l 1,2,-1
 100 945 l 1,3,-1
 100 872 l 1,4,-1
 220 872 l 1,5,-1
 220 -193 l 1,6,-1
 100 -193 l 1,7,-1
 100 -266 l 1,0,-1
EndSplineSet
EndChar

StartChar: brokenbar
Encoding: 166 166 144
Width: 227
GlyphClass: 2
Flags: W
LayerCount: 2
Fore
SplineSet
70 346 m 1,0,-1
 67 58 l 1,1,-1
 138 58 l 1,2,-1
 138 346 l 1,3,-1
 70 346 l 1,0,-1
139 453 m 1,4,-1
 139 728 l 1,5,-1
 61 728 l 1,6,-1
 61 453 l 1,7,-1
 139 453 l 1,4,-1
EndSplineSet
EndChar

StartChar: bullet
Encoding: 8226 8226 145
Width: 147
GlyphClass: 2
Flags: W
LayerCount: 2
Fore
SplineSet
11 504 m 0,0,1
 11 479 11 479 27 464 c 128,-1,2
 43 449 43 449 67 449 c 0,3,4
 86 449 86 449 101.5 464.5 c 128,-1,5
 117 480 117 480 117 500 c 0,6,7
 117 525 117 525 101 540 c 128,-1,8
 85 555 85 555 61 555 c 0,9,10
 42 555 42 555 26.5 539.5 c 128,-1,11
 11 524 11 524 11 504 c 0,0,1
EndSplineSet
EndChar

StartChar: c
Encoding: 99 99 146
Width: 372
GlyphClass: 2
Flags: W
LayerCount: 2
Fore
SplineSet
198 136 m 0,0,1
 141 136 141 136 107 176 c 0,2,3
 68 216 68 216 68 282 c 0,4,5
 68 343 68 343 103.5 383.5 c 128,-1,6
 139 424 139 424 198 424 c 0,7,8
 209 424 209 424 227 422 c 1,9,-1
 212 406 l 2,10,11
 190 382 190 382 190 346 c 128,-1,12
 190 310 190 310 212 284.5 c 128,-1,13
 234 259 234 259 269 259 c 128,-1,14
 304 259 304 259 328 284.5 c 128,-1,15
 352 310 352 310 352 346 c 0,16,17
 352 403 352 403 304 445 c 0,18,19
 301 449 301 449 278 466 c 1,20,-1
 299 471 l 2,21,22
 328 478 328 478 347.5 501.5 c 128,-1,23
 367 525 367 525 367 556 c 0,24,25
 367 605 367 605 315 645 c 1,26,-1
 277 608 l 1,27,28
 310 583 310 583 310 556 c 0,29,30
 310 541 310 541 300 532 c 128,-1,31
 290 523 290 523 276 523 c 2,32,-1
 -13 523 l 1,33,-1
 -13 468 l 1,34,-1
 109 468 l 1,35,36
 68 439 68 439 59 430 c 0,37,38
 3 374 3 374 3 282 c 0,39,40
 3 187 3 187 59 130 c 0,41,42
 116 72 116 72 198 72 c 0,43,44
 249 72 249 72 290.5 103 c 128,-1,45
 332 134 332 134 353 180 c 1,46,-1
 298 216 l 1,47,48
 260 136 260 136 198 136 c 0,0,1
243 340 m 0,49,50
 243 366 243 366 269 366 c 0,51,52
 280 366 280 366 287.5 358.5 c 128,-1,53
 295 351 295 351 295 340 c 128,-1,54
 295 329 295 329 287.5 321 c 128,-1,55
 280 313 280 313 269 313 c 0,56,57
 243 313 243 313 243 340 c 0,49,50
EndSplineSet
EndChar

StartChar: cacute
Encoding: 263 263 147
Width: 372
GlyphClass: 2
Flags: W
LayerCount: 2
Fore
SplineSet
193 721 m 256,0,1
 180 721 180 721 171 712 c 2,2,-1
 81 622 l 2,3,4
 74 613 74 613 74 601 c 128,-1,5
 74 589 74 589 83.5 579.5 c 128,-1,6
 93 570 93 570 105 570 c 0,7,8
 118 570 118 570 126 578 c 2,9,-1
 215 668 l 2,10,11
 224 677 224 677 224 689 c 0,12,13
 224 703 224 703 215 712 c 128,-1,14
 206 721 206 721 193 721 c 256,0,1
198 136 m 0,15,16
 141 136 141 136 107 176 c 0,17,18
 68 216 68 216 68 282 c 0,19,20
 68 343 68 343 103.5 383.5 c 128,-1,21
 139 424 139 424 198 424 c 0,22,23
 209 424 209 424 227 422 c 1,24,-1
 212 406 l 2,25,26
 190 382 190 382 190 346 c 128,-1,27
 190 310 190 310 212 284.5 c 128,-1,28
 234 259 234 259 269 259 c 128,-1,29
 304 259 304 259 328 284.5 c 128,-1,30
 352 310 352 310 352 346 c 0,31,32
 352 403 352 403 304 445 c 0,33,34
 301 449 301 449 278 466 c 1,35,-1
 299 471 l 2,36,37
 328 478 328 478 347.5 501.5 c 128,-1,38
 367 525 367 525 367 556 c 0,39,40
 367 605 367 605 315 645 c 1,41,-1
 277 608 l 1,42,43
 310 583 310 583 310 556 c 0,44,45
 310 541 310 541 300 532 c 128,-1,46
 290 523 290 523 276 523 c 2,47,-1
 -13 523 l 1,48,-1
 -13 468 l 1,49,-1
 109 468 l 1,50,51
 68 439 68 439 59 430 c 0,52,53
 3 374 3 374 3 282 c 0,54,55
 3 187 3 187 59 130 c 0,56,57
 116 72 116 72 198 72 c 0,58,59
 249 72 249 72 290.5 103 c 128,-1,60
 332 134 332 134 353 180 c 1,61,-1
 298 216 l 1,62,63
 260 136 260 136 198 136 c 0,15,16
243 340 m 0,64,65
 243 366 243 366 269 366 c 0,66,67
 280 366 280 366 287.5 358.5 c 128,-1,68
 295 351 295 351 295 340 c 128,-1,69
 295 329 295 329 287.5 321 c 128,-1,70
 280 313 280 313 269 313 c 0,71,72
 243 313 243 313 243 340 c 0,64,65
EndSplineSet
EndChar

StartChar: caron
Encoding: 711 711 148
Width: 412
GlyphClass: 2
Flags: W
LayerCount: 2
Fore
SplineSet
336 755 m 0,0,1
 336 767 336 767 328 776 c 128,-1,2
 320 785 320 785 306 785 c 128,-1,3
 292 785 292 785 273 772 c 2,4,-1
 180 710 l 1,5,-1
 87 773 l 2,6,7
 70 784 70 784 56 784 c 0,8,9
 41 784 41 784 32.5 776 c 128,-1,10
 24 768 24 768 24 755 c 0,11,12
 24 735 24 735 43 722 c 2,13,-1
 161 644 l 2,14,15
 168 639 168 639 180 639 c 128,-1,16
 192 639 192 639 200 644 c 2,17,-1
 317 722 l 2,18,19
 336 735 336 735 336 755 c 0,0,1
EndSplineSet
EndChar

StartChar: ccaron
Encoding: 269 269 149
Width: 372
GlyphClass: 2
Flags: W
LayerCount: 2
Fore
SplineSet
153 578 m 1,0,-1
 192 578 l 1,1,-1
 279 731 l 1,2,-1
 244 731 l 1,3,-1
 174 604 l 1,4,-1
 103 731 l 1,5,-1
 68 731 l 1,6,-1
 153 578 l 1,0,-1
198 136 m 0,7,8
 141 136 141 136 107 176 c 0,9,10
 68 216 68 216 68 282 c 0,11,12
 68 343 68 343 103.5 383.5 c 128,-1,13
 139 424 139 424 198 424 c 0,14,15
 209 424 209 424 227 422 c 1,16,-1
 212 406 l 2,17,18
 190 382 190 382 190 346 c 128,-1,19
 190 310 190 310 212 284.5 c 128,-1,20
 234 259 234 259 269 259 c 128,-1,21
 304 259 304 259 328 284.5 c 128,-1,22
 352 310 352 310 352 346 c 0,23,24
 352 403 352 403 304 445 c 0,25,26
 301 449 301 449 278 466 c 1,27,-1
 299 471 l 2,28,29
 328 478 328 478 347.5 501.5 c 128,-1,30
 367 525 367 525 367 556 c 0,31,32
 367 605 367 605 315 645 c 1,33,-1
 277 608 l 1,34,35
 310 583 310 583 310 556 c 0,36,37
 310 541 310 541 300 532 c 128,-1,38
 290 523 290 523 276 523 c 2,39,-1
 -13 523 l 1,40,-1
 -13 468 l 1,41,-1
 109 468 l 1,42,43
 68 439 68 439 59 430 c 0,44,45
 3 374 3 374 3 282 c 0,46,47
 3 187 3 187 59 130 c 0,48,49
 116 72 116 72 198 72 c 0,50,51
 249 72 249 72 290.5 103 c 128,-1,52
 332 134 332 134 353 180 c 1,53,-1
 298 216 l 1,54,55
 260 136 260 136 198 136 c 0,7,8
243 340 m 0,56,57
 243 366 243 366 269 366 c 0,58,59
 280 366 280 366 287.5 358.5 c 128,-1,60
 295 351 295 351 295 340 c 128,-1,61
 295 329 295 329 287.5 321 c 128,-1,62
 280 313 280 313 269 313 c 0,63,64
 243 313 243 313 243 340 c 0,56,57
EndSplineSet
EndChar

StartChar: ccircumflex
Encoding: 265 265 151
Width: 372
GlyphClass: 2
Flags: W
LayerCount: 2
Fore
SplineSet
271 616 m 0,0,1
 271 633 271 633 256 643 c 2,2,-1
 163 706 l 2,3,4
 151 710 151 710 147 710 c 0,5,6
 138 710 138 710 131 706 c 2,7,-1
 37 643 l 2,8,9
 22 633 22 633 22 616 c 0,10,11
 22 603 22 603 31 595.5 c 128,-1,12
 40 588 40 588 54 588 c 0,13,14
 63 588 63 588 72 595 c 2,15,-1
 147 646 l 1,16,-1
 221 595 l 2,17,18
 230 588 230 588 240 588 c 0,19,20
 253 588 253 588 262 596 c 128,-1,21
 271 604 271 604 271 616 c 0,0,1
198 136 m 0,22,23
 141 136 141 136 107 176 c 0,24,25
 68 216 68 216 68 282 c 0,26,27
 68 343 68 343 103.5 383.5 c 128,-1,28
 139 424 139 424 198 424 c 0,29,30
 209 424 209 424 227 422 c 1,31,-1
 212 406 l 2,32,33
 190 382 190 382 190 346 c 128,-1,34
 190 310 190 310 212 284.5 c 128,-1,35
 234 259 234 259 269 259 c 128,-1,36
 304 259 304 259 328 284.5 c 128,-1,37
 352 310 352 310 352 346 c 0,38,39
 352 403 352 403 304 445 c 0,40,41
 301 449 301 449 278 466 c 1,42,-1
 299 471 l 2,43,44
 328 478 328 478 347.5 501.5 c 128,-1,45
 367 525 367 525 367 556 c 0,46,47
 367 605 367 605 315 645 c 1,48,-1
 277 608 l 1,49,50
 310 583 310 583 310 556 c 0,51,52
 310 541 310 541 300 532 c 128,-1,53
 290 523 290 523 276 523 c 2,54,-1
 -13 523 l 1,55,-1
 -13 468 l 1,56,-1
 109 468 l 1,57,58
 68 439 68 439 59 430 c 0,59,60
 3 374 3 374 3 282 c 0,61,62
 3 187 3 187 59 130 c 0,63,64
 116 72 116 72 198 72 c 0,65,66
 249 72 249 72 290.5 103 c 128,-1,67
 332 134 332 134 353 180 c 1,68,-1
 298 216 l 1,69,70
 260 136 260 136 198 136 c 0,22,23
243 340 m 0,71,72
 243 366 243 366 269 366 c 0,73,74
 280 366 280 366 287.5 358.5 c 128,-1,75
 295 351 295 351 295 340 c 128,-1,76
 295 329 295 329 287.5 321 c 128,-1,77
 280 313 280 313 269 313 c 0,78,79
 243 313 243 313 243 340 c 0,71,72
EndSplineSet
EndChar

StartChar: cent
Encoding: 162 162 154
Width: 412
GlyphClass: 2
Flags: W
LayerCount: 2
Fore
SplineSet
222 426 m 0,0,1
 249 426 249 426 260 419 c 1,2,-1
 249 406 l 2,3,4
 240 400 240 400 232 389 c 2,5,-1
 226 380 l 1,6,-1
 84 211 l 1,7,8
 74 238 74 238 74 274 c 0,9,10
 74 343 74 343 114.5 384.5 c 128,-1,11
 155 426 155 426 222 426 c 0,0,1
19 274 m 0,12,13
 19 210 19 210 44 164 c 1,14,-1
 -1 111 l 1,15,-1
 32 78 l 1,16,-1
 71 127 l 1,17,18
 131 67 131 67 222 67 c 0,19,20
 275 67 275 67 317 96.5 c 128,-1,21
 359 126 359 126 378 169 c 1,22,-1
 331 200 l 1,23,24
 316 167 316 167 287.5 144.5 c 128,-1,25
 259 122 259 122 222 122 c 0,26,27
 154 122 154 122 114 163 c 0,28,29
 109 168 109 168 107 171 c 2,30,-1
 221 315 l 1,31,32
 229 290 229 290 251 272 c 128,-1,33
 273 254 273 254 300 254 c 0,34,35
 332 254 332 254 355 280 c 128,-1,36
 378 306 378 306 378 340 c 0,37,38
 378 398 378 398 336 437 c 1,39,40
 360 461 360 461 360 496 c 0,41,42
 360 537 360 537 330.5 561.5 c 128,-1,43
 301 586 301 586 256 586 c 0,44,45
 246 586 246 586 241 585 c 1,46,-1
 241 540 l 1,47,48
 244 540 244 540 248.5 540.5 c 128,-1,49
 253 541 253 541 255 541 c 0,50,51
 279 541 279 541 296 529 c 128,-1,52
 313 517 313 517 313 496 c 0,53,54
 313 483 313 483 298 464 c 1,55,56
 287 470 287 470 271 475 c 0,57,58
 270 475 270 475 264.5 476 c 128,-1,59
 259 477 259 477 251.5 478 c 128,-1,60
 244 479 244 479 238 479 c 2,61,-1
 230 479 l 2,62,63
 131 479 131 479 75 424.5 c 128,-1,64
 19 370 19 370 19 274 c 0,12,13
330 340 m 0,65,66
 330 326 330 326 321 317 c 128,-1,67
 312 308 312 308 299 308 c 0,68,69
 285 308 285 308 276.5 317 c 128,-1,70
 268 326 268 326 268 340 c 128,-1,71
 268 354 268 354 277 362.5 c 128,-1,72
 286 371 286 371 299 371 c 128,-1,73
 312 371 312 371 321 362 c 128,-1,74
 330 353 330 353 330 340 c 0,65,66
EndSplineSet
EndChar

StartChar: comma
Encoding: 44 44 157
Width: 226
GlyphClass: 2
Flags: W
LayerCount: 2
Fore
SplineSet
108 102 m 0,0,1
 82 102 82 102 66 87 c 128,-1,2
 50 72 50 72 50 47 c 0,3,4
 50 23 50 23 73.5 -2.5 c 128,-1,5
 97 -28 97 -28 97 -54 c 0,6,7
 97 -74 97 -74 88 -88 c 0,8,9
 86 -92 86 -92 77 -102.5 c 128,-1,10
 68 -113 68 -113 64 -122 c 128,-1,11
 60 -131 60 -131 60 -142 c 0,12,13
 60 -150 60 -150 66 -156 c 128,-1,14
 72 -162 72 -162 81 -162 c 0,15,16
 99 -162 99 -162 115 -146 c 0,17,18
 141 -120 141 -120 158.5 -77 c 128,-1,19
 176 -34 176 -34 176 13 c 0,20,21
 176 51 176 51 158 76.5 c 128,-1,22
 140 102 140 102 108 102 c 0,0,1
EndSplineSet
EndChar

StartChar: copyright
Encoding: 169 169 158
Width: 712
GlyphClass: 2
Flags: W
LayerCount: 2
Fore
SplineSet
380 183 m 0,0,1
 432 183 432 183 474.5 212 c 128,-1,2
 517 241 517 241 536 284 c 1,3,-1
 489 316 l 1,4,5
 474 283 474 283 445.5 260.5 c 128,-1,6
 417 238 417 238 380 238 c 0,7,8
 312 238 312 238 272 279.5 c 128,-1,9
 232 321 232 321 232 390 c 128,-1,10
 232 459 232 459 272.5 500.5 c 128,-1,11
 313 542 313 542 380 542 c 0,12,13
 411 542 411 542 426 530 c 1,14,15
 404 527 404 527 390 505 c 128,-1,16
 376 483 376 483 376 456 c 0,17,18
 376 421 376 421 400 395.5 c 128,-1,19
 424 370 424 370 458 370 c 0,20,21
 490 370 490 370 513 396 c 128,-1,22
 536 422 536 422 536 456 c 0,23,24
 536 501 536 501 506.5 537 c 128,-1,25
 477 573 477 573 435 588 c 1,26,-1
 330 588 l 1,27,28
 273 571 273 571 241 538 c 0,29,30
 177 472 177 472 177 390 c 0,31,32
 177 297 177 297 232.5 240 c 128,-1,33
 288 183 288 183 380 183 c 0,0,1
489 450 m 128,-1,35
 489 437 489 437 480 428 c 128,-1,36
 471 419 471 419 458 419 c 128,-1,37
 445 419 445 419 436 428 c 128,-1,38
 427 437 427 437 427 450 c 128,-1,39
 427 463 427 463 436 472 c 128,-1,40
 445 481 445 481 458 481 c 128,-1,41
 471 481 471 481 480 472 c 128,-1,34
 489 463 489 463 489 450 c 128,-1,35
569 876 m 256,42,43
 569 914 569 914 548 951 c 0,44,45
 526 991 526 991 491 1020 c 1,46,-1
 439 968 l 1,47,48
 491 926 491 926 491 876 c 0,49,50
 491 849 491 849 472 830.5 c 128,-1,51
 453 812 453 812 426 812 c 1,52,-1
 392 802 l 1,53,-1
 392 798 l 1,54,55
 371 801 371 801 348 801 c 0,56,57
 225 801 225 801 136 693 c 0,58,59
 48 586 48 586 48 433 c 0,60,61
 48 274 48 274 136 162 c 0,62,63
 223 51 223 51 348 51 c 128,-1,64
 473 51 473 51 560 162 c 0,65,66
 648 274 648 274 648 433 c 0,67,68
 648 586 648 586 560 693 c 0,69,70
 532 728 532 728 498 753 c 1,71,72
 529 772 529 772 549 805 c 128,-1,73
 569 838 569 838 569 876 c 256,42,43
163 433 m 0,74,75
 163 551 163 551 223 635 c 128,-1,76
 283 719 283 719 368 719 c 128,-1,77
 453 719 453 719 513 635 c 0,78,79
 528 613 528 613 539 587 c 0,80,81
 556 546 556 546 573 433 c 0,82,83
 574 427 574 427 574 414 c 0,84,85
 574 372 574 372 556.5 315 c 128,-1,86
 539 258 539 258 513 221 c 0,87,88
 451 133 451 133 368 133 c 0,89,90
 283 133 283 133 223 221 c 0,91,92
 163 310 163 310 163 433 c 0,74,75
EndSplineSet
EndChar

StartChar: currency
Encoding: 164 164 159
Width: 500
GlyphClass: 2
Flags: W
LayerCount: 2
Fore
SplineSet
316 328 m 2,0,-1
 316 320 l 2,1,2
 316 290 316 290 289 265 c 0,3,4
 249 235 249 235 225 229 c 0,5,6
 219 227 219 227 207 227 c 0,7,8
 196 227 196 227 187 231 c 0,9,10
 168 238 168 238 150 256 c 0,11,12
 149 257 149 257 147.5 259 c 128,-1,13
 146 261 146 261 145 262 c 2,14,-1
 136 274 l 2,15,16
 134 277 134 277 127.5 286 c 128,-1,17
 121 295 121 295 119 298 c 128,-1,18
 117 301 117 301 113.5 308 c 128,-1,19
 110 315 110 315 109 320.5 c 128,-1,20
 108 326 108 326 108 333 c 0,21,22
 108 360 108 360 143 395 c 0,23,24
 179 431 179 431 207 437 c 0,25,26
 217 439 217 439 221 439 c 0,27,28
 253 439 253 439 283 399 c 128,-1,29
 313 359 313 359 316 328 c 2,0,-1
127 448 m 1,30,-1
 71 509 l 2,31,32
 63 517 63 517 53 517 c 0,33,34
 42 517 42 517 35 509.5 c 128,-1,35
 28 502 28 502 28 492 c 0,36,37
 28 484 28 484 35 475 c 2,38,-1
 92 413 l 1,39,40
 58 372 58 372 58 332 c 0,41,42
 58 296 58 296 93 248 c 1,43,-1
 12 157 l 2,44,45
 6 150 6 150 6 140 c 128,-1,46
 6 130 6 130 13 122.5 c 128,-1,47
 20 115 20 115 31 115 c 128,-1,48
 42 115 42 115 50 123 c 2,49,-1
 126 210 l 1,50,51
 166 177 166 177 207 177 c 0,52,53
 243 177 243 177 287 203 c 1,54,-1
 348 128 l 2,55,56
 356 119 356 119 367 119 c 128,-1,57
 378 119 378 119 385 126.5 c 128,-1,58
 392 134 392 134 392 144 c 0,59,60
 392 152 392 152 386 160 c 2,61,-1
 328 233 l 1,62,63
 366 273 366 273 366 321 c 0,64,65
 366 323 366 323 365.5 327 c 128,-1,66
 365 331 365 331 365 333 c 0,67,68
 362 365 362 365 340 403 c 1,69,70
 410 445 410 445 422 453 c 0,71,72
 434 460 434 460 434 474 c 0,73,74
 434 484 434 484 427 491.5 c 128,-1,75
 420 499 420 499 409 499 c 0,76,77
 404 499 404 499 396 495 c 2,78,-1
 311 444 l 1,79,80
 266 489 266 489 220 489 c 0,81,82
 173 489 173 489 127 448 c 1,30,-1
EndSplineSet
EndChar

StartChar: d
Encoding: 100 100 160
Width: 438
GlyphClass: 2
Flags: W
LayerCount: 2
Fore
SplineSet
394 229 m 0,0,1
 394 309 394 309 356.5 368.5 c 128,-1,2
 319 428 319 428 252 428 c 0,3,4
 211 428 211 428 182.5 396 c 128,-1,5
 154 364 154 364 154 320 c 0,6,7
 154 284 154 284 180.5 258.5 c 128,-1,8
 207 233 207 233 244 233 c 0,9,10
 270 233 270 233 286 255 c 128,-1,11
 302 277 302 277 302 306 c 2,12,-1
 302 316 l 1,13,-1
 251 316 l 1,14,15
 247 300 247 300 243 295 c 1,16,17
 235 296 235 296 229 303.5 c 128,-1,18
 223 311 223 311 223 320 c 0,19,20
 223 337 223 337 232 351.5 c 128,-1,21
 241 366 241 366 255 366 c 0,22,23
 288 366 288 366 306.5 322.5 c 128,-1,24
 325 279 325 279 325 229 c 0,25,26
 325 170 325 170 290 131 c 0,27,28
 254 92 254 92 205 92 c 2,29,-1
 116 92 l 1,30,-1
 116 430 l 1,31,-1
 335 430 l 2,32,33
 374 430 374 430 402.5 457 c 128,-1,34
 431 484 431 484 431 522 c 0,35,36
 431 543 431 543 421.5 562 c 128,-1,37
 412 581 412 581 402 591.5 c 128,-1,38
 392 602 392 602 374 617 c 1,39,-1
 328 574 l 1,40,-1
 337 568 l 2,41,42
 364 546 364 546 364 523 c 0,43,44
 364 511 364 511 355.5 503 c 128,-1,45
 347 495 347 495 335 495 c 2,46,-1
 1 495 l 1,47,-1
 1 432 l 1,48,-1
 44 432 l 1,49,-1
 44 22 l 1,50,-1
 205 22 l 2,51,52
 287 22 287 22 340.5 82.5 c 128,-1,53
 394 143 394 143 394 229 c 0,0,1
EndSplineSet
EndChar

StartChar: dcaron
Encoding: 271 271 161
Width: 460
GlyphClass: 2
Flags: W
LayerCount: 2
Fore
SplineSet
191 566 m 1,0,-1
 222 566 l 1,1,-1
 292 690 l 1,2,-1
 264 690 l 1,3,-1
 207 587 l 1,4,-1
 150 690 l 1,5,-1
 122 690 l 1,6,-1
 191 566 l 1,0,-1
259 431 m 0,7,8
 226 431 226 431 203.5 401 c 128,-1,9
 181 371 181 371 181 333 c 0,10,11
 181 303 181 303 202 279.5 c 128,-1,12
 223 256 223 256 252 256 c 0,13,14
 270 256 270 256 282 275.5 c 128,-1,15
 294 295 294 295 294 319 c 1,16,-1
 266 319 l 1,17,18
 263 298 263 298 252 298 c 0,19,20
 240 298 240 298 231.5 309 c 128,-1,21
 223 320 223 320 223 333 c 0,22,23
 223 354 223 354 234 371.5 c 128,-1,24
 245 389 245 389 262 389 c 0,25,26
 297 389 297 389 316.5 341.5 c 128,-1,27
 336 294 336 294 336 242 c 0,28,29
 336 184 336 184 302 139.5 c 128,-1,30
 268 95 268 95 217 95 c 2,31,-1
 127 95 l 1,32,-1
 127 455 l 1,33,-1
 336 455 l 2,34,35
 371 455 371 455 396.5 480.5 c 128,-1,36
 422 506 422 506 422 541 c 0,37,38
 422 586 422 586 375 627 c 1,39,-1
 344 596 l 1,40,41
 375 571 375 571 375 541 c 0,42,43
 375 524 375 524 363.5 513 c 128,-1,44
 352 502 352 502 336 502 c 2,45,-1
 32 502 l 1,46,-1
 32 455 l 1,47,-1
 75 455 l 1,48,-1
 75 95 l 2,49,50
 75 86 75 86 75.5 69.5 c 128,-1,51
 76 53 76 53 76 45 c 1,52,-1
 217 45 l 2,53,54
 286 45 286 45 336 103 c 0,55,56
 385 159 385 159 385 242 c 0,57,58
 385 314 385 314 350.5 372.5 c 128,-1,59
 316 431 316 431 259 431 c 0,7,8
EndSplineSet
EndChar

StartChar: dcroat
Encoding: 273 273 162
Width: 434
GlyphClass: 2
Flags: W
LayerCount: 2
Fore
SplineSet
427 549 m 0,0,1
 427 595 427 595 380 634 c 1,2,-1
 349 603 l 1,3,4
 380 578 380 578 380 549 c 0,5,6
 380 532 380 532 369 521 c 128,-1,7
 358 510 358 510 341 510 c 2,8,-1
 37 510 l 1,9,-1
 37 463 l 1,10,-1
 80 463 l 1,11,-1
 80 325 l 1,12,-1
 36 325 l 1,13,-1
 36 274 l 1,14,-1
 81 274 l 1,15,-1
 81 102 l 2,16,17
 81 94 81 94 81.5 77.5 c 128,-1,18
 82 61 82 61 82 53 c 1,19,-1
 222 53 l 2,20,21
 291 53 291 53 341 111 c 0,22,23
 390 167 390 167 390 249 c 0,24,25
 390 321 390 321 355.5 380 c 128,-1,26
 321 439 321 439 264 439 c 0,27,28
 230 439 230 439 208.5 409 c 128,-1,29
 187 379 187 379 187 340 c 0,30,31
 187 309 187 309 207 286.5 c 128,-1,32
 227 264 227 264 257 264 c 0,33,34
 276 264 276 264 287.5 283.5 c 128,-1,35
 299 303 299 303 299 327 c 1,36,-1
 271 327 l 1,37,38
 268 306 268 306 257 306 c 0,39,40
 245 306 245 306 237 316 c 128,-1,41
 229 326 229 326 229 340 c 0,42,43
 229 362 229 362 239 379.5 c 128,-1,44
 249 397 249 397 267 397 c 0,45,46
 303 397 303 397 322 349.5 c 128,-1,47
 341 302 341 302 341 249 c 0,48,49
 341 191 341 191 307 146.5 c 128,-1,50
 273 102 273 102 222 102 c 2,51,-1
 133 102 l 1,52,-1
 133 274 l 1,53,-1
 164 274 l 1,54,-1
 164 325 l 1,55,-1
 132 325 l 1,56,-1
 132 463 l 1,57,-1
 341 463 l 2,58,59
 376 463 376 463 401.5 488.5 c 128,-1,60
 427 514 427 514 427 549 c 0,0,1
EndSplineSet
EndChar

StartChar: dieresis
Encoding: 168 168 164
Width: 608
GlyphClass: 2
Flags: W
LayerCount: 2
Fore
SplineSet
189 796 m 1,0,1
 179 782 179 782 179 767 c 0,2,3
 179 750 179 750 189 732 c 1,4,5
 217 722 217 722 241 722 c 0,6,7
 261 722 261 722 281 732 c 1,8,9
 295 746 295 746 295 760 c 0,10,11
 295 768 295 768 281 796 c 1,12,13
 259 808 259 808 238 808 c 128,-1,14
 217 808 217 808 189 796 c 1,0,1
372 796 m 1,15,16
 362 782 362 782 362 767 c 0,17,18
 362 750 362 750 372 732 c 1,19,20
 400 722 400 722 424 722 c 0,21,22
 444 722 444 722 464 732 c 1,23,24
 478 746 478 746 478 760 c 0,25,26
 478 768 478 768 464 796 c 1,27,28
 442 808 442 808 421 808 c 0,29,30
 401 808 401 808 372 796 c 1,15,16
EndSplineSet
EndChar

StartChar: divide
Encoding: 247 247 165
Width: 661
GlyphClass: 2
Flags: W
LayerCount: 2
Fore
SplineSet
333 180 m 0,0,1
 304 180 304 180 282 158 c 128,-1,2
 260 136 260 136 260 107 c 0,3,4
 260 74 260 74 281.5 50.5 c 128,-1,5
 303 27 303 27 333 27 c 0,6,7
 367 27 367 27 390 50 c 128,-1,8
 413 73 413 73 413 107 c 0,9,10
 413 137 413 137 389.5 158.5 c 128,-1,11
 366 180 366 180 333 180 c 0,0,1
646 286 m 1,12,-1
 646 366 l 1,13,-1
 14 366 l 1,14,-1
 14 286 l 1,15,-1
 646 286 l 1,12,-1
340 633 m 0,16,17
 307 633 307 633 283.5 609 c 128,-1,18
 260 585 260 585 260 553 c 0,19,20
 260 520 260 520 281.5 496.5 c 128,-1,21
 303 473 303 473 333 473 c 0,22,23
 367 473 367 473 390 496 c 128,-1,24
 413 519 413 519 413 553 c 0,25,26
 413 586 413 586 392.5 609.5 c 128,-1,27
 372 633 372 633 340 633 c 0,16,17
EndSplineSet
EndChar

StartChar: dollar
Encoding: 36 36 166
Width: 712
GlyphClass: 2
Flags: W
LayerCount: 2
Fore
SplineSet
320 716 m 1,0,-1
 320 448 l 1,1,2
 263 456 263 456 220.5 493.5 c 128,-1,3
 178 531 178 531 178 585 c 0,4,5
 178 636 178 636 220.5 670.5 c 128,-1,6
 263 705 263 705 320 716 c 1,0,-1
385 99 m 1,7,-1
 385 382 l 1,8,9
 452 376 452 376 503 339 c 128,-1,10
 554 302 554 302 554 244 c 0,11,12
 554 185 554 185 503 145.5 c 128,-1,13
 452 106 452 106 385 99 c 1,7,-1
385 439 m 1,14,-1
 385 716 l 1,15,16
 444 706 444 706 486.5 666.5 c 128,-1,17
 529 627 529 627 529 569 c 1,18,-1
 593 569 l 1,19,20
 593 648 593 648 534 706 c 0,21,22
 475 763 475 763 385 774 c 1,23,-1
 385 889 l 1,24,-1
 320 889 l 1,25,-1
 320 774 l 1,26,27
 238 764 238 764 177 712.5 c 128,-1,28
 116 661 116 661 116 585 c 0,29,30
 116 508 116 508 177 454 c 128,-1,31
 238 400 238 400 320 391 c 1,32,-1
 320 99 l 1,33,34
 256 115 256 115 208.5 163 c 128,-1,35
 161 211 161 211 161 275 c 1,36,-1
 100 275 l 1,37,38
 100 185 100 185 162 120 c 128,-1,39
 224 55 224 55 320 41 c 1,40,-1
 320 -51 l 1,41,-1
 385 -51 l 1,42,-1
 385 41 l 1,43,44
 483 52 483 52 548 109 c 0,45,46
 613 167 613 167 613 244 c 0,47,48
 613 322 613 322 543.5 374 c 128,-1,49
 474 426 474 426 385 439 c 1,14,-1
EndSplineSet
EndChar

StartChar: dotbelowcomb
Encoding: 803 803 168
Width: 0
GlyphClass: 4
Flags: W
LayerCount: 2
Fore
SplineSet
-62 -154 m 0,0,1
 -62 -131 -62 -131 -77.5 -115.5 c 128,-1,2
 -93 -100 -93 -100 -116 -100 c 0,3,4
 -140 -100 -140 -100 -155.5 -115 c 128,-1,5
 -171 -130 -171 -130 -171 -154 c 0,6,7
 -171 -177 -171 -177 -155 -193 c 128,-1,8
 -139 -209 -139 -209 -117 -209 c 0,9,10
 -94 -209 -94 -209 -78 -192.5 c 128,-1,11
 -62 -176 -62 -176 -62 -154 c 0,0,1
EndSplineSet
EndChar

StartChar: dotlessi
Encoding: 305 305 169
Width: 222
GlyphClass: 2
Flags: W
LayerCount: 2
Fore
SplineSet
214 549 m 0,0,1
 214 596 214 596 167 635 c 1,2,-1
 136 604 l 1,3,4
 167 581 167 581 167 549 c 0,5,6
 167 532 167 532 155.5 521 c 128,-1,7
 144 510 144 510 128 510 c 2,8,-1
 0 510 l 1,9,-1
 0 463 l 1,10,-1
 45 463 l 1,11,-1
 45 55 l 1,12,-1
 89 55 l 1,13,-1
 89 463 l 1,14,-1
 128 463 l 2,15,16
 164 463 164 463 189 488 c 128,-1,17
 214 513 214 513 214 549 c 0,0,1
EndSplineSet
EndChar

StartChar: e
Encoding: 101 101 170
Width: 267
GlyphClass: 2
Flags: W
LayerCount: 2
Fore
SplineSet
255 526 m 0,0,1
 255 573 255 573 197 622 c 1,2,-1
 152 580 l 1,3,-1
 160 573 l 1,4,5
 188 554 188 554 188 530 c 0,6,7
 188 519 188 519 179 511 c 128,-1,8
 170 503 170 503 159 503 c 2,9,-1
 -2 503 l 1,10,-1
 -2 436 l 1,11,-1
 53 436 l 1,12,13
 4 398 4 398 4 345 c 0,14,15
 4 315 4 315 20 290 c 128,-1,16
 36 265 36 265 60 251 c 1,17,18
 36 238 36 238 20 212 c 128,-1,19
 4 186 4 186 4 157 c 0,20,21
 4 102 4 102 48 67 c 0,22,23
 93 31 93 31 155 31 c 0,24,25
 175 31 175 31 175 70 c 0,26,27
 175 105 175 105 157 105 c 0,28,29
 125 105 125 105 97.5 119 c 128,-1,30
 70 133 70 133 70 157 c 0,31,32
 70 184 70 184 96 201 c 128,-1,33
 122 218 122 218 154 218 c 2,34,-1
 164 218 l 1,35,-1
 164 285 l 1,36,-1
 154 285 l 2,37,38
 121 285 121 285 95.5 301.5 c 128,-1,39
 70 318 70 318 70 345 c 0,40,41
 70 361 70 361 83 371 c 128,-1,42
 96 381 96 381 114 381 c 0,43,44
 144 381 144 381 144 368 c 128,-1,45
 144 355 144 355 130 355 c 2,46,-1
 120 355 l 1,47,-1
 120 296 l 1,48,-1
 131 296 l 2,49,50
 163 299 163 299 187 319 c 128,-1,51
 211 339 211 339 211 368 c 0,52,53
 211 409 211 409 182 436 c 1,54,55
 212 444 212 444 233.5 469 c 128,-1,56
 255 494 255 494 255 526 c 0,0,1
EndSplineSet
EndChar

StartChar: ebreve
Encoding: 277 277 172
Width: 267
GlyphClass: 2
Flags: W
LayerCount: 2
Fore
SplineSet
246 726 m 0,0,1
 246 739 246 739 238 747 c 128,-1,2
 230 755 230 755 218 755 c 128,-1,3
 206 755 206 755 198 747.5 c 128,-1,4
 190 740 190 740 190 728 c 0,5,6
 190 709 190 709 171.5 698 c 128,-1,7
 153 687 153 687 128 687 c 0,8,9
 104 687 104 687 85.5 698.5 c 128,-1,10
 67 710 67 710 67 728 c 0,11,12
 67 740 67 740 59 747.5 c 128,-1,13
 51 755 51 755 40 755 c 0,14,15
 28 755 28 755 19.5 746 c 128,-1,16
 11 737 11 737 11 725 c 0,17,18
 11 700 11 700 27 681 c 0,19,20
 62 638 62 638 128 638 c 0,21,22
 160 638 160 638 186 650 c 0,23,24
 244 675 244 675 246 726 c 0,0,1
255 526 m 0,25,26
 255 573 255 573 197 622 c 1,27,-1
 152 580 l 1,28,-1
 160 573 l 1,29,30
 188 554 188 554 188 530 c 0,31,32
 188 519 188 519 179 511 c 128,-1,33
 170 503 170 503 159 503 c 2,34,-1
 -2 503 l 1,35,-1
 -2 436 l 1,36,-1
 53 436 l 1,37,38
 4 398 4 398 4 345 c 0,39,40
 4 315 4 315 20 290 c 128,-1,41
 36 265 36 265 60 251 c 1,42,43
 36 238 36 238 20 212 c 128,-1,44
 4 186 4 186 4 157 c 0,45,46
 4 102 4 102 48 67 c 0,47,48
 93 31 93 31 155 31 c 0,49,50
 175 31 175 31 175 70 c 0,51,52
 175 105 175 105 157 105 c 0,53,54
 125 105 125 105 97.5 119 c 128,-1,55
 70 133 70 133 70 157 c 0,56,57
 70 184 70 184 96 201 c 128,-1,58
 122 218 122 218 154 218 c 2,59,-1
 164 218 l 1,60,-1
 164 285 l 1,61,-1
 154 285 l 2,62,63
 121 285 121 285 95.5 301.5 c 128,-1,64
 70 318 70 318 70 345 c 0,65,66
 70 361 70 361 83 371 c 128,-1,67
 96 381 96 381 114 381 c 0,68,69
 144 381 144 381 144 368 c 128,-1,70
 144 355 144 355 130 355 c 2,71,-1
 120 355 l 1,72,-1
 120 296 l 1,73,-1
 131 296 l 2,74,75
 163 299 163 299 187 319 c 128,-1,76
 211 339 211 339 211 368 c 0,77,78
 211 409 211 409 182 436 c 1,79,80
 212 444 212 444 233.5 469 c 128,-1,81
 255 494 255 494 255 526 c 0,25,26
EndSplineSet
EndChar

StartChar: ecaron
Encoding: 283 283 173
Width: 267
GlyphClass: 2
Flags: W
LayerCount: 2
Fore
SplineSet
117 631 m 1,0,-1
 162 631 l 1,1,-1
 261 807 l 1,2,-1
 221 807 l 1,3,-1
 141 661 l 1,4,-1
 60 807 l 1,5,-1
 20 807 l 1,6,-1
 117 631 l 1,0,-1
255 526 m 0,7,8
 255 573 255 573 197 622 c 1,9,-1
 152 580 l 1,10,-1
 160 573 l 1,11,12
 188 554 188 554 188 530 c 0,13,14
 188 519 188 519 179 511 c 128,-1,15
 170 503 170 503 159 503 c 2,16,-1
 -2 503 l 1,17,-1
 -2 436 l 1,18,-1
 53 436 l 1,19,20
 4 398 4 398 4 345 c 0,21,22
 4 315 4 315 20 290 c 128,-1,23
 36 265 36 265 60 251 c 1,24,25
 36 238 36 238 20 212 c 128,-1,26
 4 186 4 186 4 157 c 0,27,28
 4 102 4 102 48 67 c 0,29,30
 93 31 93 31 155 31 c 0,31,32
 175 31 175 31 175 70 c 0,33,34
 175 105 175 105 157 105 c 0,35,36
 125 105 125 105 97.5 119 c 128,-1,37
 70 133 70 133 70 157 c 0,38,39
 70 184 70 184 96 201 c 128,-1,40
 122 218 122 218 154 218 c 2,41,-1
 164 218 l 1,42,-1
 164 285 l 1,43,-1
 154 285 l 2,44,45
 121 285 121 285 95.5 301.5 c 128,-1,46
 70 318 70 318 70 345 c 0,47,48
 70 361 70 361 83 371 c 128,-1,49
 96 381 96 381 114 381 c 0,50,51
 144 381 144 381 144 368 c 128,-1,52
 144 355 144 355 130 355 c 2,53,-1
 120 355 l 1,54,-1
 120 296 l 1,55,-1
 131 296 l 2,56,57
 163 299 163 299 187 319 c 128,-1,58
 211 339 211 339 211 368 c 0,59,60
 211 409 211 409 182 436 c 1,61,62
 212 444 212 444 233.5 469 c 128,-1,63
 255 494 255 494 255 526 c 0,7,8
EndSplineSet
EndChar

StartChar: edotaccent
Encoding: 279 279 176
Width: 267
GlyphClass: 2
Flags: W
LayerCount: 2
Fore
SplineSet
135 645 m 256,0,1
 135 662 135 662 123 673.5 c 128,-1,2
 111 685 111 685 94 685 c 0,3,4
 76 685 76 685 64.5 674 c 128,-1,5
 53 663 53 663 53 645 c 256,6,7
 53 627 53 627 65 615 c 128,-1,8
 77 603 77 603 93 603 c 0,9,10
 111 603 111 603 123 615.5 c 128,-1,11
 135 628 135 628 135 645 c 256,0,1
255 526 m 0,12,13
 255 573 255 573 197 622 c 1,14,-1
 152 580 l 1,15,-1
 160 573 l 1,16,17
 188 554 188 554 188 530 c 0,18,19
 188 519 188 519 179 511 c 128,-1,20
 170 503 170 503 159 503 c 2,21,-1
 -2 503 l 1,22,-1
 -2 436 l 1,23,-1
 53 436 l 1,24,25
 4 398 4 398 4 345 c 0,26,27
 4 315 4 315 20 290 c 128,-1,28
 36 265 36 265 60 251 c 1,29,30
 36 238 36 238 20 212 c 128,-1,31
 4 186 4 186 4 157 c 0,32,33
 4 102 4 102 48 67 c 0,34,35
 93 31 93 31 155 31 c 0,36,37
 175 31 175 31 175 70 c 0,38,39
 175 105 175 105 157 105 c 0,40,41
 125 105 125 105 97.5 119 c 128,-1,42
 70 133 70 133 70 157 c 0,43,44
 70 184 70 184 96 201 c 128,-1,45
 122 218 122 218 154 218 c 2,46,-1
 164 218 l 1,47,-1
 164 285 l 1,48,-1
 154 285 l 2,49,50
 121 285 121 285 95.5 301.5 c 128,-1,51
 70 318 70 318 70 345 c 0,52,53
 70 361 70 361 83 371 c 128,-1,54
 96 381 96 381 114 381 c 0,55,56
 144 381 144 381 144 368 c 128,-1,57
 144 355 144 355 130 355 c 2,58,-1
 120 355 l 1,59,-1
 120 296 l 1,60,-1
 131 296 l 2,61,62
 163 299 163 299 187 319 c 128,-1,63
 211 339 211 339 211 368 c 0,64,65
 211 409 211 409 182 436 c 1,66,67
 212 444 212 444 233.5 469 c 128,-1,68
 255 494 255 494 255 526 c 0,12,13
EndSplineSet
EndChar

StartChar: eight
Encoding: 56 56 178
Width: 635
GlyphClass: 2
Flags: W
LayerCount: 2
Fore
SplineSet
310 689 m 0,0,1
 372 689 372 689 419 660 c 0,2,3
 465 632 465 632 465 580 c 0,4,5
 465 527 465 527 419 498 c 128,-1,6
 373 469 373 469 310 469 c 0,7,8
 252 469 252 469 208 499 c 128,-1,9
 164 529 164 529 164 580 c 0,10,11
 164 630 164 630 207.5 659.5 c 128,-1,12
 251 689 251 689 310 689 c 0,0,1
128 264 m 0,13,14
 128 326 128 326 182 360 c 0,15,16
 237 395 237 395 310 395 c 0,17,18
 388 395 388 395 444 361 c 0,19,20
 501 326 501 326 501 264 c 0,21,22
 501 198 501 198 444 158 c 0,23,24
 386 117 386 117 310 117 c 0,25,26
 237 117 237 117 182 158 c 0,27,28
 128 198 128 198 128 264 c 0,13,14
445 434 m 1,29,30
 488 458 488 458 518 498 c 0,31,32
 546 535 546 535 546 580 c 0,33,34
 546 663 546 663 476 714 c 0,35,36
 407 764 407 764 310 764 c 0,37,38
 219 764 219 764 150 712 c 0,39,40
 83 661 83 661 83 580 c 0,41,42
 83 495 83 495 190 434 c 1,43,44
 133 413 133 413 93 369 c 128,-1,45
 53 325 53 325 53 264 c 0,46,47
 53 166 53 166 130 100 c 0,48,49
 205 35 205 35 310 35 c 0,50,51
 418 35 418 35 500 100 c 128,-1,52
 582 165 582 165 582 264 c 0,53,54
 582 325 582 325 542.5 368.5 c 128,-1,55
 503 412 503 412 445 434 c 1,29,30
EndSplineSet
EndChar

StartChar: emacron
Encoding: 275 275 180
Width: 267
GlyphClass: 2
Flags: W
LayerCount: 2
Fore
SplineSet
227 675 m 2,0,1
 239 675 239 675 247.5 683 c 128,-1,2
 256 691 256 691 256 702 c 128,-1,3
 256 713 256 713 247.5 721 c 128,-1,4
 239 729 239 729 227 729 c 2,5,-1
 33 729 l 2,6,7
 20 729 20 729 11.5 721.5 c 128,-1,8
 3 714 3 714 3 702 c 128,-1,9
 3 690 3 690 11.5 682.5 c 128,-1,10
 20 675 20 675 33 675 c 2,11,-1
 227 675 l 2,0,1
261 528 m 0,12,13
 261 575 261 575 203 624 c 1,14,-1
 158 582 l 1,15,-1
 166 575 l 1,16,17
 194 556 194 556 194 532 c 0,18,19
 194 521 194 521 185 513 c 128,-1,20
 176 505 176 505 165 505 c 2,21,-1
 4 505 l 1,22,-1
 4 438 l 1,23,-1
 59 438 l 1,24,25
 10 400 10 400 10 347 c 0,26,27
 10 317 10 317 26 292 c 128,-1,28
 42 267 42 267 66 253 c 1,29,30
 42 240 42 240 26 214 c 128,-1,31
 10 188 10 188 10 159 c 0,32,33
 10 104 10 104 54 69 c 0,34,35
 99 33 99 33 161 33 c 0,36,37
 181 33 181 33 181 72 c 0,38,39
 181 107 181 107 163 107 c 0,40,41
 131 107 131 107 103.5 121 c 128,-1,42
 76 135 76 135 76 159 c 0,43,44
 76 186 76 186 102 203 c 128,-1,45
 128 220 128 220 160 220 c 2,46,-1
 170 220 l 1,47,-1
 170 287 l 1,48,-1
 160 287 l 2,49,50
 127 287 127 287 101.5 303.5 c 128,-1,51
 76 320 76 320 76 347 c 0,52,53
 76 363 76 363 89 373 c 128,-1,54
 102 383 102 383 120 383 c 0,55,56
 150 383 150 383 150 370 c 128,-1,57
 150 357 150 357 136 357 c 2,58,-1
 126 357 l 1,59,-1
 126 298 l 1,60,-1
 137 298 l 2,61,62
 169 301 169 301 193 321 c 128,-1,63
 217 341 217 341 217 370 c 0,64,65
 217 411 217 411 188 438 c 1,66,67
 218 446 218 446 239.5 471 c 128,-1,68
 261 496 261 496 261 528 c 0,12,13
EndSplineSet
EndChar

StartChar: emdash
Encoding: 8212 8212 181
Width: 1000
GlyphClass: 2
Flags: W
LayerCount: 2
Fore
SplineSet
100 293 m 1,0,-1
 901 293 l 1,1,-1
 901 366 l 1,2,-1
 100 366 l 1,3,-1
 100 293 l 1,0,-1
EndSplineSet
EndChar

StartChar: endash
Encoding: 8211 8211 182
Width: 500
GlyphClass: 2
Flags: W
LayerCount: 2
Fore
SplineSet
100 293 m 1,0,-1
 401 293 l 1,1,-1
 401 366 l 1,2,-1
 100 366 l 1,3,-1
 100 293 l 1,0,-1
EndSplineSet
EndChar

StartChar: equal
Encoding: 61 61 184
Width: 798
GlyphClass: 2
Flags: W
LayerCount: 2
Fore
SplineSet
100 366 m 1,0,-1
 699 366 l 1,1,-1
 699 433 l 1,2,-1
 100 433 l 1,3,-1
 100 366 l 1,0,-1
100 153 m 1,4,-1
 699 153 l 1,5,-1
 699 220 l 1,6,-1
 100 220 l 1,7,-1
 100 153 l 1,4,-1
EndSplineSet
EndChar

StartChar: eth
Encoding: 240 240 185
Width: 333
GlyphClass: 2
Flags: W
LayerCount: 2
Fore
SplineSet
35 625 m 1,0,-1
 74 597 l 1,1,-1
 136 650 l 1,2,3
 237 567 237 567 237 553 c 0,4,5
 237 540 237 540 227.5 529.5 c 128,-1,6
 218 519 218 519 206 519 c 2,7,-1
 205 519 l 2,8,9
 202 518 202 518 194 515.5 c 128,-1,10
 186 513 186 513 183 512 c 0,11,12
 177 513 177 513 166 513 c 0,13,14
 100 513 100 513 45 446 c 0,15,16
 -9 380 -9 380 -9 287 c 0,17,18
 -9 191 -9 191 45 122 c 128,-1,19
 99 53 99 53 166 53 c 128,-1,20
 233 53 233 53 287 122 c 128,-1,21
 341 191 341 191 341 287 c 0,22,23
 341 380 341 380 287 446 c 0,24,25
 274 462 274 462 255 479 c 1,26,-1
 263 486 l 2,27,28
 294 515 294 515 294 553 c 0,29,30
 294 579 294 579 174 683 c 1,31,-1
 241 741 l 1,32,-1
 197 769 l 1,33,-1
 136 715 l 1,34,35
 74 767 74 767 62 776 c 1,36,-1
 26 738 l 2,37,38
 28 736 28 736 38 728.5 c 128,-1,39
 48 721 48 721 65.5 707 c 128,-1,40
 83 693 83 693 98 681 c 1,41,-1
 35 625 l 1,0,-1
58 292 m 0,42,43
 58 351 58 351 89 405 c 128,-1,44
 120 459 120 459 166 459 c 128,-1,45
 212 459 212 459 243 405 c 128,-1,46
 274 351 274 351 274 292 c 0,47,48
 274 220 274 220 239 168 c 0,49,50
 204 117 204 117 166 117 c 128,-1,51
 128 117 128 117 93 168 c 0,52,53
 58 220 58 220 58 292 c 0,42,43
EndSplineSet
EndChar

StartChar: exclam
Encoding: 33 33 186
Width: 266
GlyphClass: 2
Flags: W
LayerCount: 2
Fore
SplineSet
50 58 m 0,0,1
 50 34 50 34 67 17 c 128,-1,2
 84 0 84 0 108 0 c 128,-1,3
 132 0 132 0 149 17 c 128,-1,4
 166 34 166 34 166 58 c 128,-1,5
 166 82 166 82 149 99.5 c 128,-1,6
 132 117 132 117 108 117 c 128,-1,7
 84 117 84 117 67 100 c 128,-1,8
 50 83 50 83 50 58 c 0,0,1
147 216 m 2,9,-1
 147 742 l 2,10,11
 147 759 147 759 135.5 770.5 c 128,-1,12
 124 782 124 782 108 782 c 128,-1,13
 92 782 92 782 80.5 770.5 c 128,-1,14
 69 759 69 759 69 742 c 2,15,-1
 69 216 l 2,16,17
 69 200 69 200 80.5 188.5 c 128,-1,18
 92 177 92 177 108 177 c 128,-1,19
 124 177 124 177 135.5 188.5 c 128,-1,20
 147 200 147 200 147 216 c 2,9,-1
EndSplineSet
EndChar

StartChar: exclamdown
Encoding: 161 161 187
Width: 266
GlyphClass: 2
Flags: W
LayerCount: 2
Fore
SplineSet
166 724 m 0,0,1
 166 748 166 748 149 765 c 128,-1,2
 132 782 132 782 108 782 c 128,-1,3
 84 782 84 782 67 765 c 128,-1,4
 50 748 50 748 50 724 c 128,-1,5
 50 700 50 700 67 682.5 c 128,-1,6
 84 665 84 665 108 665 c 128,-1,7
 132 665 132 665 149 682 c 128,-1,8
 166 699 166 699 166 724 c 0,0,1
69 566 m 2,9,-1
 69 40 l 2,10,11
 69 23 69 23 80.5 11.5 c 128,-1,12
 92 0 92 0 108 0 c 128,-1,13
 124 0 124 0 135.5 11.5 c 128,-1,14
 147 23 147 23 147 40 c 2,15,-1
 147 566 l 2,16,17
 147 582 147 582 135.5 593.5 c 128,-1,18
 124 605 124 605 108 605 c 128,-1,19
 92 605 92 605 80.5 593.5 c 128,-1,20
 69 582 69 582 69 566 c 2,9,-1
EndSplineSet
EndChar

StartChar: f
Encoding: 102 102 188
Width: 350
GlyphClass: 2
Flags: W
LayerCount: 2
Fore
SplineSet
260 370 m 2,0,1
 272 360 272 360 272 344 c 0,2,3
 272 326 272 326 258 315 c 2,4,-1
 220 282 l 1,5,-1
 242 328 l 2,6,7
 247 336 247 336 247 344 c 128,-1,8
 247 352 247 352 244 360 c 2,9,-1
 232 396 l 1,10,-1
 260 370 l 2,0,1
302 542 m 0,11,12
 302 527 302 527 292 518 c 128,-1,13
 282 509 282 509 268 509 c 2,14,-1
 -21 509 l 1,15,-1
 -21 455 l 1,16,-1
 103 455 l 1,17,-1
 103 147 l 2,18,19
 103 133 103 133 94 123 c 128,-1,20
 85 113 85 113 70 113 c 0,21,22
 42 113 42 113 15 146 c 1,23,-1
 -23 108 l 1,24,25
 19 56 19 56 70 56 c 0,26,27
 106 56 106 56 128.5 82.5 c 128,-1,28
 151 109 151 109 151 147 c 2,29,-1
 151 245 l 1,30,-1
 225 245 l 2,31,32
 266 245 266 245 297.5 274.5 c 128,-1,33
 329 304 329 304 329 344 c 0,34,35
 329 382 329 382 302.5 408.5 c 128,-1,36
 276 435 276 435 238 435 c 0,37,38
 211 435 211 435 191.5 412 c 128,-1,39
 172 389 172 389 172 360 c 0,40,41
 172 333 172 333 186 319 c 2,42,-1
 203 302 l 1,43,-1
 153 302 l 1,44,-1
 153 457 l 1,45,-1
 268 457 l 2,46,47
 305 457 305 457 332 481.5 c 128,-1,48
 359 506 359 506 359 542 c 0,49,50
 359 589 359 589 306 631 c 1,51,-1
 268 594 l 1,52,53
 302 568 302 568 302 542 c 0,11,12
EndSplineSet
EndChar

StartChar: five
Encoding: 53 53 189
Width: 635
GlyphClass: 2
Flags: W
LayerCount: 2
Fore
SplineSet
177 499 m 1,0,-1
 206 683 l 1,1,-1
 515 683 l 1,2,-1
 515 754 l 1,3,-1
 140 754 l 1,4,-1
 68 388 l 1,5,-1
 148 388 l 1,6,7
 174 420 174 420 217 441 c 128,-1,8
 260 462 260 462 309 462 c 0,9,10
 382 462 382 462 434 413 c 128,-1,11
 486 364 486 364 486 294 c 128,-1,12
 486 224 486 224 434 178 c 0,13,14
 381 131 381 131 309 131 c 0,15,16
 241 131 241 131 190 170 c 0,17,18
 140 208 140 208 140 271 c 1,19,-1
 68 271 l 1,20,21
 68 179 68 179 139 114 c 0,22,23
 209 50 209 50 309 50 c 0,24,25
 414 50 414 50 490 120 c 0,26,27
 567 191 567 191 567 294 c 0,28,29
 567 398 567 398 491 470 c 0,30,31
 413 543 413 543 309 543 c 0,32,33
 213 543 213 543 177 499 c 1,0,-1
EndSplineSet
EndChar

StartChar: four
Encoding: 52 52 190
Width: 635
GlyphClass: 2
Flags: W
LayerCount: 2
Fore
SplineSet
164 307 m 1,0,-1
 384 624 l 1,1,-1
 384 307 l 1,2,-1
 164 307 l 1,0,-1
76 235 m 1,3,-1
 384 235 l 1,4,-1
 384 50 l 1,5,-1
 465 50 l 1,6,-1
 465 235 l 1,7,-1
 559 235 l 1,8,-1
 559 307 l 1,9,-1
 465 307 l 1,10,-1
 465 764 l 1,11,-1
 384 764 l 1,12,-1
 76 307 l 1,13,-1
 76 235 l 1,3,-1
EndSplineSet
EndChar

StartChar: g
Encoding: 103 103 191
Width: 455
GlyphClass: 2
Flags: W
LayerCount: 2
Fore
SplineSet
324 364 m 0,0,1
 298 364 298 364 298 382 c 0,2,3
 298 404 298 404 324 404 c 0,4,5
 355 404 355 404 355 382 c 0,6,7
 355 374 355 374 345 369 c 128,-1,8
 335 364 335 364 324 364 c 0,0,1
180 154 m 0,9,10
 126 189 126 189 126 279 c 0,11,12
 126 328 126 328 168 375 c 0,13,14
 196 406 196 406 237 412 c 1,15,-1
 249 412 l 1,16,17
 249 410 249 410 247 398.5 c 128,-1,18
 245 387 245 387 245 382 c 0,19,20
 245 348 245 348 267.5 323.5 c 128,-1,21
 290 299 290 299 324 299 c 0,22,23
 360 299 360 299 387.5 321 c 128,-1,24
 415 343 415 343 415 374 c 0,25,26
 415 415 415 415 374 441 c 2,27,-1
 353 454 l 1,28,-1
 377 459 l 2,29,30
 406 465 406 465 427 489 c 128,-1,31
 448 513 448 513 448 544 c 0,32,33
 448 593 448 593 396 633 c 1,34,-1
 358 596 l 1,35,36
 391 571 391 571 391 543 c 0,37,38
 391 528 391 528 381 518.5 c 128,-1,39
 371 509 371 509 357 509 c 2,40,-1
 68 509 l 1,41,-1
 68 454 l 1,42,-1
 186 454 l 1,43,44
 136 425 136 425 123 412 c 0,45,46
 66 359 66 359 66 267 c 0,47,48
 66 176 66 176 124 115 c 128,-1,49
 182 54 182 54 268 54 c 0,50,51
 327 54 327 54 371 84 c 128,-1,52
 415 114 415 114 415 164 c 0,53,54
 415 208 415 208 389.5 237.5 c 128,-1,55
 364 267 364 267 324 267 c 0,56,57
 306 267 306 267 273 246 c 1,58,-1
 273 301 l 1,59,-1
 218 301 l 1,60,-1
 218 155 l 1,61,-1
 273 155 l 1,62,63
 279 180 279 180 288.5 191.5 c 128,-1,64
 298 203 298 203 316 203 c 0,65,66
 331 203 331 203 340 192 c 128,-1,67
 349 181 349 181 349 166 c 0,68,69
 349 143 349 143 313 128 c 0,70,71
 292 120 292 120 269 118 c 2,72,-1
 267 118 l 2,73,74
 232 118 232 118 180 154 c 0,9,10
EndSplineSet
EndChar

StartChar: gbreve
Encoding: 287 287 192
Width: 455
GlyphClass: 2
Flags: W
LayerCount: 2
Fore
SplineSet
354 681 m 0,0,1
 354 695 354 695 346 704 c 128,-1,2
 338 713 338 713 325 713 c 128,-1,3
 312 713 312 713 303 705 c 128,-1,4
 294 697 294 697 294 684 c 0,5,6
 294 663 294 663 274.5 651.5 c 128,-1,7
 255 640 255 640 229 640 c 256,8,9
 203 640 203 640 183.5 652 c 128,-1,10
 164 664 164 664 164 684 c 0,11,12
 164 696 164 696 155 704.5 c 128,-1,13
 146 713 146 713 134 713 c 256,14,15
 122 713 122 713 113 703 c 128,-1,16
 104 693 104 693 104 681 c 0,17,18
 104 653 104 653 121 633 c 0,19,20
 158 588 158 588 229 588 c 0,21,22
 262 588 262 588 290 600 c 0,23,24
 352 627 352 627 354 681 c 0,0,1
324 364 m 0,25,26
 298 364 298 364 298 382 c 0,27,28
 298 404 298 404 324 404 c 0,29,30
 355 404 355 404 355 382 c 0,31,32
 355 374 355 374 345 369 c 128,-1,33
 335 364 335 364 324 364 c 0,25,26
180 154 m 0,34,35
 126 189 126 189 126 279 c 0,36,37
 126 328 126 328 168 375 c 0,38,39
 196 406 196 406 237 412 c 1,40,-1
 249 412 l 1,41,42
 249 410 249 410 247 398.5 c 128,-1,43
 245 387 245 387 245 382 c 0,44,45
 245 348 245 348 267.5 323.5 c 128,-1,46
 290 299 290 299 324 299 c 0,47,48
 360 299 360 299 387.5 321 c 128,-1,49
 415 343 415 343 415 374 c 0,50,51
 415 415 415 415 374 441 c 2,52,-1
 353 454 l 1,53,-1
 377 459 l 2,54,55
 406 465 406 465 427 489 c 128,-1,56
 448 513 448 513 448 544 c 0,57,58
 448 593 448 593 396 633 c 1,59,-1
 358 596 l 1,60,61
 391 571 391 571 391 543 c 0,62,63
 391 528 391 528 381 518.5 c 128,-1,64
 371 509 371 509 357 509 c 2,65,-1
 68 509 l 1,66,-1
 68 454 l 1,67,-1
 186 454 l 1,68,69
 136 425 136 425 123 412 c 0,70,71
 66 359 66 359 66 267 c 0,72,73
 66 176 66 176 124 115 c 128,-1,74
 182 54 182 54 268 54 c 0,75,76
 327 54 327 54 371 84 c 128,-1,77
 415 114 415 114 415 164 c 0,78,79
 415 208 415 208 389.5 237.5 c 128,-1,80
 364 267 364 267 324 267 c 0,81,82
 306 267 306 267 273 246 c 1,83,-1
 273 301 l 1,84,-1
 218 301 l 1,85,-1
 218 155 l 1,86,-1
 273 155 l 1,87,88
 279 180 279 180 288.5 191.5 c 128,-1,89
 298 203 298 203 316 203 c 0,90,91
 331 203 331 203 340 192 c 128,-1,92
 349 181 349 181 349 166 c 0,93,94
 349 143 349 143 313 128 c 0,95,96
 292 120 292 120 269 118 c 2,97,-1
 267 118 l 2,98,99
 232 118 232 118 180 154 c 0,34,35
EndSplineSet
EndChar

StartChar: gcircumflex
Encoding: 285 285 193
Width: 455
GlyphClass: 2
Flags: W
LayerCount: 2
Fore
SplineSet
359 587 m 0,0,1
 359 604 359 604 344 614 c 2,2,-1
 251 677 l 2,3,4
 239 681 239 681 235 681 c 0,5,6
 226 681 226 681 219 677 c 2,7,-1
 125 614 l 2,8,9
 110 604 110 604 110 587 c 0,10,11
 110 574 110 574 119 566.5 c 128,-1,12
 128 559 128 559 142 559 c 0,13,14
 151 559 151 559 160 566 c 2,15,-1
 235 617 l 1,16,-1
 309 566 l 2,17,18
 318 559 318 559 328 559 c 0,19,20
 341 559 341 559 350 567 c 128,-1,21
 359 575 359 575 359 587 c 0,0,1
338 368 m 0,22,23
 312 368 312 368 312 386 c 0,24,25
 312 408 312 408 338 408 c 0,26,27
 369 408 369 408 369 386 c 0,28,29
 369 378 369 378 359 373 c 128,-1,30
 349 368 349 368 338 368 c 0,22,23
194 158 m 0,31,32
 140 193 140 193 140 283 c 0,33,34
 140 332 140 332 182 379 c 0,35,36
 210 410 210 410 251 416 c 1,37,-1
 263 416 l 1,38,39
 263 414 263 414 261 402.5 c 128,-1,40
 259 391 259 391 259 386 c 0,41,42
 259 352 259 352 281.5 327.5 c 128,-1,43
 304 303 304 303 338 303 c 0,44,45
 374 303 374 303 401.5 325 c 128,-1,46
 429 347 429 347 429 378 c 0,47,48
 429 419 429 419 388 445 c 2,49,-1
 367 458 l 1,50,-1
 391 463 l 2,51,52
 420 469 420 469 441 493 c 128,-1,53
 462 517 462 517 462 548 c 0,54,55
 462 597 462 597 410 637 c 1,56,-1
 372 600 l 1,57,58
 405 575 405 575 405 547 c 0,59,60
 405 532 405 532 395 522.5 c 128,-1,61
 385 513 385 513 371 513 c 2,62,-1
 82 513 l 1,63,-1
 82 458 l 1,64,-1
 200 458 l 1,65,66
 150 429 150 429 137 416 c 0,67,68
 80 363 80 363 80 271 c 0,69,70
 80 180 80 180 138 119 c 128,-1,71
 196 58 196 58 282 58 c 0,72,73
 341 58 341 58 385 88 c 128,-1,74
 429 118 429 118 429 168 c 0,75,76
 429 212 429 212 403.5 241.5 c 128,-1,77
 378 271 378 271 338 271 c 0,78,79
 320 271 320 271 287 250 c 1,80,-1
 287 305 l 1,81,-1
 232 305 l 1,82,-1
 232 159 l 1,83,-1
 287 159 l 1,84,85
 293 184 293 184 302.5 195.5 c 128,-1,86
 312 207 312 207 330 207 c 0,87,88
 345 207 345 207 354 196 c 128,-1,89
 363 185 363 185 363 170 c 0,90,91
 363 147 363 147 327 132 c 0,92,93
 306 124 306 124 283 122 c 2,94,-1
 281 122 l 2,95,96
 246 122 246 122 194 158 c 0,31,32
EndSplineSet
EndChar

StartChar: germandbls
Encoding: 223 223 195
Width: 547
GlyphClass: 2
Flags: W
LayerCount: 2
Fore
SplineSet
130 38 m 2,0,-1
 130 572 l 2,1,2
 130 629 130 629 167 665.5 c 128,-1,3
 204 702 204 702 260 702 c 0,4,5
 315 702 315 702 348 674 c 128,-1,6
 381 646 381 646 381 594 c 0,7,8
 381 564 381 564 367 539.5 c 128,-1,9
 353 515 353 515 335.5 501 c 128,-1,10
 318 487 318 487 304 462.5 c 128,-1,11
 290 438 290 438 290 408 c 0,12,13
 290 356 290 356 342 308 c 2,14,-1
 386 266 l 2,15,16
 438 216 438 216 438 167 c 0,17,18
 438 119 438 119 408 94 c 128,-1,19
 378 69 378 69 325 69 c 0,20,21
 269 69 269 69 246 92 c 0,22,23
 245 93 245 93 240.5 97.5 c 128,-1,24
 236 102 236 102 234.5 103.5 c 128,-1,25
 233 105 233 105 229 108 c 128,-1,26
 225 111 225 111 221.5 112.5 c 128,-1,27
 218 114 218 114 213.5 115 c 128,-1,28
 209 116 209 116 203 116 c 0,29,30
 189 116 189 116 180 106 c 128,-1,31
 171 96 171 96 171 82 c 0,32,33
 171 60 171 60 194 40 c 0,34,35
 245 -4 245 -4 321 -4 c 0,36,37
 377 -4 377 -4 421 19 c 0,38,39
 514 67 514 67 514 167 c 0,40,41
 514 233 514 233 460 287 c 0,42,43
 424 323 424 323 416 330 c 0,44,45
 392 351 392 351 378 369 c 0,46,47
 363 388 363 388 363 410 c 0,48,49
 363 434 363 434 376 453 c 0,50,51
 384 464 384 464 400 483 c 128,-1,52
 416 502 416 502 426 514.5 c 128,-1,53
 436 527 436 527 444.5 549.5 c 128,-1,54
 453 572 453 572 453 598 c 0,55,56
 453 650 453 650 428 690 c 0,57,58
 376 774 376 774 262 774 c 0,59,60
 200 774 200 774 153 748 c 0,61,62
 108 724 108 724 80 680 c 128,-1,63
 52 636 52 636 52 578 c 2,64,-1
 52 38 l 2,65,66
 52 22 52 22 63 11 c 128,-1,67
 74 0 74 0 90 0 c 0,68,69
 107 0 107 0 118.5 11 c 128,-1,70
 130 22 130 22 130 38 c 2,0,-1
EndSplineSet
EndChar

StartChar: glyph486
Encoding: 65538 -1 197
Width: 0
GlyphClass: 2
Flags: W
AnchorPoint: "Anchor-0" -202 1048 mark 0
LayerCount: 2
Fore
SplineSet
-146 1130 m 0,0,1
 -146 1106 -146 1106 -164.5 1090 c 128,-1,2
 -183 1074 -183 1074 -209 1074 c 128,-1,3
 -235 1074 -235 1074 -254 1090 c 128,-1,4
 -273 1106 -273 1106 -273 1130 c 0,5,6
 -273 1160 -273 1160 -235 1190 c 1,7,-1
 -260 1200 l 1,8,9
 -299 1173 -299 1173 -299 1130 c 0,10,11
 -299 1100 -299 1100 -271.5 1079 c 128,-1,12
 -244 1058 -244 1058 -209 1058 c 0,13,14
 -173 1058 -173 1058 -144.5 1078 c 128,-1,15
 -116 1098 -116 1098 -116 1130 c 0,16,17
 -116 1169 -116 1169 -159 1200 c 1,18,-1
 -184 1190 l 1,19,20
 -146 1162 -146 1162 -146 1130 c 0,0,1
-210 1155 m 0,21,22
 -194 1155 -194 1155 -194 1139 c 0,23,24
 -194 1132 -194 1132 -198.5 1127 c 128,-1,25
 -203 1122 -203 1122 -210 1122 c 128,-1,26
 -217 1122 -217 1122 -222 1127 c 128,-1,27
 -227 1132 -227 1132 -227 1139 c 128,-1,28
 -227 1146 -227 1146 -222 1150.5 c 128,-1,29
 -217 1155 -217 1155 -210 1155 c 0,21,22
-210 1106 m 0,30,31
 -197 1106 -197 1106 -187.5 1115.5 c 128,-1,32
 -178 1125 -178 1125 -178 1139 c 128,-1,33
 -178 1153 -178 1153 -187 1162.5 c 128,-1,34
 -196 1172 -196 1172 -210 1172 c 128,-1,35
 -224 1172 -224 1172 -233.5 1162 c 128,-1,36
 -243 1152 -243 1152 -243 1139 c 128,-1,37
 -243 1126 -243 1126 -233.5 1116 c 128,-1,38
 -224 1106 -224 1106 -210 1106 c 0,30,31
EndSplineSet
EndChar

StartChar: glyph531
Encoding: 65542 -1 201
Width: 0
GlyphClass: 4
Flags: W
LayerCount: 2
Fore
SplineSet
-312 157 m 1,0,-1
 -312 126 l 1,1,-1
 -336 137 l 2,2,3
 -357 146 -357 146 -400.5 156 c 128,-1,4
 -444 166 -444 166 -483 166 c 0,5,6
 -502 166 -502 166 -512 164 c 0,7,8
 -623 149 -623 149 -683.5 121 c 128,-1,9
 -744 93 -744 93 -744 43 c 0,10,11
 -744 -12 -744 -12 -667.5 -45.5 c 128,-1,12
 -591 -79 -591 -79 -492 -79 c 0,13,14
 -403 -79 -403 -79 -337 -51 c 0,15,16
 -317 -42 -317 -42 -312 -42 c 1,17,18
 -294 -69 -294 -69 -269 -82.5 c 128,-1,19
 -244 -96 -244 -96 -188 -96 c 0,20,21
 -153 -96 -153 -96 -110.5 -84.5 c 128,-1,22
 -68 -73 -68 -73 -68 -63 c 0,23,24
 -68 -61 -68 -61 -87.5 -53 c 128,-1,25
 -107 -45 -107 -45 -111 -45 c 0,26,27
 -117 -45 -117 -45 -144.5 -54 c 128,-1,28
 -172 -63 -172 -63 -185 -63 c 0,29,30
 -208 -63 -208 -63 -218 -58 c 128,-1,31
 -228 -53 -228 -53 -228 -40 c 2,32,-1
 -228 157 l 1,33,-1
 -312 157 l 1,0,-1
-492 -40 m 0,34,35
 -560 -40 -560 -40 -612.5 -17.5 c 128,-1,36
 -665 5 -665 5 -665 43 c 128,-1,37
 -665 81 -665 81 -612 104 c 128,-1,38
 -559 127 -559 127 -488 127 c 0,39,40
 -416 127 -416 127 -365.5 103 c 128,-1,41
 -315 79 -315 79 -315 45 c 2,42,-1
 -315 41 l 2,43,44
 -316 4 -316 4 -370.5 -18 c 128,-1,45
 -425 -40 -425 -40 -492 -40 c 0,34,35
EndSplineSet
EndChar

StartChar: glyph564
Encoding: 65543 -1 202
Width: 995
GlyphClass: 3
Flags: W
LayerCount: 2
Fore
SplineSet
750 85 m 1,0,1
 722 0 722 0 681 -70 c 0,2,3
 642 -136 642 -136 596 -164.5 c 128,-1,4
 550 -193 550 -193 466 -193 c 0,5,6
 389 -193 389 -193 311 -167 c 1,7,-1
 291 -228 l 1,8,9
 393 -261 393 -261 483 -261 c 0,10,11
 572 -261 572 -261 633 -225 c 0,12,13
 684 -197 684 -197 734 -117 c 0,14,15
 778 -47 778 -47 820 81 c 1,16,17
 869 94 869 94 900.5 138.5 c 128,-1,18
 932 183 932 183 932 237 c 0,19,20
 932 290 932 290 900.5 329 c 128,-1,21
 869 368 869 368 822 385 c 1,22,23
 869 402 869 402 900.5 441 c 128,-1,24
 932 480 932 480 932 534 c 0,25,26
 932 601 932 601 886.5 650.5 c 128,-1,27
 841 700 841 700 777 700 c 0,28,29
 733 700 733 700 693 677 c 1,30,-1
 686 666 l 2,31,32
 678 656 678 656 665 646 c 128,-1,33
 652 636 652 636 641 636 c 0,34,35
 635 636 635 636 631 639 c 0,36,37
 606 654 606 654 574 654 c 0,38,39
 548 654 548 654 515 643 c 0,40,41
 449 619 449 619 392 552 c 0,42,43
 356 508 356 508 313 490 c 0,44,45
 288 480 288 480 272 480 c 0,46,47
 218 480 218 480 218 541 c 0,48,49
 218 572 218 572 239 611 c 0,50,51
 275 674 275 674 332 716 c 0,52,53
 348 727 348 727 379 736 c 1,54,55
 530 737 530 737 583 738 c 128,-1,56
 636 739 636 739 736.5 742.5 c 128,-1,57
 837 746 837 746 880.5 754 c 128,-1,58
 924 762 924 762 938 776 c 0,59,60
 983 818 983 818 983 879 c 0,61,62
 983 897 983 897 976 925 c 0,63,64
 967 958 967 958 936 989 c 0,65,66
 906 1019 906 1019 898 1019 c 128,-1,67
 890 1019 890 1019 870 995 c 2,68,-1
 850 971 l 1,69,-1
 867 957 l 2,70,71
 881 945 881 945 893 921.5 c 128,-1,72
 905 898 905 898 905 881 c 0,73,74
 905 865 905 865 896 849 c 0,75,76
 890 837 890 837 847.5 829.5 c 128,-1,77
 805 822 805 822 712.5 819 c 128,-1,78
 620 816 620 816 551 815.5 c 128,-1,79
 482 815 482 815 342 815 c 2,80,-1
 2 815 l 1,81,-1
 2 735 l 1,82,-1
 222 735 l 1,83,84
 181 692 181 692 160 656 c 0,85,86
 128 600 128 600 128 544 c 0,87,88
 128 478 128 478 164.5 434.5 c 128,-1,89
 201 391 201 391 264 391 c 0,90,91
 292 391 292 391 331 404 c 0,92,93
 407 431 407 431 471 507 c 0,94,95
 502 543 502 543 533 557 c 0,96,97
 552 566 552 566 567 566 c 0,98,99
 577 566 577 566 585 561 c 0,100,101
 618 543 618 543 618 487 c 0,102,103
 618 479 618 479 616 459 c 0,104,105
 607 379 607 379 557 292 c 0,106,107
 496 185 496 185 412 127 c 0,108,109
 344 80 344 80 282 80 c 0,110,111
 274 80 274 80 256 82 c 1,112,113
 288 114 288 114 288 156 c 0,114,115
 288 171 288 171 283 191 c 0,116,117
 267 257 267 257 205 292 c 0,118,119
 173 311 173 311 137 311 c 0,120,121
 121 311 121 311 101 306 c 0,122,123
 61 295 61 295 32.5 264.5 c 128,-1,124
 4 234 4 234 4 190 c 0,125,126
 4 163 4 163 15 138 c 0,127,128
 40 79 40 79 99 45 c 0,129,130
 184 -4 184 -4 271 -4 c 0,131,132
 330 -4 330 -4 389 18 c 0,133,134
 535 72 535 72 636 246 c 0,135,136
 651 272 651 272 665 310 c 1,137,-1
 665 133 l 2,138,139
 667 132 667 132 685 124.5 c 128,-1,140
 703 117 703 117 710 111 c 0,141,142
 736 92 736 92 750 85 c 1,0,1
858 534 m 0,143,144
 858 491 858 491 818.5 459.5 c 128,-1,145
 779 428 779 428 730 423 c 1,146,-1
 730 557 l 2,147,148
 730 581 730 581 724 604 c 1,149,-1
 725 604 l 1,150,-1
 726 605 l 1,151,152
 752 619 752 619 777 619 c 0,153,154
 810 619 810 619 834 593.5 c 128,-1,155
 858 568 858 568 858 534 c 0,143,144
784 163 m 0,156,157
 776 163 776 163 769.5 169.5 c 128,-1,158
 763 176 763 176 753 188.5 c 128,-1,159
 743 201 743 201 731 209 c 1,160,-1
 731 347 l 1,161,162
 780 342 780 342 819 311 c 128,-1,163
 858 280 858 280 858 237 c 0,164,165
 858 207 858 207 836 185 c 128,-1,166
 814 163 814 163 784 163 c 0,156,157
125 213 m 0,167,168
 126 213 126 213 130 213.5 c 128,-1,169
 134 214 134 214 135 214 c 0,170,171
 159 214 159 214 177 197.5 c 128,-1,172
 195 181 195 181 195 158 c 0,173,174
 195 124 195 124 160 119 c 0,175,176
 158 119 158 119 155 118.5 c 128,-1,177
 152 118 152 118 150 118 c 0,178,179
 126 118 126 118 108 134.5 c 128,-1,180
 90 151 90 151 90 174 c 0,181,182
 90 207 90 207 125 213 c 0,167,168
EndSplineSet
EndChar

StartChar: glyph566
Encoding: 65544 -1 203
Width: 782
GlyphClass: 3
Flags: W
LayerCount: 2
Fore
SplineSet
473 -47 m 1,0,1
 454 -105 454 -105 408 -180 c 0,2,3
 371 -241 371 -241 327.5 -267.5 c 128,-1,4
 284 -294 284 -294 204 -294 c 0,5,6
 130 -294 130 -294 56 -270 c 1,7,-1
 37 -327 l 1,8,9
 134 -357 134 -357 220 -357 c 0,10,11
 304 -357 304 -357 363 -324 c 0,12,13
 411 -298 411 -298 459 -224 c 0,14,15
 502 -158 502 -158 539 -47 c 1,16,-1
 473 -47 l 1,0,1
426 814 m 2,17,-1
 -67 814 l 1,18,-1
 -67 815 l 1,19,-1
 -69 814 l 1,20,-1
 -79 814 l 1,21,-1
 -79 801 l 1,22,23
 -99 773 -99 773 -102 771 c 0,24,25
 -126 752 -126 752 -164 738 c 1,26,27
 -139 737 -139 737 -91 737 c 2,28,-1
 -79 737 l 1,29,-1
 -79 736 l 1,30,-1
 439 736 l 2,31,32
 442 736 442 736 447 736 c 0,33,34
 645 737 645 737 678.5 739 c 128,-1,35
 712 741 712 741 712 753 c 0,36,37
 713 766 713 766 726 776 c 0,38,39
 783 818 783 818 783 878 c 0,40,41
 783 918 783 918 748.5 968.5 c 128,-1,42
 714 1019 714 1019 676 1019 c 0,43,44
 666 1017 666 1017 641 994 c 2,45,-1
 616 971 l 1,46,-1
 638 957 l 2,47,48
 656 945 656 945 670.5 921.5 c 128,-1,49
 685 898 685 898 685 881 c 0,50,51
 685 848 685 848 675.5 835.5 c 128,-1,52
 666 823 666 823 634 818 c 128,-1,53
 602 813 602 813 521 813 c 0,54,55
 499 813 499 813 489 813.5 c 128,-1,56
 479 814 479 814 426 814 c 2,17,-1
474 657 m 0,57,58
 504 657 504 657 524.5 626.5 c 128,-1,59
 545 596 545 596 545 556 c 0,60,61
 545 478 545 478 489 431 c 128,-1,62
 433 384 433 384 334 378 c 1,63,-1
 320 378 l 2,64,65
 245 378 245 378 185 421.5 c 128,-1,66
 125 465 125 465 125 530 c 0,67,68
 125 536 125 536 128 536 c 0,69,70
 133 536 133 536 148.5 533 c 128,-1,71
 164 530 164 530 174 530 c 0,72,73
 221 530 221 530 249.5 556.5 c 128,-1,74
 278 583 278 583 279 626 c 0,75,76
 279 667 279 667 248.5 694.5 c 128,-1,77
 218 722 218 722 176 722 c 0,78,79
 113 722 113 722 81.5 673.5 c 128,-1,80
 50 625 50 625 50 551 c 0,81,82
 50 451 50 451 125.5 387.5 c 128,-1,83
 201 324 201 324 323 324 c 2,84,-1
 340 324 l 1,85,86
 463 329 463 329 540.5 393.5 c 128,-1,87
 618 458 618 458 618 555 c 0,88,89
 618 625 618 625 579.5 673.5 c 128,-1,90
 541 722 541 722 468 722 c 0,91,92
 415 722 415 722 377 693.5 c 128,-1,93
 339 665 339 665 339 625 c 0,94,95
 341 589 341 589 370 566 c 2,96,-1
 384 555 l 1,97,98
 400 554 400 554 432.5 554 c 128,-1,99
 465 554 465 554 481 553 c 1,100,-1
 471 567 l 2,101,102
 463 577 463 577 449.5 588.5 c 128,-1,103
 436 600 436 600 427.5 608.5 c 128,-1,104
 419 617 419 617 419 624 c 0,105,106
 419 639 419 639 436.5 648 c 128,-1,107
 454 657 454 657 474 657 c 0,57,58
171 665 m 0,108,109
 186 665 186 665 195.5 651.5 c 128,-1,110
 205 638 205 638 205 624 c 128,-1,111
 205 610 205 610 196.5 598.5 c 128,-1,112
 188 587 188 587 174 587 c 128,-1,113
 160 587 160 587 148 598.5 c 128,-1,114
 136 610 136 610 136 626 c 128,-1,115
 136 642 136 642 146.5 653.5 c 128,-1,116
 157 665 157 665 171 665 c 0,108,109
474 261 m 0,117,118
 504 261 504 261 524.5 230.5 c 128,-1,119
 545 200 545 200 545 160 c 0,120,121
 545 82 545 82 489 35 c 128,-1,122
 433 -12 433 -12 334 -18 c 1,123,-1
 320 -18 l 2,124,125
 245 -18 245 -18 185 25.5 c 128,-1,126
 125 69 125 69 125 134 c 0,127,128
 125 140 125 140 128 140 c 0,129,130
 133 140 133 140 148.5 137 c 128,-1,131
 164 134 164 134 174 134 c 0,132,133
 221 134 221 134 249.5 160.5 c 128,-1,134
 278 187 278 187 279 230 c 0,135,136
 279 271 279 271 248.5 298.5 c 128,-1,137
 218 326 218 326 176 326 c 0,138,139
 113 326 113 326 81.5 277.5 c 128,-1,140
 50 229 50 229 50 155 c 0,141,142
 50 55 50 55 125.5 -8.5 c 128,-1,143
 201 -72 201 -72 323 -72 c 2,144,-1
 340 -72 l 1,145,146
 463 -67 463 -67 540.5 -2.5 c 128,-1,147
 618 62 618 62 618 159 c 0,148,149
 618 229 618 229 579.5 277.5 c 128,-1,150
 541 326 541 326 468 326 c 0,151,152
 415 326 415 326 377 297.5 c 128,-1,153
 339 269 339 269 339 229 c 0,154,155
 341 193 341 193 370 170 c 2,156,-1
 384 159 l 1,157,158
 400 158 400 158 432.5 158 c 128,-1,159
 465 158 465 158 481 157 c 1,160,-1
 471 171 l 2,161,162
 463 181 463 181 449.5 192.5 c 128,-1,163
 436 204 436 204 427.5 212.5 c 128,-1,164
 419 221 419 221 419 228 c 0,165,166
 419 243 419 243 436.5 252 c 128,-1,167
 454 261 454 261 474 261 c 0,117,118
171 269 m 0,168,169
 186 269 186 269 195.5 255.5 c 128,-1,170
 205 242 205 242 205 228 c 128,-1,171
 205 214 205 214 196.5 202.5 c 128,-1,172
 188 191 188 191 174 191 c 128,-1,173
 160 191 160 191 148 202.5 c 128,-1,174
 136 214 136 214 136 230 c 128,-1,175
 136 246 136 246 146.5 257.5 c 128,-1,176
 157 269 157 269 171 269 c 0,168,169
EndSplineSet
EndChar

StartChar: glyph623
Encoding: 65545 -1 204
Width: 653
GlyphClass: 3
Flags: W
AnchorPoint: "Anchor-1" 501 -139 basechar 0
LayerCount: 2
Fore
SplineSet
245 819 m 2,0,-1
 2 819 l 1,1,-1
 2 811 l 2,2,3
 0 807 0 807 -4.5 799 c 128,-1,4
 -9 791 -9 791 -13 784.5 c 128,-1,5
 -17 778 -17 778 -20 775 c 0,6,7
 -39 756 -39 756 -69 742 c 1,8,9
 -49 741 -49 741 -11 741 c 2,10,-1
 2 741 l 1,11,-1
 2 734 l 1,12,13
 62 734 62 734 181.5 732.5 c 128,-1,14
 301 731 301 731 361 730 c 1,15,-1
 401 713 l 1,16,17
 468 696 468 696 511 642 c 128,-1,18
 554 588 554 588 554 538 c 0,19,20
 554 536 554 536 553.5 532 c 128,-1,21
 553 528 553 528 553 526 c 0,22,23
 549 495 549 495 518.5 471.5 c 128,-1,24
 488 448 488 448 453 448 c 0,25,26
 429 448 429 448 410.5 460 c 128,-1,27
 392 472 392 472 385 482.5 c 128,-1,28
 378 493 378 493 367 514 c 0,29,30
 343 564 343 564 289 593 c 128,-1,31
 235 622 235 622 170 622 c 0,32,33
 91 622 91 622 47 589.5 c 128,-1,34
 3 557 3 557 3 512 c 0,35,36
 3 479 3 479 48 422 c 128,-1,37
 93 365 93 365 132 365 c 0,38,39
 140 365 140 365 173 378 c 2,40,-1
 209 392 l 1,41,-1
 183 404 l 2,42,43
 145 424 145 424 123 453.5 c 128,-1,44
 101 483 101 483 101 516 c 0,45,46
 101 538 101 538 119 556 c 128,-1,47
 137 574 137 574 171 574 c 0,48,49
 179 574 179 574 205 566 c 0,50,51
 234 556 234 556 254 535 c 128,-1,52
 274 514 274 514 287.5 491.5 c 128,-1,53
 301 469 301 469 318.5 447.5 c 128,-1,54
 336 426 336 426 370.5 412.5 c 128,-1,55
 405 399 405 399 457 399 c 0,56,57
 558 399 558 399 605.5 443.5 c 128,-1,58
 653 488 653 488 653 550 c 0,59,60
 653 591 653 591 626 639.5 c 128,-1,61
 599 688 599 688 566 700 c 0,62,63
 556 700 556 700 544 708.5 c 128,-1,64
 532 717 532 717 525.5 725 c 128,-1,65
 519 733 519 733 519 735 c 0,66,67
 519 740 519 740 526 740 c 0,68,69
 564 740 564 740 606 789.5 c 128,-1,70
 648 839 648 839 648 888 c 0,71,72
 648 931 648 931 618.5 982.5 c 128,-1,73
 589 1034 589 1034 565 1034 c 0,74,75
 555 1034 555 1034 532 1011 c 2,76,-1
 509 987 l 1,77,-1
 524 973 l 2,78,79
 539 959 539 959 551.5 933 c 128,-1,80
 564 907 564 907 564 890 c 0,81,82
 564 843 564 843 534 830.5 c 128,-1,83
 504 818 504 818 397 818 c 0,84,85
 379 818 379 818 329 818.5 c 128,-1,86
 279 819 279 819 245 819 c 2,0,-1
506 333 m 0,87,88
 530 333 530 333 546.5 302.5 c 128,-1,89
 563 272 563 272 563 232 c 0,90,91
 563 154 563 154 518 107 c 128,-1,92
 473 60 473 60 394 54 c 1,93,-1
 383 54 l 2,94,95
 323 54 323 54 275 97.5 c 128,-1,96
 227 141 227 141 227 206 c 0,97,98
 227 212 227 212 229 212 c 0,99,100
 234 212 234 212 246 209 c 128,-1,101
 258 206 258 206 266 206 c 0,102,103
 304 206 304 206 326.5 232.5 c 128,-1,104
 349 259 349 259 350 302 c 0,105,106
 350 343 350 343 326 370.5 c 128,-1,107
 302 398 302 398 268 398 c 0,108,109
 218 398 218 398 192.5 349.5 c 128,-1,110
 167 301 167 301 167 227 c 0,111,112
 167 127 167 127 227 63.5 c 128,-1,113
 287 0 287 0 385 0 c 2,114,-1
 399 0 l 2,115,116
 427 2 427 2 449 7 c 1,117,118
 431 -41 431 -41 392 -106 c 0,119,120
 353 -172 353 -172 307 -200.5 c 128,-1,121
 261 -229 261 -229 177 -229 c 0,122,123
 100 -229 100 -229 22 -203 c 1,124,-1
 2 -264 l 1,125,126
 104 -297 104 -297 194 -297 c 0,127,128
 283 -297 283 -297 344 -261 c 0,129,130
 395 -233 395 -233 445 -153 c 0,131,132
 490 -82 490 -82 529 38 c 1,133,-1
 521 38 l 1,134,135
 621 103 621 103 621 231 c 0,136,137
 621 301 621 301 590.5 349.5 c 128,-1,138
 560 398 560 398 501 398 c 0,139,140
 459 398 459 398 428.5 369.5 c 128,-1,141
 398 341 398 341 398 301 c 0,142,143
 400 265 400 265 423 242 c 2,144,-1
 434 231 l 1,145,146
 447 230 447 230 473 230 c 128,-1,147
 499 230 499 230 512 229 c 1,148,-1
 504 243 l 2,149,150
 498 254 498 254 480 272.5 c 128,-1,151
 462 291 462 291 462 300 c 0,152,153
 462 315 462 315 476 324 c 128,-1,154
 490 333 490 333 506 333 c 0,87,88
264 341 m 0,155,156
 276 341 276 341 283.5 327.5 c 128,-1,157
 291 314 291 314 291 300 c 128,-1,158
 291 286 291 286 284 274.5 c 128,-1,159
 277 263 277 263 266 263 c 128,-1,160
 255 263 255 263 245.5 274.5 c 128,-1,161
 236 286 236 286 236 302 c 128,-1,162
 236 318 236 318 244.5 329.5 c 128,-1,163
 253 341 253 341 264 341 c 0,155,156
EndSplineSet
Ligature2: "'cjct' Conjunct Forms in Bengali2 lookup 6 subtable" uni09A8 uni09CD uni09A4_uni09CD_uni09F0.blwf.vatu
EndChar

StartChar: glyph643
Encoding: 65546 -1 205
Width: 756
GlyphClass: 3
Flags: W
AnchorPoint: "Anchor-1" 659 -1 basechar 0
LayerCount: 2
Fore
SplineSet
265 550 m 1,0,1
 258 513 258 513 227.5 479.5 c 128,-1,2
 197 446 197 446 148 446 c 0,3,4
 131 446 131 446 120 454 c 128,-1,5
 109 462 109 462 109 472 c 0,6,7
 109 522 109 522 265 550 c 1,0,1
343 566 m 1,8,9
 390 576 390 576 467 608 c 1,10,11
 499 576 499 576 499 511 c 0,12,13
 499 472 499 472 398 440 c 1,14,15
 388 442 388 442 382 442 c 0,16,17
 326 437 326 437 281 409.5 c 128,-1,18
 236 382 236 382 236 349 c 0,19,20
 236 319 236 319 269 299.5 c 128,-1,21
 302 280 302 280 359 280 c 0,22,23
 460 280 460 280 544 331 c 0,24,25
 594 358 594 358 629 358 c 0,26,27
 676 358 676 358 676 322 c 0,28,29
 676 260 676 260 580 199.5 c 128,-1,30
 484 139 484 139 373 139 c 0,31,32
 370 139 370 139 362 139.5 c 128,-1,33
 354 140 354 140 351 140 c 1,34,35
 379 155 379 155 379 174 c 0,36,37
 379 202 379 202 339.5 222.5 c 128,-1,38
 300 243 300 243 243 243 c 0,39,40
 194 243 194 243 159 227.5 c 128,-1,41
 124 212 124 212 124 189 c 0,42,43
 124 150 124 150 201.5 125.5 c 128,-1,44
 279 101 279 101 365 101 c 0,45,46
 459 101 459 101 534 124 c 1,47,-1
 592 149 l 1,48,49
 577 111 577 111 539 46 c 0,50,51
 500 -20 500 -20 454 -48.5 c 128,-1,52
 408 -77 408 -77 324 -77 c 0,53,54
 247 -77 247 -77 169 -51 c 1,55,-1
 149 -112 l 1,56,57
 251 -145 251 -145 341 -145 c 0,58,59
 429 -145 429 -145 491 -109 c 0,60,61
 542 -81 542 -81 592 -1 c 0,62,63
 637 70 637 70 676 190 c 1,64,-1
 668 190 l 1,65,66
 754 252 754 252 754 318 c 0,67,68
 754 353 754 353 724.5 375.5 c 128,-1,69
 695 398 695 398 637 398 c 0,70,71
 550 398 550 398 473 352 c 0,72,73
 419 320 419 320 365 320 c 0,74,75
 319 320 319 320 317 345 c 0,76,77
 317 354 317 354 321 362 c 1,78,79
 322 361 322 361 323 360 c 2,80,-1
 325 359 l 2,81,82
 355 343 355 343 391 343 c 0,83,84
 434 343 434 343 465 358 c 128,-1,85
 496 373 496 373 496 392 c 0,86,87
 496 405 496 405 475 416 c 1,88,89
 577 454 577 454 577 511 c 0,90,91
 577 569 577 569 519 631 c 1,92,93
 603 666 603 666 603 712 c 0,94,95
 603 714 603 714 597 720 c 128,-1,96
 591 726 591 726 580.5 733 c 128,-1,97
 570 740 570 740 561 742 c 1,98,99
 643 746 643 746 699.5 783.5 c 128,-1,100
 756 821 756 821 756 882 c 0,101,102
 756 921 756 921 728.5 971.5 c 128,-1,103
 701 1022 701 1022 671 1022 c 0,104,105
 664 1022 664 1022 643 997 c 2,106,-1
 623 974 l 1,107,-1
 640 960 l 2,108,109
 654 948 654 948 666 924.5 c 128,-1,110
 678 901 678 901 678 884 c 0,111,112
 678 851 678 851 670.5 838.5 c 128,-1,113
 663 826 663 826 637.5 821 c 128,-1,114
 612 816 612 816 547 816 c 0,115,116
 530 816 530 816 450 816.5 c 128,-1,117
 370 817 370 817 327 817 c 2,118,-1
 8 817 l 1,119,-1
 8 819 l 1,120,-1
 6 817 l 1,121,-1
 0 817 l 1,122,-1
 0 807 l 1,123,124
 -15 779 -15 779 -20 775 c 0,125,126
 -39 756 -39 756 -69 742 c 1,127,128
 -49 741 -49 741 -11 741 c 2,129,-1
 0 741 l 1,130,-1
 0 737 l 1,131,-1
 108 737 l 1,132,133
 179 707 179 707 222 663 c 128,-1,134
 265 619 265 619 265 586 c 1,135,136
 206 576 206 576 154.5 561.5 c 128,-1,137
 103 547 103 547 60.5 522.5 c 128,-1,138
 18 498 18 498 18 472 c 0,139,140
 18 445 18 445 56 426 c 128,-1,141
 94 407 94 407 148 407 c 0,142,143
 237 407 237 407 290 457 c 128,-1,144
 343 507 343 507 343 566 c 1,8,9
538 712 m 0,145,146
 538 706 538 706 528 696 c 0,147,148
 528 692 528 692 441 635 c 1,149,-1
 441 634 l 1,150,151
 390 609 390 609 337 599 c 1,152,153
 337 624 337 624 309.5 671.5 c 128,-1,154
 282 719 282 719 248 739 c 1,155,-1
 337 739 l 2,156,157
 361 739 361 739 399.5 739.5 c 128,-1,158
 438 740 438 740 452 740 c 0,159,160
 466 738 466 738 487.5 731.5 c 128,-1,161
 509 725 509 725 523.5 719 c 128,-1,162
 538 713 538 713 538 712 c 0,145,146
239 213 m 0,163,164
 240 213 240 213 243 213.5 c 128,-1,165
 246 214 246 214 248 214 c 0,166,167
 269 214 269 214 285.5 206 c 128,-1,168
 302 198 302 198 302 188 c 0,169,170
 302 174 302 174 270 170 c 1,171,-1
 263 170 l 2,172,173
 240 170 240 170 223.5 177.5 c 128,-1,174
 207 185 207 185 207 196 c 0,175,176
 207 209 207 209 239 213 c 0,163,164
391 413 m 0,177,178
 409 413 409 413 423.5 407.5 c 128,-1,179
 438 402 438 402 438 395 c 128,-1,180
 438 388 438 388 424.5 382 c 128,-1,181
 411 376 411 376 394 376 c 0,182,183
 350 376 350 376 350 392 c 0,184,185
 350 398 350 398 364 405.5 c 128,-1,186
 378 413 378 413 391 413 c 0,177,178
EndSplineSet
Ligature2: "'cjct' Conjunct Forms in Bengali2 lookup 6 subtable" uni09AE uni09CD uni09AD_uni09CD_uni09F0.blwf.vatu
EndChar

StartChar: glyph669
Encoding: 65547 -1 206
Width: 1180
GlyphClass: 3
Flags: W
AnchorPoint: "Anchor-1" 903 39 basechar 0
LayerCount: 2
Fore
SplineSet
499 733 m 1,0,-1
 499 578 l 1,1,2
 450 627 450 627 310 634 c 0,3,4
 250 637 250 637 199 650.5 c 128,-1,5
 148 664 148 664 148 686 c 0,6,7
 148 702 148 702 174.5 720.5 c 128,-1,8
 201 739 201 739 232 740 c 1,9,-1
 231 741 l 1,10,11
 278 741 278 741 278 741 c 1,12,-1
 278 733 l 1,13,-1
 499 733 l 1,0,-1
838 680 m 2,14,15
 757 680 757 680 697.5 616 c 128,-1,16
 638 552 638 552 638 470 c 0,17,18
 638 467 638 467 638.5 462.5 c 128,-1,19
 639 458 639 458 639 456 c 0,20,21
 644 376 644 376 703 317 c 128,-1,22
 762 258 762 258 841 258 c 0,23,24
 905 258 905 258 955.5 303.5 c 128,-1,25
 1006 349 1006 349 1006 414 c 0,26,27
 1006 468 1006 468 966 500 c 128,-1,28
 926 532 926 532 873 532 c 0,29,30
 823 532 823 532 792.5 504.5 c 128,-1,31
 762 477 762 477 752 432 c 0,32,33
 748 408 748 408 742 408 c 0,34,35
 737 408 737 408 729 436 c 128,-1,36
 721 464 721 464 721 481 c 0,37,38
 721 516 721 516 731.5 539 c 128,-1,39
 742 562 742 562 764.5 575 c 128,-1,40
 787 588 787 588 808.5 594 c 128,-1,41
 830 600 830 600 866 605 c 1,42,-1
 876 608 l 2,43,44
 887 610 887 610 903.5 612 c 128,-1,45
 920 614 920 614 932 614 c 0,46,47
 936 614 936 614 939.5 612.5 c 128,-1,48
 943 611 943 611 946 611 c 2,49,-1
 964 611 l 1,50,51
 972 605 972 605 984 595 c 128,-1,52
 996 585 996 585 1017 563.5 c 128,-1,53
 1038 542 1038 542 1051.5 512 c 128,-1,54
 1065 482 1065 482 1065 452 c 0,55,56
 1065 335 1065 335 995 257.5 c 128,-1,57
 925 180 925 180 824 180 c 0,58,59
 772 180 772 180 721.5 203 c 128,-1,60
 671 226 671 226 634.5 273.5 c 128,-1,61
 598 321 598 321 597 382 c 2,62,-1
 597 736 l 1,63,-1
 1045 736 l 2,64,65
 1105 736 1105 736 1141.5 779.5 c 128,-1,66
 1178 823 1178 823 1178 880 c 0,67,68
 1178 919 1178 919 1150.5 969 c 128,-1,69
 1123 1019 1123 1019 1093 1019 c 0,70,71
 1085 1019 1085 1019 1065 995 c 2,72,-1
 1045 971 l 1,73,-1
 1062 957 l 2,74,75
 1076 945 1076 945 1088 921.5 c 128,-1,76
 1100 898 1100 898 1100 881 c 0,77,78
 1100 865 1100 865 1091 849 c 0,79,80
 1089 846 1089 846 1087 841 c 0,81,82
 1082 829 1082 829 1071 826 c 128,-1,83
 1060 823 1060 823 999 820 c 0,84,85
 921 815 921 815 857 810 c 1,86,-1
 801 810 l 1,87,88
 804 818 804 818 825 838.5 c 128,-1,89
 846 859 846 859 853 862 c 0,90,91
 950 912 950 912 950 1025 c 0,92,93
 950 1099 950 1099 906 1145 c 128,-1,94
 862 1191 862 1191 800 1191 c 0,95,96
 749 1191 749 1191 711.5 1157.5 c 128,-1,97
 674 1124 674 1124 674 1082 c 128,-1,98
 674 1040 674 1040 708 1007 c 128,-1,99
 742 974 742 974 789 974 c 0,100,101
 831 974 831 974 863 1009 c 0,102,103
 875 1023 875 1023 879 1023 c 0,104,105
 881 1023 881 1023 881 1018 c 0,106,107
 881 987 881 987 861.5 956 c 128,-1,108
 842 925 842 925 818 915 c 128,-1,109
 794 905 794 905 725.5 861 c 128,-1,110
 657 817 657 817 657 812 c 1,111,112
 523 815 523 815 278 820 c 1,113,-1
 278 807 l 1,114,-1
 20 807 l 1,115,116
 13 782 13 782 -0.5 771 c 128,-1,117
 -14 760 -14 760 -33 754 c 128,-1,118
 -52 748 -52 748 -61 740 c 1,119,-1
 137 740 l 1,120,121
 133 739 133 739 125 737 c 0,122,123
 84 725 84 725 70.5 716.5 c 128,-1,124
 57 708 57 708 57 686 c 0,125,126
 57 648 57 648 131 623.5 c 128,-1,127
 205 599 205 599 297 595 c 0,128,129
 345 593 345 593 383 581 c 128,-1,130
 421 569 421 569 421 550 c 0,131,132
 421 530 421 530 380.5 517 c 128,-1,133
 340 504 340 504 291 504 c 0,134,135
 175 504 175 504 83 569 c 1,136,-1
 18 547 l 1,137,138
 135 465 135 465 291 465 c 0,139,140
 360 465 360 465 418 480 c 128,-1,141
 476 495 476 495 499 520 c 1,142,-1
 499 206 l 2,143,144
 499 148 499 148 489 132.5 c 128,-1,145
 479 117 479 117 440 117 c 0,146,147
 424 117 424 117 389.5 139 c 128,-1,148
 355 161 355 161 347 161 c 0,149,150
 342 161 342 161 317.5 139.5 c 128,-1,151
 293 118 293 118 293 115 c 0,152,153
 293 88 293 88 345 61 c 128,-1,154
 397 34 397 34 443 34 c 0,155,156
 513 34 513 34 545 67.5 c 128,-1,157
 577 101 577 101 599 167 c 1,158,-1
 599 168 l 1,159,160
 606 168 606 168 630 146 c 0,161,162
 698 87 698 87 788 76 c 1,163,164
 770 19 770 19 722 -61 c 0,165,166
 683 -127 683 -127 637 -155.5 c 128,-1,167
 591 -184 591 -184 507 -184 c 0,168,169
 430 -184 430 -184 352 -158 c 1,170,-1
 332 -219 l 1,171,172
 434 -252 434 -252 524 -252 c 0,173,174
 612 -252 612 -252 674 -216 c 0,175,176
 725 -188 725 -188 775 -108 c 0,177,178
 820 -37 820 -37 857 76 c 1,179,180
 972 88 972 88 1055 170 c 128,-1,181
 1138 252 1138 252 1138 381 c 0,182,183
 1138 440 1138 440 1102.5 513 c 128,-1,184
 1067 586 1067 586 1026 633 c 128,-1,185
 985 680 985 680 965 680 c 2,186,-1
 838 680 l 2,14,15
910 399 m 0,187,188
 910 368 910 368 893.5 350.5 c 128,-1,189
 877 333 877 333 847 333 c 0,190,191
 826 333 826 333 814 344.5 c 128,-1,192
 802 356 802 356 802 375 c 0,193,194
 802 403 802 403 822.5 420 c 128,-1,195
 843 437 843 437 870 437 c 0,196,197
 910 437 910 437 910 399 c 0,187,188
833 1073 m 0,198,199
 833 1056 833 1056 818 1043.5 c 128,-1,200
 803 1031 803 1031 784 1031 c 0,201,202
 764 1031 764 1031 749 1041 c 128,-1,203
 734 1051 734 1051 734 1067 c 0,204,205
 734 1081 734 1081 750.5 1097 c 128,-1,206
 767 1113 767 1113 781 1113 c 0,207,208
 800 1113 800 1113 816.5 1100.5 c 128,-1,209
 833 1088 833 1088 833 1073 c 0,198,199
EndSplineSet
Ligature2: "'cjct' Conjunct Forms in Bengali2 lookup 6 subtable" uni09B8 uni09CD uni099F_uni09CD_uni09F0.blwf.vatu
EndChar

StartChar: glyph671
Encoding: 65548 -1 207
Width: 776
GlyphClass: 3
Flags: W
AnchorPoint: "Anchor-1" 558 -69 basechar 0
LayerCount: 2
Fore
SplineSet
295 397 m 0,0,1
 307 397 307 397 314.5 383.5 c 128,-1,2
 322 370 322 370 322 356 c 128,-1,3
 322 342 322 342 315 330.5 c 128,-1,4
 308 319 308 319 297 319 c 128,-1,5
 286 319 286 319 276.5 330.5 c 128,-1,6
 267 342 267 342 267 358 c 128,-1,7
 267 374 267 374 275.5 385.5 c 128,-1,8
 284 397 284 397 295 397 c 0,0,1
776 885 m 0,9,10
 776 962 776 962 698 1028 c 1,11,-1
 646 976 l 1,12,13
 698 932 698 932 698 885 c 0,14,15
 698 858 698 858 679 839 c 128,-1,16
 660 820 660 820 633 820 c 2,17,-1
 2 820 l 1,18,19
 -5 795 -5 795 -18 781.5 c 128,-1,20
 -31 768 -31 768 -51 757.5 c 128,-1,21
 -71 747 -71 747 -79 741 c 1,22,-1
 119 741 l 1,23,24
 115 740 115 740 107 738 c 0,25,26
 66 726 66 726 52.5 717.5 c 128,-1,27
 39 709 39 709 39 687 c 0,28,29
 39 649 39 649 113 624.5 c 128,-1,30
 187 600 187 600 279 596 c 0,31,32
 327 594 327 594 365 582 c 128,-1,33
 403 570 403 570 403 551 c 0,34,35
 403 531 403 531 362.5 518 c 128,-1,36
 322 505 322 505 273 505 c 0,37,38
 157 505 157 505 65 570 c 1,39,-1
 0 548 l 1,40,41
 117 466 117 466 273 466 c 0,42,43
 343 466 343 466 402.5 481.5 c 128,-1,44
 462 497 462 497 483 523 c 1,45,46
 484 486 484 486 488.5 472 c 128,-1,47
 493 458 493 458 505 450 c 1,48,49
 472 441 472 441 450.5 415 c 128,-1,50
 429 389 429 389 429 357 c 0,51,52
 431 321 431 321 454 298 c 2,53,-1
 465 287 l 1,54,55
 478 286 478 286 504 286 c 128,-1,56
 530 286 530 286 543 285 c 1,57,-1
 535 299 l 2,58,59
 529 310 529 310 511 328.5 c 128,-1,60
 493 347 493 347 493 356 c 0,61,62
 493 371 493 371 507 380 c 128,-1,63
 521 389 521 389 537 389 c 0,64,65
 561 389 561 389 577.5 358.5 c 128,-1,66
 594 328 594 328 594 288 c 0,67,68
 594 210 594 210 549 163 c 128,-1,69
 504 116 504 116 425 110 c 1,70,-1
 414 110 l 2,71,72
 354 110 354 110 306 153.5 c 128,-1,73
 258 197 258 197 258 262 c 0,74,75
 258 268 258 268 260 268 c 0,76,77
 264 268 264 268 277 265 c 128,-1,78
 290 262 290 262 297 262 c 0,79,80
 335 262 335 262 357.5 288.5 c 128,-1,81
 380 315 380 315 381 358 c 0,82,83
 381 399 381 399 357 426.5 c 128,-1,84
 333 454 333 454 299 454 c 0,85,86
 249 454 249 454 223.5 405.5 c 128,-1,87
 198 357 198 357 198 283 c 0,88,89
 198 183 198 183 258 119.5 c 128,-1,90
 318 56 318 56 416 56 c 2,91,-1
 430 56 l 2,92,93
 462 57 462 57 494 67 c 1,94,95
 477 25 477 25 440 -38 c 0,96,97
 401 -104 401 -104 355 -132.5 c 128,-1,98
 309 -161 309 -161 225 -161 c 0,99,100
 148 -161 148 -161 70 -135 c 1,101,-1
 50 -196 l 1,102,103
 152 -229 152 -229 242 -229 c 0,104,105
 330 -229 330 -229 392 -193 c 0,106,107
 443 -165 443 -165 493 -85 c 0,108,109
 538 -14 538 -14 577 106 c 1,110,-1
 569 106 l 1,111,112
 652 171 652 171 652 287 c 0,113,114
 652 372 652 372 612 418 c 1,115,-1
 624 418 l 2,116,117
 663 418 663 418 713.5 432 c 128,-1,118
 764 446 764 446 764 461 c 0,119,120
 764 464 764 464 740 475 c 2,121,-1
 716 485 l 1,122,-1
 702 476 l 2,123,124
 672 457 672 457 626 457 c 0,125,126
 583 457 583 457 572.5 466 c 128,-1,127
 562 475 562 475 562 515 c 0,128,129
 562 523 562 523 562.5 555.5 c 128,-1,130
 563 588 563 588 563 612 c 2,131,-1
 563 740 l 1,132,-1
 483 740 l 1,133,-1
 481 741 l 1,134,-1
 481 579 l 1,135,136
 432 628 432 628 292 635 c 0,137,138
 232 638 232 638 181 651.5 c 128,-1,139
 130 665 130 665 130 687 c 0,140,141
 130 703 130 703 156.5 721.5 c 128,-1,142
 183 740 183 740 214 741 c 1,143,-1
 213 742 l 1,144,-1
 633 742 l 2,145,146
 692 742 692 742 734 784 c 128,-1,147
 776 826 776 826 776 885 c 0,9,10
EndSplineSet
Ligature2: "'cjct' Conjunct Forms in Bengali2 lookup 6 subtable" uni09B8 uni09CD uni09A4_uni09CD_uni09F0.blwf.vatu
EndChar

StartChar: glyph672
Encoding: 65549 -1 208
Width: 992
GlyphClass: 3
Flags: W
AnchorPoint: "Anchor-1" 786 51 basechar 0
LayerCount: 2
Fore
SplineSet
472 224 m 2,0,1
 470 182 470 182 409.5 157 c 128,-1,2
 349 132 349 132 274 132 c 128,-1,3
 199 132 199 132 140.5 157.5 c 128,-1,4
 82 183 82 183 82 226 c 2,5,-1
 82 233 l 2,6,7
 82 273 82 273 141.5 296.5 c 128,-1,8
 201 320 201 320 277 320 c 0,9,10
 359 320 359 320 415.5 294.5 c 128,-1,11
 472 269 472 269 472 230 c 2,12,-1
 472 224 l 2,0,1
569 384 m 1,13,-1
 569 389 l 2,14,15
 569 403 569 403 573 423 c 1,16,17
 600 418 600 418 624 418 c 0,18,19
 663 418 663 418 713.5 432 c 128,-1,20
 764 446 764 446 764 461 c 0,21,22
 764 464 764 464 740 475 c 2,23,-1
 716 485 l 1,24,-1
 702 476 l 2,25,26
 672 457 672 457 626 457 c 0,27,28
 583 457 583 457 572.5 466 c 128,-1,29
 562 475 562 475 562 515 c 0,30,31
 562 523 562 523 562.5 555.5 c 128,-1,32
 563 588 563 588 563 612 c 2,33,-1
 563 740 l 1,34,-1
 483 740 l 1,35,-1
 481 741 l 1,36,-1
 481 579 l 1,37,38
 432 628 432 628 292 635 c 0,39,40
 232 638 232 638 181 651.5 c 128,-1,41
 130 665 130 665 130 687 c 0,42,43
 130 703 130 703 156.5 721.5 c 128,-1,44
 183 740 183 740 214 741 c 1,45,-1
 213 742 l 1,46,-1
 846 742 l 2,47,48
 904 742 904 742 946.5 784 c 128,-1,49
 989 826 989 826 989 885 c 0,50,51
 989 962 989 962 911 1028 c 1,52,-1
 859 976 l 1,53,54
 911 932 911 932 911 885 c 0,55,56
 911 858 911 858 892 839 c 128,-1,57
 873 820 873 820 846 820 c 2,58,-1
 2 820 l 1,59,60
 -5 795 -5 795 -18 781.5 c 128,-1,61
 -31 768 -31 768 -51 757.5 c 128,-1,62
 -71 747 -71 747 -79 741 c 1,63,-1
 119 741 l 1,64,65
 115 740 115 740 107 738 c 0,66,67
 66 726 66 726 52.5 717.5 c 128,-1,68
 39 709 39 709 39 687 c 0,69,70
 39 649 39 649 113 624.5 c 128,-1,71
 187 600 187 600 279 596 c 0,72,73
 327 594 327 594 365 582 c 128,-1,74
 403 570 403 570 403 551 c 0,75,76
 403 531 403 531 362.5 518 c 128,-1,77
 322 505 322 505 273 505 c 0,78,79
 157 505 157 505 65 570 c 1,80,-1
 0 548 l 1,81,82
 117 466 117 466 273 466 c 0,83,84
 343 466 343 466 402.5 481.5 c 128,-1,85
 462 497 462 497 483 523 c 1,86,87
 485 458 485 458 485 441 c 2,88,-1
 485 326 l 1,89,-1
 459 338 l 2,90,91
 434 349 434 349 386 360 c 128,-1,92
 338 371 338 371 294 371 c 0,93,94
 170 371 170 371 85 330.5 c 128,-1,95
 0 290 0 290 0 234 c 0,96,97
 0 172 0 172 87 134 c 128,-1,98
 174 96 174 96 284 96 c 0,99,100
 386 96 386 96 459 128 c 0,101,102
 477 137 477 137 487 137 c 0,103,104
 490 134 490 134 503 120 c 128,-1,105
 516 106 516 106 521.5 102 c 128,-1,106
 527 98 527 98 542.5 90.5 c 128,-1,107
 558 83 558 83 577 80 c 1,108,109
 561 39 561 39 521 -28 c 0,110,111
 482 -94 482 -94 436 -122.5 c 128,-1,112
 390 -151 390 -151 306 -151 c 0,113,114
 229 -151 229 -151 151 -125 c 1,115,-1
 131 -186 l 1,116,117
 233 -219 233 -219 323 -219 c 0,118,119
 412 -219 412 -219 473 -183 c 0,120,121
 524 -155 524 -155 574 -75 c 0,122,123
 613 -12 613 -12 645 78 c 1,124,125
 687 81 687 81 724 92 c 128,-1,126
 761 103 761 103 761 114 c 0,127,128
 761 116 761 116 739 125 c 128,-1,129
 717 134 717 134 713 134 c 0,130,131
 706 134 706 134 681.5 126 c 128,-1,132
 657 118 657 118 646 116 c 2,133,-1
 598 116 l 2,134,135
 583 119 583 119 577.5 128 c 128,-1,136
 572 137 572 137 572 158 c 0,137,138
 572 163 572 163 572.5 186 c 128,-1,139
 573 209 573 209 573 228 c 0,140,141
 573 232 573 232 572.5 241 c 128,-1,142
 572 250 572 250 572 255 c 2,143,-1
 572 331 l 1,144,-1
 704 346 l 1,145,-1
 756 346 l 1,146,-1
 793 341 l 2,147,148
 841 335 841 335 873.5 312 c 128,-1,149
 906 289 906 289 906 258 c 128,-1,150
 906 227 906 227 874.5 203.5 c 128,-1,151
 843 180 843 180 787 180 c 0,152,153
 749 180 749 180 724.5 190 c 128,-1,154
 700 200 700 200 700 219 c 0,155,156
 700 228 700 228 713 237.5 c 128,-1,157
 726 247 726 247 738 247 c 0,158,159
 745 244 745 244 752 236.5 c 128,-1,160
 759 229 759 229 767.5 225.5 c 128,-1,161
 776 222 776 222 793 222 c 0,162,163
 815 222 815 222 830.5 230 c 128,-1,164
 846 238 846 238 846 250 c 0,165,166
 846 264 846 264 823.5 274 c 128,-1,167
 801 284 801 284 769 284 c 0,168,169
 718 284 718 284 676.5 264.5 c 128,-1,170
 635 245 635 245 635 216 c 0,171,172
 635 188 635 188 679.5 168.5 c 128,-1,173
 724 149 724 149 787 149 c 0,174,175
 869 149 869 149 929.5 195.5 c 128,-1,176
 990 242 990 242 990 288 c 0,177,178
 990 318 990 318 928.5 339 c 128,-1,179
 867 360 867 360 782 368.5 c 128,-1,180
 697 377 697 377 643.5 380.5 c 128,-1,181
 590 384 590 384 569 384 c 1,13,-1
EndSplineSet
Ligature2: "'cjct' Conjunct Forms in Bengali2 lookup 6 subtable" uni09B8 uni09CD uni0995_uni09CD_uni09F0.blwf.vatu
EndChar

StartChar: glyph675
Encoding: 65550 -1 209
Width: 1242
GlyphClass: 3
Flags: W
AnchorPoint: "Anchor-1" 1033 27 basechar 0
LayerCount: 2
Fore
SplineSet
542 524 m 2,0,1
 540 482 540 482 479.5 457 c 128,-1,2
 419 432 419 432 344 432 c 128,-1,3
 269 432 269 432 210.5 457.5 c 128,-1,4
 152 483 152 483 152 526 c 2,5,-1
 152 533 l 2,6,7
 152 573 152 573 211.5 596.5 c 128,-1,8
 271 620 271 620 347 620 c 0,9,10
 429 620 429 620 485.5 594.5 c 128,-1,11
 542 569 542 569 542 530 c 2,12,-1
 542 524 l 2,0,1
890 1073 m 0,13,14
 890 1056 890 1056 875 1043.5 c 128,-1,15
 860 1031 860 1031 841 1031 c 0,16,17
 821 1031 821 1031 806 1041 c 128,-1,18
 791 1051 791 1051 791 1067 c 0,19,20
 791 1081 791 1081 807.5 1097 c 128,-1,21
 824 1113 824 1113 838 1113 c 0,22,23
 857 1113 857 1113 873.5 1100.5 c 128,-1,24
 890 1088 890 1088 890 1073 c 0,13,14
967 195 m 0,25,26
 967 168 967 168 904 168 c 0,27,28
 859 168 859 168 859 185 c 0,29,30
 859 196 859 196 879.5 203 c 128,-1,31
 900 210 900 210 927 210 c 0,32,33
 967 210 967 210 967 195 c 0,25,26
654 411 m 1,34,-1
 654 644 l 1,35,-1
 828 644 l 1,36,-1
 864 635 l 2,37,38
 977 608 977 608 977 552 c 0,39,40
 977 521 977 521 945.5 497.5 c 128,-1,41
 914 474 914 474 858 474 c 0,42,43
 820 474 820 474 795.5 484 c 128,-1,44
 771 494 771 494 771 513 c 0,45,46
 771 522 771 522 784 531.5 c 128,-1,47
 797 541 797 541 809 541 c 0,48,49
 816 538 816 538 823 530.5 c 128,-1,50
 830 523 830 523 838.5 519.5 c 128,-1,51
 847 516 847 516 864 516 c 0,52,53
 886 516 886 516 901.5 524 c 128,-1,54
 917 532 917 532 917 544 c 0,55,56
 917 558 917 558 894.5 568 c 128,-1,57
 872 578 872 578 840 578 c 0,58,59
 789 578 789 578 747.5 558.5 c 128,-1,60
 706 539 706 539 706 510 c 0,61,62
 706 482 706 482 750.5 462.5 c 128,-1,63
 795 443 795 443 858 443 c 0,64,65
 943 443 943 443 997.5 474.5 c 128,-1,66
 1052 506 1052 506 1052 550 c 0,67,68
 1052 619 1052 619 950.5 647.5 c 128,-1,69
 849 676 849 676 654 677 c 1,70,-1
 654 735 l 1,71,72
 658 735 658 735 688 735.5 c 128,-1,73
 718 736 718 736 741 736 c 0,74,75
 827 736 827 736 941 735 c 0,76,77
 951 736 951 736 968 736 c 2,78,-1
 1102 736 l 2,79,80
 1162 736 1162 736 1198.5 779.5 c 128,-1,81
 1235 823 1235 823 1235 880 c 0,82,83
 1235 919 1235 919 1207.5 969 c 128,-1,84
 1180 1019 1180 1019 1150 1019 c 0,85,86
 1142 1019 1142 1019 1122 995 c 2,87,-1
 1102 971 l 1,88,-1
 1119 957 l 2,89,90
 1133 945 1133 945 1145 921.5 c 128,-1,91
 1157 898 1157 898 1157 881 c 0,92,93
 1157 865 1157 865 1148 849 c 0,94,95
 1146 846 1146 846 1144 840 c 0,96,97
 1139 829 1139 829 1128 826 c 0,98,99
 1122 825 1122 825 966 814 c 1,100,101
 944 819 944 819 938 819 c 2,102,-1
 864 819 l 1,103,104
 896 856 896 856 910 862 c 0,105,106
 1007 912 1007 912 1007 1025 c 0,107,108
 1007 1099 1007 1099 963 1145 c 128,-1,109
 919 1191 919 1191 857 1191 c 0,110,111
 806 1191 806 1191 768.5 1157.5 c 128,-1,112
 731 1124 731 1124 731 1082 c 128,-1,113
 731 1040 731 1040 765 1007 c 128,-1,114
 799 974 799 974 846 974 c 0,115,116
 888 974 888 974 920 1009 c 0,117,118
 932 1023 932 1023 936 1023 c 0,119,120
 938 1023 938 1023 938 1018 c 0,121,122
 938 987 938 987 918.5 956 c 128,-1,123
 899 925 899 925 875 915 c 0,124,125
 855 906 855 906 799 871 c 128,-1,126
 743 836 743 836 721 819 c 1,127,-1
 396 819 l 2,128,129
 359 820 359 820 335 820 c 1,130,-1
 335 819 l 1,131,-1
 -7 819 l 1,132,-1
 -7 801 l 1,133,134
 -22 773 -22 773 -27 769 c 0,135,136
 -46 750 -46 750 -76 736 c 1,137,138
 -56 735 -56 735 -18 735 c 2,139,-1
 335 735 l 1,140,-1
 335 733 l 1,141,-1
 556 733 l 1,142,-1
 556 620 l 1,143,-1
 530 632 l 2,144,145
 505 643 505 643 457 654 c 128,-1,146
 409 665 409 665 365 665 c 0,147,148
 241 665 241 665 156 624.5 c 128,-1,149
 71 584 71 584 71 528 c 0,150,151
 71 466 71 466 158 428 c 128,-1,152
 245 390 245 390 355 390 c 0,153,154
 457 390 457 390 530 422 c 0,155,156
 543 428 543 428 556 431 c 1,157,-1
 556 118 l 2,158,159
 556 95 556 95 546 88.5 c 128,-1,160
 536 82 536 82 497 82 c 0,161,162
 481 82 481 82 446.5 91 c 128,-1,163
 412 100 412 100 404 100 c 0,164,165
 399 100 399 100 374.5 91.5 c 128,-1,166
 350 83 350 83 350 81 c 0,167,168
 350 70 350 70 402 59.5 c 128,-1,169
 454 49 454 49 500 49 c 0,170,171
 570 49 570 49 602 62.5 c 128,-1,172
 634 76 634 76 656 102 c 1,173,174
 665 102 665 102 687 94 c 0,175,176
 768 65 768 65 881 65 c 2,177,-1
 886 65 l 1,178,179
 868 12 868 12 822 -66 c 0,180,181
 783 -132 783 -132 737 -160.5 c 128,-1,182
 691 -189 691 -189 607 -189 c 0,183,184
 530 -189 530 -189 452 -163 c 1,185,-1
 432 -224 l 1,186,187
 534 -257 534 -257 624 -257 c 0,188,189
 712 -257 712 -257 774 -221 c 0,190,191
 825 -193 825 -193 875 -113 c 0,192,193
 918 -45 918 -45 956 69 c 1,194,195
 1057 79 1057 79 1126 110.5 c 128,-1,196
 1195 142 1195 142 1195 188 c 0,197,198
 1195 223 1195 223 1126 265 c 128,-1,199
 1057 307 1057 307 1022 307 c 2,200,-1
 895 307 l 2,201,202
 814 307 814 307 754.5 281.5 c 128,-1,203
 695 256 695 256 695 223 c 0,204,205
 695 222 695 222 695.5 220.5 c 128,-1,206
 696 219 696 219 696 218 c 0,207,208
 701 186 701 186 760.5 162 c 128,-1,209
 820 138 820 138 898 138 c 0,210,211
 962 138 962 138 1012.5 156.5 c 128,-1,212
 1063 175 1063 175 1063 201 c 0,213,214
 1063 222 1063 222 1023 235 c 128,-1,215
 983 248 983 248 930 248 c 0,216,217
 833 248 833 248 809 208 c 0,218,219
 804 198 804 198 799 198 c 128,-1,220
 794 198 794 198 786 209.5 c 128,-1,221
 778 221 778 221 778 228 c 0,222,223
 778 254 778 254 813.5 263 c 128,-1,224
 849 272 849 272 923 277 c 2,225,-1
 989 281 l 2,226,227
 992 281 992 281 996 280.5 c 128,-1,228
 1000 280 1000 280 1003 280 c 2,229,-1
 1021 280 l 1,230,231
 1044 275 1044 275 1083 256.5 c 128,-1,232
 1122 238 1122 238 1122 216 c 0,233,234
 1122 169 1122 169 1052 138 c 128,-1,235
 982 107 982 107 881 107 c 0,236,237
 798 107 798 107 726 129.5 c 128,-1,238
 654 152 654 152 654 188 c 2,239,-1
 654 373 l 1,240,-1
 655 377 l 2,241,242
 655 381 655 381 654 392.5 c 128,-1,243
 653 404 653 404 653 407 c 0,244,245
 653 411 653 411 654 411 c 1,34,-1
EndSplineSet
Ligature2: "'cjct' Conjunct Forms in Bengali2 lookup 6 subtable" uni0995 uni09CD uni099F_uni09CD_uni09F0.blwf.vatu
EndChar

StartChar: glyph676
Encoding: 65551 -1 210
Width: 963
GlyphClass: 3
Flags: W
AnchorPoint: "Anchor-1" 897 10 basechar 0
LayerCount: 2
Fore
SplineSet
608 428 m 1,0,1
 624 425 624 425 638 425 c 0,2,3
 644 425 644 425 653.5 425.5 c 128,-1,4
 663 426 663 426 666 426 c 0,5,6
 679 426 679 426 684 420.5 c 128,-1,7
 689 415 689 415 689 396 c 0,8,9
 689 382 689 382 669 362 c 0,10,11
 656 349 656 349 614 321.5 c 128,-1,12
 572 294 572 294 548.5 265 c 128,-1,13
 525 236 525 236 525 194 c 0,14,15
 525 133 525 133 588 95.5 c 128,-1,16
 651 58 651 58 727 58 c 0,17,18
 740 58 740 58 764 60 c 1,19,20
 754 30 754 30 732.5 15 c 128,-1,21
 711 0 711 0 702 -16 c 0,22,23
 663 -82 663 -82 617 -110.5 c 128,-1,24
 571 -139 571 -139 487 -139 c 0,25,26
 454 -139 454 -139 260.5 -92 c 128,-1,27
 67 -45 67 -45 17 -28 c 1,28,-1
 -3 -89 l 1,29,30
 62 -110 62 -110 263 -158.5 c 128,-1,31
 464 -207 464 -207 504 -207 c 0,32,33
 592 -207 592 -207 654 -171 c 0,34,35
 705 -143 705 -143 755 -63 c 0,36,37
 765 -46 765 -46 783 -24 c 128,-1,38
 801 -2 801 -2 814 19.5 c 128,-1,39
 827 41 827 41 838 74 c 1,40,41
 899 93 899 93 943 130 c 1,42,-1
 897 194 l 1,43,44
 808 142 808 142 727 142 c 0,45,46
 691 142 691 142 657 156 c 128,-1,47
 623 170 623 170 623 194 c 0,48,49
 623 228 623 228 683 266 c 0,50,51
 718 287 718 287 742.5 322.5 c 128,-1,52
 767 358 767 358 767 402 c 0,53,54
 767 461 767 461 719.5 506.5 c 128,-1,55
 672 552 672 552 608 568 c 1,56,-1
 608 739 l 1,57,-1
 820 739 l 2,58,59
 878 739 878 739 920.5 781.5 c 128,-1,60
 963 824 963 824 963 882 c 0,61,62
 963 953 963 953 878 1025 c 1,63,-1
 833 973 l 1,64,65
 885 929 885 929 885 882 c 0,66,67
 885 855 885 855 866 836 c 128,-1,68
 847 817 847 817 820 817 c 2,69,-1
 9 817 l 1,70,-1
 9 819 l 1,71,-1
 7 817 l 1,72,-1
 1 817 l 1,73,-1
 1 807 l 1,74,75
 -14 779 -14 779 -19 775 c 0,76,77
 -38 756 -38 756 -68 742 c 1,78,79
 -48 741 -48 741 -10 741 c 2,80,-1
 1 741 l 1,81,-1
 1 739 l 1,82,-1
 533 739 l 1,83,-1
 533 486 l 1,84,85
 525 484 525 484 532 480 c 1,86,87
 502 448 502 448 454 448 c 0,88,89
 429 448 429 448 410 459.5 c 128,-1,90
 391 471 391 471 383 483 c 128,-1,91
 375 495 375 495 365 514 c 0,92,93
 341 564 341 564 287 593 c 128,-1,94
 233 622 233 622 168 622 c 0,95,96
 89 622 89 622 46.5 590 c 128,-1,97
 4 558 4 558 4 512 c 0,98,99
 4 479 4 479 49 422 c 128,-1,100
 94 365 94 365 133 365 c 0,101,102
 142 365 142 365 174 378 c 2,103,-1
 210 392 l 1,104,-1
 184 404 l 2,105,106
 146 424 146 424 124 453.5 c 128,-1,107
 102 483 102 483 102 516 c 0,108,109
 102 538 102 538 120 556 c 128,-1,110
 138 574 138 574 172 574 c 0,111,112
 180 574 180 574 206 566 c 0,113,114
 235 556 235 556 255 535 c 128,-1,115
 275 514 275 514 288.5 491.5 c 128,-1,116
 302 469 302 469 319.5 447.5 c 128,-1,117
 337 426 337 426 371.5 412.5 c 128,-1,118
 406 399 406 399 458 399 c 0,119,120
 497 399 497 399 608 428 c 1,0,1
EndSplineSet
Ligature2: "'cjct' Conjunct Forms in Bengali2 lookup 6 subtable" uni09A8 uni09CD uni09A6_uni09CD_uni09F0.blwf.vatu
EndChar

StartChar: glyph677
Encoding: 65552 -1 211
Width: 1117
GlyphClass: 3
Flags: W
AnchorPoint: "Anchor-1" 987 -55 basechar 0
LayerCount: 2
Fore
SplineSet
466 820 m 1,0,-1
 13 820 l 1,1,-1
 13 812 l 2,2,3
 11 808 11 808 6.5 800 c 128,-1,4
 2 792 2 792 -2 785.5 c 128,-1,5
 -6 779 -6 779 -9 776 c 0,6,7
 -28 757 -28 757 -58 743 c 1,8,9
 -38 742 -38 742 0 742 c 2,10,-1
 13 742 l 1,11,-1
 13 735 l 1,12,-1
 35 735 l 2,13,14
 91 735 91 735 226 738 c 128,-1,15
 361 741 361 741 417 741 c 0,16,17
 439 741 439 741 439 741 c 1,18,-1
 466 820 l 1,0,-1
837 400 m 1,19,-1
 837 257 l 1,20,21
 750 151 750 151 667 151 c 0,22,23
 608 151 608 151 569.5 180 c 128,-1,24
 531 209 531 209 531 260 c 0,25,26
 532 356 532 356 649 384 c 0,27,28
 696 395 696 395 837 400 c 1,19,-1
988 997 m 2,29,-1
 968 974 l 1,30,-1
 985 960 l 2,31,32
 999 948 999 948 1011 924.5 c 128,-1,33
 1023 901 1023 901 1023 884 c 0,34,35
 1023 865 1023 865 1015 851 c 0,36,37
 1012 845 1012 845 1008.5 836.5 c 128,-1,38
 1005 828 1005 828 1004 826.5 c 128,-1,39
 1003 825 1003 825 989 822 c 128,-1,40
 975 819 975 819 954.5 819 c 128,-1,41
 934 819 934 819 888 819 c 2,42,-1
 830 819 l 1,43,44
 830 806 830 806 829.5 780 c 128,-1,45
 829 754 829 754 829 741 c 1,46,-1
 827 739 l 1,47,-1
 842 738 l 1,48,-1
 842 495 l 1,49,50
 834 495 834 495 817 496 c 0,51,52
 765 498 765 498 747 499 c 128,-1,53
 729 500 729 500 684.5 505 c 128,-1,54
 640 510 640 510 621.5 518.5 c 128,-1,55
 603 527 603 527 577 541.5 c 128,-1,56
 551 556 551 556 541 580 c 128,-1,57
 531 604 531 604 531 635 c 0,58,59
 531 671 531 671 552.5 699.5 c 128,-1,60
 574 728 574 728 606 728 c 0,61,62
 630 728 630 728 648.5 715 c 128,-1,63
 667 702 667 702 667 682 c 0,64,65
 667 664 667 664 656.5 649.5 c 128,-1,66
 646 635 646 635 630 635 c 1,67,-1
 630 557 l 1,68,69
 676 557 676 557 708.5 594.5 c 128,-1,70
 741 632 741 632 741 682 c 0,71,72
 741 745 741 745 700.5 791.5 c 128,-1,73
 660 838 660 838 600 838 c 0,74,75
 532 838 532 838 488.5 776 c 128,-1,76
 445 714 445 714 445 635 c 0,77,78
 445 535 445 535 511 474 c 1,79,80
 480 448 480 448 442 448 c 0,81,82
 418 448 418 448 399.5 460 c 128,-1,83
 381 472 381 472 374 482.5 c 128,-1,84
 367 493 367 493 356 514 c 0,85,86
 332 564 332 564 278 593 c 128,-1,87
 224 622 224 622 159 622 c 0,88,89
 80 622 80 622 36 589.5 c 128,-1,90
 -8 557 -8 557 -8 512 c 0,91,92
 -8 479 -8 479 37 422 c 128,-1,93
 82 365 82 365 121 365 c 0,94,95
 130 365 130 365 162 378 c 2,96,-1
 198 392 l 1,97,-1
 172 404 l 2,98,99
 134 424 134 424 112 453.5 c 128,-1,100
 90 483 90 483 90 516 c 0,101,102
 90 538 90 538 108 556 c 128,-1,103
 126 574 126 574 160 574 c 0,104,105
 168 574 168 574 194 566 c 0,106,107
 223 556 223 556 243 535 c 128,-1,108
 263 514 263 514 276.5 491.5 c 128,-1,109
 290 469 290 469 307.5 447.5 c 128,-1,110
 325 426 325 426 359.5 412.5 c 128,-1,111
 394 399 394 399 446 399 c 0,112,113
 471 399 471 399 492 402 c 1,114,115
 445 344 445 344 445 260 c 0,116,117
 445 166 445 166 509 112 c 128,-1,118
 573 58 573 58 674 58 c 0,119,120
 772 58 772 58 856 142 c 1,121,122
 872 112 872 112 889 95 c 1,123,124
 867 29 867 29 822 -46 c 0,125,126
 783 -112 783 -112 737 -140.5 c 128,-1,127
 691 -169 691 -169 607 -169 c 0,128,129
 530 -169 530 -169 452 -143 c 1,130,-1
 432 -204 l 1,131,132
 534 -237 534 -237 624 -237 c 0,133,134
 712 -237 712 -237 774 -201 c 0,135,136
 825 -173 825 -173 875 -93 c 0,137,138
 914 -31 914 -31 946 61 c 1,139,140
 960 58 960 58 973 58 c 0,141,142
 1047 58 1047 58 1109 151 c 1,143,-1
 1060 214 l 1,144,145
 1019 151 1019 151 973 151 c 0,146,147
 946 151 946 151 926.5 175 c 128,-1,148
 907 199 907 199 907 229 c 2,149,-1
 907 736 l 1,150,151
 1030 736 1030 736 1057 762 c 0,152,153
 1078 782 1078 782 1089.5 816 c 128,-1,154
 1101 850 1101 850 1101 882 c 0,155,156
 1101 900 1101 900 1094 928 c 0,157,158
 1085 961 1085 961 1054 992 c 0,159,160
 1024 1022 1024 1022 1016 1022 c 0,161,162
 1009 1022 1009 1022 988 997 c 2,29,-1
862 790 m 1,163,-1
 861 791 l 1,164,-1
 862 790 l 1,163,-1
EndSplineSet
Ligature2: "'cjct' Conjunct Forms in Bengali2 lookup 6 subtable" uni09A8 uni09CD uni09A7_uni09CD_uni09F0.blwf.vatu
EndChar

StartChar: glyph678
Encoding: 65553 -1 212
Width: 744
GlyphClass: 3
Flags: W
AnchorPoint: "Anchor-1" 615 0 basechar 0
LayerCount: 2
Fore
SplineSet
510 575 m 0,0,1
 510 516 510 516 432 475.5 c 128,-1,2
 354 435 354 435 250 435 c 0,3,4
 192 435 192 435 143 449.5 c 128,-1,5
 94 464 94 464 94 490 c 0,6,7
 94 517 94 517 138.5 534.5 c 128,-1,8
 183 552 183 552 238 552 c 1,9,-1
 238 599 l 1,10,11
 182 599 182 599 138 616 c 128,-1,12
 94 633 94 633 94 661 c 0,13,14
 94 686 94 686 139 700.5 c 128,-1,15
 184 715 184 715 238 715 c 0,16,17
 346 715 346 715 428 675 c 128,-1,18
 510 635 510 635 510 575 c 0,0,1
584 738 m 1,19,20
 666 739 666 739 705 771.5 c 128,-1,21
 744 804 744 804 744 881 c 0,22,23
 744 920 744 920 716.5 970.5 c 128,-1,24
 689 1021 689 1021 659 1021 c 0,25,26
 652 1021 652 1021 631 996 c 2,27,-1
 611 973 l 1,28,-1
 628 959 l 2,29,30
 642 947 642 947 654 923.5 c 128,-1,31
 666 900 666 900 666 883 c 0,32,33
 666 840 666 840 652.5 827.5 c 128,-1,34
 639 815 639 815 602 815 c 0,35,36
 583 815 583 815 531 816 c 1,37,-1
 506 773 l 1,38,-1
 506 699 l 1,39,40
 407 770 407 770 234 770 c 0,41,42
 143 770 143 770 71.5 739 c 128,-1,43
 0 708 0 708 0 661 c 0,44,45
 0 629 0 629 34 605.5 c 128,-1,46
 68 582 68 582 116 574 c 1,47,48
 68 566 68 566 34 543 c 128,-1,49
 0 520 0 520 0 489 c 0,50,51
 0 441 0 441 75.5 410.5 c 128,-1,52
 151 380 151 380 246 380 c 0,53,54
 333 380 333 380 390.5 402 c 128,-1,55
 448 424 448 424 504 464 c 1,56,57
 504 439 504 439 505.5 426.5 c 128,-1,58
 507 414 507 414 510 401.5 c 128,-1,59
 513 389 513 389 515 374 c 1,60,61
 477 369 477 369 451 341.5 c 128,-1,62
 425 314 425 314 425 278 c 0,63,64
 425 244 425 244 450 219 c 2,65,-1
 461 208 l 1,66,67
 474 208 474 208 500 207 c 128,-1,68
 526 206 526 206 539 206 c 1,69,-1
 531 220 l 2,70,71
 525 231 525 231 507 249.5 c 128,-1,72
 489 268 489 268 489 277 c 0,73,74
 489 292 489 292 503 301 c 128,-1,75
 517 310 517 310 533 310 c 0,76,77
 557 310 557 310 573.5 279.5 c 128,-1,78
 590 249 590 249 590 209 c 0,79,80
 590 131 590 131 545 84 c 128,-1,81
 500 37 500 37 421 31 c 1,82,-1
 410 31 l 2,83,84
 350 31 350 31 302 74.5 c 128,-1,85
 254 118 254 118 254 183 c 0,86,87
 254 189 254 189 256 189 c 0,88,89
 260 189 260 189 273 186 c 128,-1,90
 286 183 286 183 293 183 c 0,91,92
 331 183 331 183 354 210.5 c 128,-1,93
 377 238 377 238 377 281 c 0,94,95
 377 321 377 321 352.5 348 c 128,-1,96
 328 375 328 375 295 375 c 0,97,98
 245 375 245 375 219.5 326.5 c 128,-1,99
 194 278 194 278 194 204 c 0,100,101
 194 104 194 104 254 40.5 c 128,-1,102
 314 -23 314 -23 412 -23 c 2,103,-1
 426 -23 l 2,104,105
 472 -23 472 -23 509 -8 c 1,106,107
 497 -33 497 -33 466 -86 c 0,108,109
 427 -152 427 -152 381 -180.5 c 128,-1,110
 335 -209 335 -209 251 -209 c 0,111,112
 174 -209 174 -209 96 -183 c 1,113,-1
 76 -244 l 1,114,115
 178 -277 178 -277 268 -277 c 0,116,117
 355 -277 355 -277 409 -246.5 c 128,-1,118
 463 -216 463 -216 506 -153 c 0,119,120
 561 -69 561 -69 603 58 c 1,121,-1
 598 58 l 1,122,123
 648 120 648 120 648 208 c 0,124,125
 648 320 648 320 584 359 c 1,126,-1
 584 738 l 1,19,20
291 318 m 0,127,128
 303 318 303 318 310.5 304.5 c 128,-1,129
 318 291 318 291 318 277 c 128,-1,130
 318 263 318 263 311 251.5 c 128,-1,131
 304 240 304 240 293 240 c 128,-1,132
 282 240 282 240 272.5 251.5 c 128,-1,133
 263 263 263 263 263 279 c 0,134,135
 263 294 263 294 271.5 306 c 128,-1,136
 280 318 280 318 291 318 c 0,127,128
EndSplineSet
Ligature2: "'cjct' Conjunct Forms in Bengali2 lookup 6 subtable" uni09AA uni09CD uni09A4_uni09CD_uni09F0.blwf.vatu
EndChar

